<svg width="23" height="23" viewBox="0 0 23 23" fill="none" xmlns="http://www.w3.org/2000/svg">
<g clip-path="url(#clip0_8111_83292)">
<g clip-path="url(#clip1_8111_83292)">
<g clip-path="url(#clip2_8111_83292)">
<circle cx="11.5" cy="11.5" r="10.5" fill="#6EC045"/>
<path d="M12.2226 8.69141H9.69654C9.36713 8.69141 9.08605 8.92954 9.03187 9.25446L8.31011 13.5849C8.24161 13.9957 8.55898 14.3695 8.97478 14.3695H11.5009C12.395 14.3339 12.3943 13.0571 11.5009 13.0219H9.77026L9.9065 12.2043H11.5009C12.395 12.1687 12.3943 10.8919 11.5009 10.8566H10.1311L10.2674 10.0391H12.2226C13.1167 10.0034 13.116 8.72667 12.2226 8.69141Z" fill="white"/>
<path d="M7.28014 8.70066C6.91304 8.63956 6.56588 8.88744 6.5047 9.25455L6.12363 11.5411L4.88509 9.06399C4.75454 8.80295 4.471 8.65565 4.1822 8.699C3.89357 8.74239 3.66568 8.96669 3.61775 9.25459L2.89599 13.5851C2.83481 13.9521 3.08278 14.2993 3.44988 14.3605C3.97304 14.4477 4.19401 13.9943 4.22532 13.8066L4.60639 11.5201L5.84493 13.9972C5.97548 14.2583 6.25929 14.4055 6.54783 14.3622C6.83645 14.3188 7.06434 14.0945 7.11227 13.8066L7.83403 9.4761C7.89521 9.109 7.64724 8.76184 7.28014 8.70066Z" fill="white"/>
<path d="M19.7402 8.76269C19.4074 8.59626 19.0027 8.7312 18.8362 9.06403L17.5493 11.6379L17.2127 9.95496C17.1581 9.68197 16.9412 9.4707 16.667 9.42318C16.3928 9.37578 16.1174 9.5017 15.9742 9.74042L15.0605 11.2631V9.36532C15.0249 8.47128 13.7482 8.47196 13.7129 9.36532V13.6958C13.7182 14.3766 14.6093 14.6239 14.9645 14.0424L16.233 11.9283L16.6129 13.8279C16.6694 14.1102 16.8989 14.3255 17.1842 14.3636C17.4695 14.402 17.7476 14.2546 17.8763 13.9971L20.0416 9.66665C20.208 9.33387 20.0731 8.92913 19.7402 8.76269Z" fill="white"/>
<path d="M11.5 0.03125C5.15887 0.03125 0 5.19012 0 11.5312C0.631691 26.7876 22.3706 26.7831 23 11.5312C23 5.19012 17.8411 0.03125 11.5 0.03125ZM11.5 21.6836C5.90197 21.6836 1.34766 17.1293 1.34766 11.5312C1.90532 -1.93723 21.0968 -1.93332 21.6523 11.5313C21.6523 17.1293 17.098 21.6836 11.5 21.6836Z" fill="#6EC045"/>
</g>
</g>
</g>
<defs>
<clipPath id="clip0_8111_83292">
<rect width="23" height="23" fill="white" transform="matrix(-1 0 0 1 23 0)"/>
</clipPath>
<clipPath id="clip1_8111_83292">
<rect width="23" height="23" fill="white" transform="matrix(-1 0 0 1 23 0)"/>
</clipPath>
<clipPath id="clip2_8111_83292">
<rect width="23" height="23" fill="white"/>
</clipPath>
</defs>
</svg>
