<svg width="23" height="23" viewBox="0 0 23 23" fill="none" xmlns="http://www.w3.org/2000/svg">
<g clip-path="url(#clip0_8111_83284)">
<path fill-rule="evenodd" clip-rule="evenodd" d="M5.81762 1.79688C5.81762 0.80449 6.6221 0 7.61446 0H15.5207C16.5132 0 17.3176 0.80449 17.3176 1.79688V12.9375C17.3176 13.1359 17.4785 13.2969 17.677 13.2969H20.6721C21.689 13.2969 22.1405 14.5758 21.3488 15.2142L12.2597 22.5441C11.8544 22.871 11.2734 22.8615 10.879 22.5215L2.37633 15.1916C1.61936 14.539 2.08086 13.2969 3.08028 13.2969H5.45824C5.65672 13.2969 5.81762 13.1359 5.81762 12.9375V1.79688ZM10.0103 4.84243C10.0101 5.04076 9.84934 5.20148 9.65097 5.20148C9.45245 5.20148 9.29159 5.04058 9.29159 4.8421H9.65097C9.29159 4.8421 9.29159 4.8421 9.29159 4.8421V4.84037V4.8379L9.29166 4.83081C9.29174 4.82516 9.29195 4.81762 9.29224 4.80835C9.29281 4.78981 9.29396 4.76424 9.29619 4.73263C9.30058 4.66953 9.3092 4.58167 9.32616 4.47714C9.35987 4.26983 9.42787 3.98773 9.56745 3.70116C9.70768 3.41338 9.92402 3.11331 10.2566 2.88577C10.5919 2.65636 11.0236 2.51562 11.5676 2.51562C12.6082 2.51562 13.3118 2.85244 13.7514 3.34109C14.1823 3.81992 14.3228 4.40378 14.3228 4.8421C14.3228 5.17407 14.2025 5.48338 14.0491 5.74577C13.8947 6.00995 13.6939 6.24838 13.5021 6.44528C13.5006 6.44681 13.4992 6.44832 13.4976 6.44983H14.4426C14.6411 6.44983 14.802 6.61073 14.802 6.80921C14.802 7.00769 14.6411 7.16858 14.4426 7.16858H8.69259C8.49414 7.16858 8.33321 7.00769 8.33321 6.80921C8.33321 6.61073 8.49414 6.44983 8.69259 6.44983H12.4095C12.4414 6.42583 12.4811 6.39542 12.5263 6.3593C12.6531 6.25813 12.8209 6.11452 12.9873 5.9437C13.1548 5.77177 13.3135 5.57989 13.4286 5.38303C13.5447 5.18438 13.6041 5.00192 13.6041 4.8421C13.6041 4.54151 13.505 4.14183 13.2171 3.82183C12.938 3.51166 12.4437 3.23438 11.5676 3.23438C11.1533 3.23438 10.8662 3.33952 10.6625 3.47896C10.456 3.62024 10.313 3.81195 10.2136 4.01595C10.1136 4.22115 10.0619 4.43083 10.0356 4.59235C10.0226 4.67224 10.0163 4.73806 10.0132 4.78253C10.0116 4.80471 10.0109 4.8214 10.0106 4.83168L10.0103 4.84243ZM8.33321 8.28453C8.33321 8.08608 8.49414 7.92515 8.69259 7.92515H14.4426C14.6411 7.92515 14.802 8.08608 14.802 8.28453C14.802 8.48305 14.6411 8.6439 14.4426 8.6439H10.7258C10.6938 8.66791 10.6541 8.69831 10.6088 8.73447C10.4821 8.83559 10.3144 8.9792 10.1479 9.15005C9.98044 9.32197 9.82174 9.51388 9.70667 9.71074C9.59052 9.90933 9.53115 10.0918 9.53115 10.2517C9.53115 10.5523 9.6302 10.952 9.91813 11.2719C10.1972 11.5821 10.6915 11.8594 11.5676 11.8594C11.9819 11.8594 12.2689 11.7542 12.4728 11.6148C12.6793 11.4735 12.8222 11.2818 12.9216 11.0778C13.0216 10.8726 13.0734 10.6629 13.0996 10.5014C13.1126 10.4215 13.1189 10.3557 13.122 10.3112C13.1236 10.2891 13.1243 10.2724 13.1246 10.2621L13.1249 10.2517C13.125 10.0533 13.2859 9.8923 13.4843 9.8923C13.6828 9.8923 13.8437 10.0532 13.8437 10.2517H13.4843C13.8437 10.2517 13.8437 10.2517 13.8437 10.2517V10.2534V10.2558L13.8436 10.263C13.8434 10.2686 13.8433 10.2761 13.843 10.2854C13.8424 10.3039 13.8413 10.3295 13.8391 10.3611C13.8347 10.4242 13.826 10.5121 13.8091 10.6166C13.7754 10.8239 13.7074 11.106 13.5678 11.3926C13.4276 11.6803 13.2112 11.9804 12.8787 12.208C12.5434 12.4374 12.1116 12.5781 11.5676 12.5781C10.5271 12.5781 9.82347 12.2413 9.38381 11.7526C8.95299 11.2738 8.8124 10.69 8.8124 10.2517C8.8124 9.91968 8.93272 9.61033 9.08617 9.34799C9.24056 9.08378 9.44131 8.84537 9.63314 8.64843C9.63465 8.64692 9.63609 8.64541 9.6376 8.6439H8.69259C8.49414 8.6439 8.33321 8.48305 8.33321 8.28453Z" fill="#D80027"/>
</g>
<defs>
<clipPath id="clip0_8111_83284">
<rect width="23" height="23" fill="white"/>
</clipPath>
</defs>
</svg>
