<svg width="60" height="60" viewBox="0 0 60 60" fill="none" xmlns="http://www.w3.org/2000/svg">
<path d="M48.9975 60.0014H10.5073C9.56052 60.0014 8.79297 59.2291 8.79297 58.2766V23.1055H50.7118V58.2766C50.7118 59.2292 49.9443 60.0014 48.9975 60.0014Z" fill="#F9F9F9"/>
<path d="M46.7085 22.4922V53.9322C46.7085 54.9266 45.9104 55.7327 44.9261 55.7327H8.55469V57.8066C8.55469 58.7617 9.32121 59.536 10.2667 59.536H48.7615C49.707 59.536 50.4735 58.7617 50.4735 57.8066V22.4922H46.7085Z" fill="#F9F9F9"/>
<path d="M23.5781 23.1055H35.9303V58.8746H23.5781V23.1055Z" fill="#6EC045"/>
<path d="M23.791 54.9023H36.1432V58.6905H23.791V54.9023Z" fill="#08A045"/>
<path d="M9.98242 10.6646L17.1648 16.5378H24.5595L17.221 6.91406L9.98242 10.6646Z" fill="#6EC045"/>
<path d="M17.4074 9.35156L13.2656 11.4976L19.2579 19.3557H25.036L17.4074 9.35156Z" fill="#08A045"/>
<path d="M48.3036 13.2504L41.4889 19.3557H34.4727L41.4356 9.35156L48.3036 13.2504Z" fill="#6EC045"/>
<path d="M45.5761 11.2461L36.3789 18.7669H40.8416L48.3079 12.6616L45.5761 11.2461Z" fill="#08A045"/>
<path d="M14.1797 0.723403L18.266 2.13839C20.3268 2.85197 22.0513 4.34528 23.0947 6.31965L26.4414 12.6527L24.4535 16.5361L19.3308 12.939C18.1665 12.1214 16.8268 11.6114 15.4284 11.4534L10.9299 10.9451C10.1708 10.8594 9.68988 10.0597 9.95022 9.316L12.6988 1.46486C12.9166 0.842425 13.5736 0.513565 14.1797 0.723403Z" fill="#6EC045"/>
<path d="M11.895 5.39492L16.2685 6.86583C18.4741 7.6076 20.3198 9.15992 21.4365 11.2123L25.4496 18.5675L27.1623 15.3179L23.5804 8.73458C22.4637 6.68219 20.6179 5.12988 18.4124 4.3881L14.0388 2.91731C13.3903 2.69918 12.687 3.04103 12.4538 3.68795L11.8438 5.38055C11.8608 5.38549 11.8779 5.38917 11.895 5.39492Z" fill="#08A045"/>
<path d="M44.8657 1.38996L40.4922 2.86087C38.2866 3.60265 36.4408 5.15496 35.3241 7.20736L31.7422 13.7907L33.8699 17.8275L39.3525 14.0883C40.5987 13.2384 42.0325 12.7082 43.5292 12.544L48.3439 12.0156C49.1563 11.9265 49.6711 11.0952 49.3924 10.3221L46.4507 2.16072C46.2176 1.51369 45.5144 1.17184 44.8657 1.38996Z" fill="#6EC045"/>
<path d="M50.701 10.322L47.7592 2.1606C47.5261 1.51369 46.8229 1.17184 46.1742 1.38997L44.3281 2.01078L47.9996 12.1968L49.6523 12.0155C50.4647 11.9264 50.9796 11.095 50.701 10.322Z" fill="#08A045"/>
<path d="M30.2449 7.9375C27.413 7.9375 25.1172 10.2472 25.1172 13.0966V19.8092H35.3724V13.0966C35.3726 10.2473 33.0768 7.9375 30.2449 7.9375Z" fill="#6EC045"/>
<path d="M30.2415 7.9375C29.6648 7.9375 29.111 8.03466 28.5938 8.21128C30.617 8.90201 32.0735 10.8275 32.0735 13.0965V19.809H35.3692V13.0965C35.3691 10.2473 33.0734 7.9375 30.2415 7.9375Z" fill="#08A045"/>
<path d="M53.1716 28.5597H5.95151C5.19414 28.5597 4.58008 27.9419 4.58008 27.1799V17.9189C4.58008 17.1569 5.19414 16.5391 5.95151 16.5391H53.1717C53.9291 16.5391 54.5432 17.1569 54.5432 17.9189V27.1799C54.5431 27.9419 53.9291 28.5597 53.1716 28.5597Z" fill="#F9F9F9"/>
<path d="M53.3668 18.4023H50.8976V25.1261C50.8976 25.9184 50.2592 26.5607 49.4716 26.5607H4.77344V29.0451C4.77344 29.8062 5.38658 30.4231 6.14304 30.4231H53.3668C54.1233 30.4231 54.7364 29.8062 54.7364 29.0451V19.7805C54.7364 19.0194 54.1233 18.4023 53.3668 18.4023Z" fill="#F9F9F9"/>
<path d="M23.5781 17.1992H35.9303V30.4239H23.5781V17.1992Z" fill="#6EC045"/>
<path d="M23.1289 24.4766H35.4811V28.339H23.1289V24.4766Z" fill="#08A045"/>
<path d="M46.9897 32.6311C46.096 33.4014 45.6548 34.5088 45.6955 35.6097C45.6995 35.7193 45.6011 35.8023 45.4946 35.7791C44.4244 35.5462 43.2635 35.7895 42.3534 36.5401C40.6627 37.9344 40.5796 40.4961 42.0887 42.0873C44.7916 44.9376 50.7929 45.1498 52.7886 45.1378C53.1766 45.1355 53.508 44.8561 53.5782 44.4721C53.9389 42.4972 54.781 36.5151 52.4645 33.3391C51.1712 31.5659 48.6498 31.2001 46.9897 32.6311Z" fill="#08A045"/>
<path d="M53.0356 33.3383C51.7627 31.593 49.3009 31.2125 47.6406 32.5651C47.7311 32.6654 47.8173 32.7713 47.8987 32.8827C50.2152 36.0587 49.3731 42.0408 49.0124 44.0157C48.9437 44.3917 48.6242 44.6656 48.2466 44.6791C50.3444 45.0921 52.3573 45.1429 53.3597 45.1369C53.7479 45.1346 54.0792 44.8552 54.1493 44.4711C54.51 42.4964 55.3522 36.5143 53.0356 33.3383Z" fill="#6EC045"/>
<path d="M54.7173 15.7282H46.889L51.3463 12.1347C51.5587 11.9768 51.7432 11.7796 51.8884 11.5483C52.243 10.9835 52.3153 10.3008 52.0866 9.67517L49.0696 1.42205C48.665 0.314964 47.4663 -0.259685 46.3402 0.113686L44.5668 0.701707C44.1069 0.854265 43.8587 1.34764 44.0125 1.8038C44.1663 2.26008 44.6634 2.50635 45.1236 2.3538L46.897 1.76566C47.1119 1.69461 47.3416 1.80426 47.4188 2.01589L50.4359 10.269C50.52 10.5789 50.3586 10.7671 50.0907 10.8189L45.1524 11.3532C43.4813 11.534 41.8626 12.1241 40.4714 13.0597L37.1964 15.262C37.1702 15.2572 36.6371 15.1579 36.6371 15.1579V12.6624C36.6371 11.7325 36.4252 10.8511 36.0477 10.062L37.6026 7.24448C38.4841 5.64716 39.8286 4.3946 41.4904 3.62216C41.9294 3.4181 42.1186 2.89961 41.9129 2.46403C41.7072 2.02845 41.1845 1.84089 40.7456 2.04484C38.7436 2.97531 37.1243 4.48402 36.0624 6.40797L34.9315 8.45715C33.8135 7.29832 32.2409 6.57437 30.5001 6.57437C28.76 6.57437 27.188 7.29774 26.0701 8.45576L24.938 6.40413C23.6824 4.12902 21.6253 2.42333 19.1456 1.60101L14.6597 0.113686C13.5342 -0.259453 12.335 0.314964 11.9303 1.42205L8.91325 9.67517C8.68457 10.3008 8.75689 10.9835 9.11147 11.5483C9.23548 11.7457 9.38822 11.9182 9.5624 12.0628C9.56275 12.0632 14.1085 15.7282 14.1085 15.7282H6.28268C5.02401 15.7282 4 16.744 4 17.9926V27.3614C4 28.61 5.02401 29.6258 6.28268 29.6258H8.12521V56.9219C8.12521 58.3626 9.30675 59.5347 10.7591 59.5347H50.2409C51.6932 59.5347 52.8748 58.3626 52.8748 56.9219V46.8283C53.1944 46.8375 53.4816 46.8412 53.7411 46.8412C53.799 46.8412 53.8553 46.8411 53.9098 46.8408C54.7283 46.836 55.4298 46.2529 55.578 45.454C56.0312 43.0071 56.8121 36.9461 54.2801 33.5231C53.8979 33.0065 53.4175 32.5769 52.8748 32.2517V29.6258H54.7173C55.976 29.6258 57 28.61 57 27.3614V17.9926C57.0001 16.744 55.976 15.7282 54.7173 15.7282ZM41.4566 14.5016C42.6116 13.7248 43.9555 13.2349 45.3429 13.0847L47.6999 12.8297L44.1049 15.7282H39.6325L41.4566 14.5016ZM40.5337 21.7055C40.3266 24.1879 41.6308 26.5377 43.856 27.6916L44.2269 27.884H37.7123V21.6604C37.7123 21.1793 37.3193 20.7894 36.8344 20.7894C36.3495 20.7894 35.9564 21.1793 35.9564 21.6604V27.884H25.0434V17.47H38.2749C39.7643 18.2951 40.683 19.9176 40.5337 21.7055ZM30.5 8.31634C32.9157 8.31634 34.8811 10.266 34.8811 12.6624V14.9118C34.5519 14.9922 34.2855 15.259 34.2251 15.6118C34.2185 15.6509 34.2154 15.6897 34.2141 15.7282H26.1189V12.6625C26.1189 10.266 28.0843 8.31634 30.5 8.31634ZM10.564 10.269L13.5811 2.01589C13.6584 1.80426 13.8879 1.69426 14.1029 1.76566L18.5886 3.2531C20.6474 3.93577 22.3551 5.35181 23.3974 7.24064L24.9532 10.0599C24.5752 10.8496 24.3629 11.7317 24.3629 12.6624V15.6381L20.5285 13.0597C19.1372 12.1241 17.5185 11.5339 15.8474 11.3532L10.9092 10.8189C10.6366 10.7655 10.4817 10.579 10.564 10.269ZM13.2973 12.8295L15.6571 13.0848C17.0445 13.2349 18.3883 13.7248 19.5434 14.5017L21.3675 15.7283H16.8927L13.2973 12.8295ZM5.75579 27.3614V17.9926C5.75579 17.7045 5.9921 17.47 6.28256 17.47H23.2875V27.884H6.28268C5.9921 27.884 5.75579 27.6495 5.75579 27.3614ZM9.88111 56.9219V29.6258H23.2875V30.9246C23.2875 31.4057 23.6806 31.7956 24.1655 31.7956C24.6504 31.7956 25.0434 31.4057 25.0434 30.9246V29.6258H35.9564V57.7927H25.0434V35.2358C25.0434 34.7548 24.6504 34.3649 24.1655 34.3649C23.6806 34.3649 23.2875 34.7548 23.2875 35.2358V57.7928H10.7591C10.275 57.7928 9.88111 57.4021 9.88111 56.9219ZM51.1189 56.9219C51.1189 57.4021 50.725 57.7928 50.2409 57.7928H37.7125V29.6258H46.0531C46.5045 30.4126 46.7122 31.3346 46.6117 32.2843L46.4588 33.7292C46.1107 34.281 45.8827 34.9002 45.7928 35.5515C44.6546 35.5066 43.5424 35.8724 42.6453 36.6018C41.6404 37.4189 41.0431 38.584 40.9629 39.8828C40.8812 41.2075 41.3668 42.5209 42.2952 43.4862C44.4345 45.7104 48.2241 46.476 51.119 46.7258L51.1189 56.9219ZM53.8584 45.0993C52.0335 45.1053 46.0984 44.9173 43.5656 42.284C42.9733 41.6682 42.6633 40.8318 42.7154 39.9893C42.7653 39.18 43.1357 38.4553 43.7583 37.9492C44.2884 37.5181 44.9399 37.2903 45.6101 37.2903C45.8186 37.2903 46.0289 37.3124 46.238 37.3572C46.5565 37.4254 46.8829 37.3458 47.1327 37.1382C47.3825 36.9307 47.5188 36.626 47.5069 36.3022C47.4733 35.4088 47.8456 34.5639 48.528 33.9839C49.1394 33.4643 49.9239 33.2291 50.7352 33.3221C51.5806 33.4186 52.3566 33.8677 52.8641 34.5537C55.0351 37.4883 54.1855 43.3152 53.8584 45.0993ZM51.1189 31.6174C51.0582 31.6081 50.9975 31.5987 50.9363 31.5917C50.0427 31.4895 49.1688 31.6363 48.3894 32.0092C48.4162 31.18 48.2761 30.3729 47.9915 29.6259H51.1189V31.6174ZM55.2442 27.3614C55.2442 27.6495 55.0079 27.884 54.7174 27.884H46.9702C46.4514 27.2631 45.8043 26.7364 45.0486 26.3444L44.6696 26.1479C43.0715 25.3192 42.1349 23.6318 42.2838 21.8491C42.4127 20.3027 41.9556 18.7762 40.9966 17.5504C40.9752 17.5229 40.9524 17.4969 40.9306 17.4699H54.7174C55.0079 17.4699 55.2442 17.7043 55.2442 17.9925V27.3614Z" fill="#08A045"/>
</svg>
