<svg width="60" height="60" viewBox="0 0 60 60" fill="none" xmlns="http://www.w3.org/2000/svg">
<path d="M12.6019 58.49L10.1028 50.5085C9.94588 50.0074 9.56197 49.6147 9.07201 49.4542L1.26856 46.8981C0.863091 46.7653 0.738872 46.2406 1.03993 45.9328L17.1177 29.4883L29.6234 42.2793L13.5457 58.7239C13.2446 59.0318 12.7318 58.9046 12.6019 58.49Z" fill="#6EC045"/>
<path d="M11.125 53.7841L12.5995 58.493C12.7293 58.9077 13.2422 59.0347 13.5432 58.7268L29.6209 42.2823L25.9956 38.5742L11.125 53.7841Z" fill="#08A045"/>
<path d="M47.3965 58.49L49.8956 50.5085C50.0525 50.0074 50.4364 49.6147 50.9264 49.4542L58.7299 46.8981C59.1353 46.7653 59.2595 46.2406 58.9585 45.9328L42.8807 29.4883L30.375 42.2793L46.4527 58.7239C46.7537 59.0318 47.2666 58.9046 47.3965 58.49Z" fill="#6EC045"/>
<path d="M54.3153 48.3444L58.7309 46.8981C59.1363 46.7653 59.2605 46.2406 58.9595 45.9328L42.8819 29.4883L39.3809 33.0691L54.3153 48.3444Z" fill="#08A045"/>
<path d="M54.8182 26.0885C54.8182 28.0281 53.4565 29.7849 53.0532 31.5995C52.6369 33.4733 53.1084 35.6585 52.3111 37.349C51.5005 39.0675 49.5277 40.0483 48.3754 41.5244C47.2175 43.0076 46.7176 45.191 45.2675 46.3753C43.8244 47.5539 41.6341 47.5705 39.954 48.3996C38.3012 49.2151 36.928 50.9645 35.0961 51.3903C33.3219 51.8028 31.3465 50.8457 29.4501 50.8457C27.5538 50.8457 25.5783 51.8028 23.8042 51.3903C21.9722 50.9645 20.599 49.2151 18.9462 48.3996C17.2661 47.5705 15.0758 47.5539 13.6328 46.3753C12.1827 45.191 11.6827 43.0076 10.5248 41.5244C9.37249 40.0484 7.39963 39.0675 6.58916 37.349C5.79181 35.6585 6.26337 33.4733 5.847 31.5996C5.44376 29.7849 4.08203 28.0281 4.08203 26.0886C4.08203 24.1491 5.44376 22.3922 5.847 20.5776C6.26337 18.7038 5.79181 16.5186 6.58916 14.8281C7.39975 13.1096 9.37249 12.1288 10.5248 10.6527C11.6827 9.16955 12.1827 6.98615 13.6328 5.8018C15.0758 4.6232 17.2662 4.60666 18.9462 3.77757C20.599 2.96203 21.9722 1.21265 23.8041 0.786785C25.5783 0.374341 27.5538 1.33144 29.4501 1.33144C31.3465 1.33144 33.3219 0.374341 35.096 0.786785C36.928 1.21265 38.3012 2.96203 39.954 3.77757C41.6342 4.60666 43.8244 4.6232 45.2675 5.8018C46.7176 6.98615 47.2175 9.16955 48.3754 10.6527C49.5277 12.1287 51.5006 13.1096 52.3111 14.8281C53.1084 16.5186 52.6369 18.7038 53.0532 20.5775C53.4566 22.3921 54.8182 24.1489 54.8182 26.0885Z" fill="#F9F9F9"/>
<path d="M53.0551 20.5759C52.6387 18.7021 53.1103 16.5171 52.3129 14.8265C51.7496 13.6322 50.6249 12.794 49.6045 11.8984C49.9043 13.3827 49.6703 15.0794 50.0031 16.5774C50.4064 18.3921 51.7681 20.1489 51.7681 22.0884C51.7681 24.028 50.4064 25.7848 50.0031 27.5994C49.5868 29.4732 50.0583 31.6584 49.261 33.3489C48.4504 35.0673 46.4776 36.0482 45.3253 37.5243C44.1674 39.0074 43.6675 41.1908 42.2174 42.3752C40.7743 43.5538 38.584 43.5703 36.9039 44.3994C35.2511 45.2149 33.8779 46.9643 32.046 47.3902C30.2718 47.8026 28.2964 46.8456 26.4 46.8456C24.5038 46.8456 22.5282 47.8026 20.7541 47.3902C18.9221 46.9643 17.5489 45.2149 15.8961 44.3994C14.4994 43.7102 12.7505 43.582 11.3711 42.8814C12.0339 44.1399 12.5862 45.5176 13.6346 46.3738C15.0776 47.5524 17.268 47.5689 18.948 48.398C20.6008 49.2135 21.974 50.9629 23.8061 51.3888C25.5803 51.8012 27.5557 50.8441 29.4519 50.8441C31.3483 50.8441 33.3237 51.8012 35.098 51.3888C36.93 50.9629 38.3031 49.2135 39.9559 48.398C41.636 47.5689 43.8263 47.5524 45.2693 46.3738C46.7195 45.1894 47.2193 43.006 48.3773 41.5229C49.5296 40.0469 51.5024 39.0659 52.3129 37.3475C53.1103 35.6569 52.6387 33.4717 53.0551 31.5979C53.4583 29.7832 54.82 28.0264 54.82 26.0869C54.82 24.1475 53.4584 22.3906 53.0551 20.5759Z" fill="#F9F9F9"/>
<path d="M29.4667 44.296C39.4812 44.296 47.5995 35.9925 47.5995 25.7496C47.5995 15.5066 39.4812 7.20312 29.4667 7.20312C19.4523 7.20312 11.334 15.5066 11.334 25.7496C11.334 35.9925 19.4523 44.296 29.4667 44.296Z" fill="#F9F9F9"/>
<path d="M38.5965 28.5296C38.5965 27.9334 38.3107 27.4057 37.8718 27.0812C37.8031 27.0304 37.7972 26.9296 37.8605 26.8717C38.2454 26.5187 38.4876 26.0063 38.4876 25.436C38.4876 24.3913 37.675 23.5413 36.661 23.5097V23.5081L31.4352 23.5027C31.2501 23.5025 31.1079 23.3351 31.1329 23.1475C31.2191 22.4989 31.3103 21.8766 31.3661 21.251C31.4749 20.031 31.4341 18.8243 30.7796 17.7388C30.0631 16.5503 28.9436 16.1384 27.734 16.5774C27.5206 16.6548 27.4317 16.7482 27.4581 16.9987C27.562 17.9774 27.658 18.9577 27.7213 19.9398C27.7392 20.2168 27.699 20.5354 27.577 20.7779C26.7379 22.4458 25.874 24.1006 25.0258 25.7636C24.856 26.0963 24.7254 26.4468 24.6354 26.8079C24.5732 27.0573 24.351 27.2299 24.0993 27.2299H22.1403C21.8029 27.2299 21.5293 27.5096 21.5293 27.8548V35.049C21.5293 35.3941 21.8028 35.674 22.1403 35.674H34.6622C35.5789 35.674 36.3739 34.9703 36.448 34.0356C36.4729 33.7206 36.4174 33.4213 36.3009 33.1562C36.265 33.0746 36.3119 32.9822 36.3977 32.966C37.2107 32.8132 37.8269 32.0852 37.8269 31.2095C37.8269 30.8815 37.7402 30.5743 37.5893 30.3101C37.5507 30.2426 37.5755 30.1565 37.6436 30.121C38.2091 29.8254 38.5965 29.2239 38.5965 28.5296Z" fill="#6EC045"/>
<path d="M59.577 45.5148L52.7638 38.5461C52.8865 38.356 52.9994 38.1571 53.0987 37.9464C53.6495 36.7787 53.6823 35.4918 53.7141 34.2473C53.7345 33.4473 53.7537 32.6917 53.9059 32.0068C54.05 31.3588 54.3457 30.6898 54.6589 29.9815C55.1671 28.832 55.6926 27.6434 55.6926 26.2981C55.6926 24.9526 55.1671 23.764 54.6589 22.6145C54.3457 21.9062 54.05 21.2373 53.9059 20.5892C53.7537 19.9044 53.7345 19.1487 53.7141 18.3487C53.6825 17.1043 53.6495 15.8174 53.0987 14.6497C52.5378 13.4605 51.566 12.6284 50.6261 11.8236C50.0344 11.317 49.4756 10.8386 49.0592 10.3053C48.6388 9.76675 48.3042 9.09972 47.95 8.3935C47.3923 7.28166 46.8155 6.13195 45.8139 5.31377C44.8171 4.49979 43.5951 4.1794 42.4135 3.86956L42.2244 3.81993C41.7574 3.69672 41.1167 3.69352 40.9965 4.17069C40.8763 4.64786 41.3225 5.42524 41.7891 5.5481L41.9803 5.59832C43.0298 5.8734 44.021 6.13338 44.7252 6.70836C45.4342 7.28741 45.9021 8.22042 46.3976 9.2082C46.7755 9.96153 47.1662 10.7405 47.6958 11.4188C48.2213 12.0921 48.8745 12.6513 49.5061 13.1922C50.3411 13.9069 51.1297 14.5822 51.5272 15.4252C51.915 16.2474 51.9416 17.2907 51.9699 18.3952C51.9915 19.247 52.014 20.1276 52.2046 20.9846C52.3876 21.8084 52.734 22.592 53.0691 23.3497C53.5211 24.3719 53.9479 25.3374 53.9479 26.2981C53.9479 27.2588 53.5211 28.2241 53.0692 29.2462C52.7341 30.0041 52.3876 30.7876 52.2046 31.6114C52.014 32.4686 51.9917 33.3491 51.9699 34.2008C51.9417 35.3052 51.9151 36.3486 51.5272 37.1708C51.1296 38.0138 50.341 38.6891 49.506 39.404C48.8743 39.9447 48.2213 40.504 47.6955 41.1771C47.1662 41.8553 46.7754 42.6343 46.3975 43.3876C45.9021 44.3754 45.434 45.3085 44.7251 45.8875C44.0209 46.4626 43.0296 46.7226 41.98 46.9976C41.1762 47.2083 40.3449 47.4262 39.5769 47.8053C38.826 48.1758 38.1527 48.6988 37.5013 49.2046C36.6304 49.8809 35.8076 50.5198 34.9046 50.7297C34.0485 50.9287 33.0552 50.7244 32.0036 50.5081C31.1783 50.3384 30.325 50.1628 29.4518 50.1628C28.5786 50.1628 27.7253 50.3384 26.9 50.5081C25.8486 50.7244 24.8556 50.9287 23.9993 50.7297C23.096 50.5197 22.2733 49.8809 21.4024 49.2045C20.7512 48.6988 20.0778 48.1759 19.327 47.8053C18.5587 47.4262 17.7275 47.2084 16.9237 46.9976C15.8741 46.7225 14.8829 46.4625 14.1788 45.8875C13.4698 45.3085 13.0017 44.3754 12.5064 43.3877C12.1285 42.6344 11.7378 41.8554 11.2083 41.1771C10.6827 40.5038 10.0295 39.9446 9.39786 39.4037C8.56289 38.689 7.77421 38.0137 7.3766 37.1707C6.98882 36.3485 6.96222 35.3052 6.93398 34.2007C6.9123 33.3491 6.8898 32.4683 6.69936 31.6113C6.51632 30.7875 6.16979 30.0038 5.83475 29.2461C5.38287 28.224 4.95607 27.2586 4.95607 26.298C4.95607 25.3373 5.38287 24.3718 5.83487 23.3497C6.16991 22.5918 6.51632 21.8083 6.69936 20.9845C6.88991 20.1274 6.9123 19.2469 6.93398 18.3951C6.9621 17.2907 6.98882 16.2473 7.3766 15.4251C7.77421 14.5821 8.56289 13.9069 9.39786 13.1919C10.0295 12.6512 10.6827 12.0919 11.2083 11.4187C11.7379 10.7405 12.1286 9.96141 12.5065 9.20808C13.002 8.2203 13.4699 7.28729 14.179 6.70824C14.8832 6.13314 15.8745 5.87316 16.9239 5.5982C17.7277 5.38749 18.5589 5.16946 19.3272 4.79045C20.0779 4.41996 20.7514 3.89701 21.4026 3.39119C22.2736 2.71493 23.0962 2.07595 23.9993 1.86607C24.8556 1.6671 25.8487 1.87146 26.9001 2.08769C27.7254 2.25742 28.5788 2.43301 29.4519 2.43301C30.3251 2.43301 31.1783 2.25742 32.0037 2.08769C33.0551 1.87146 34.0479 1.6671 34.9047 1.86607C35.8077 2.07607 36.6305 2.71493 37.5015 3.39131C37.6833 3.53263 37.8651 3.67358 38.0476 3.81082C38.4359 4.10329 38.9818 4.01771 39.2673 3.62084C39.5528 3.22386 39.4695 2.66531 39.0815 2.3732C38.9061 2.24136 38.7315 2.10567 38.5567 1.96987C37.5763 1.20851 36.5625 0.421257 35.2915 0.125678C34.0705 -0.158035 32.8451 0.0940341 31.6599 0.337833C30.8842 0.497489 30.1517 0.648155 29.4523 0.648155C28.7529 0.648155 28.0202 0.497489 27.2447 0.337833C26.0594 0.0940341 24.8338 -0.158155 23.613 0.125678C22.342 0.421257 21.3283 1.20839 20.3479 1.96975C19.7384 2.44308 19.1627 2.89017 18.5695 3.18299C17.9579 3.48468 17.2455 3.67155 16.4913 3.8692C15.3095 4.17904 14.0876 4.49943 13.0908 5.31353C12.0891 6.13159 11.5124 7.28142 10.9546 8.39326C10.6003 9.0996 10.2658 9.76651 9.8454 10.305C9.42903 10.8383 8.87016 11.3168 8.27859 11.8233C7.33863 12.6281 6.36667 13.4602 5.8058 14.6494C5.25502 15.8171 5.22221 17.104 5.19045 18.3485C5.17006 19.1484 5.15084 19.9041 4.99861 20.5889C4.85459 21.237 4.5588 21.906 4.24568 22.6142C3.73743 23.7638 3.21196 24.9524 3.21196 26.2978C3.21196 27.6432 3.73743 28.8317 4.24568 29.9813C4.5588 30.6896 4.85459 31.3585 4.99861 32.0066C5.15084 32.6914 5.17006 33.4471 5.19045 34.2471C5.22209 35.4915 5.25502 36.7784 5.80569 37.9461C6.02225 38.4052 6.30034 38.8107 6.61393 39.1822L0.422882 45.5145C0.0646377 45.881 -0.0779803 46.4003 0.0413173 46.9039C0.160615 47.4075 0.519914 47.8026 1.00238 47.9606L8.80582 50.5167C9.02684 50.5891 9.20098 50.7674 9.27188 50.9933L11.771 58.9748C11.9255 59.4683 12.3117 59.8357 12.804 59.9577C13.2887 60.0792 13.804 59.9358 14.1625 59.5675L21.8476 51.7071C22.3895 52.0427 22.9681 52.3197 23.6134 52.4697C23.9982 52.5592 24.3834 52.5955 24.7678 52.5955C25.6028 52.5954 26.4334 52.4246 27.2449 52.2576C28.0206 52.0979 28.7532 51.9473 29.4526 51.9473C30.1521 51.9473 30.8847 52.0979 31.6602 52.2576C32.8456 52.5014 34.0714 52.7535 35.2919 52.4697C36.2058 52.2572 36.9325 51.7644 37.6635 51.236L38.874 52.4697L45.8379 59.5675C46.1964 59.9358 46.7116 60.0792 47.1963 59.9577C47.6886 59.8356 48.0749 59.4682 48.2293 58.9748L50.7285 50.9933C50.7993 50.7674 50.9735 50.5891 51.1945 50.5167L53.915 49.6255C54.3739 49.4752 54.6268 48.9729 54.4797 48.5036C54.3327 48.0343 53.841 47.7756 53.3828 47.9259L50.6625 48.8171C49.9056 49.065 49.309 49.6751 49.0668 50.449L46.7195 57.9454L39.9966 51.0691L39.1323 50.1849C39.536 49.8831 39.9317 49.6116 40.3354 49.4124C40.947 49.1107 41.6594 48.9239 42.4138 48.7262C43.5955 48.4164 44.8174 48.096 45.8142 47.2819C46.8161 46.4637 47.3927 45.314 47.9504 44.2019C48.3046 43.4957 48.6391 42.8288 49.0595 42.2904C49.4759 41.7572 50.0347 41.2787 50.6264 40.7722C50.9585 40.4879 51.2943 40.1997 51.6148 39.8941L57.9916 46.4163L56.9776 46.7484C56.5188 46.8987 56.2659 47.401 56.4128 47.8704C56.5314 48.2492 56.8742 48.4907 57.2435 48.4907C57.3316 48.4907 58.9979 47.9604 58.9979 47.9604C59.4805 47.8025 59.8396 47.4074 59.9589 46.9039C60.0778 46.4007 59.9351 45.8813 59.577 45.5148ZM13.2802 57.9459L10.9329 50.4494C10.6904 49.6753 10.0941 49.0653 9.33739 48.8176L2.0082 46.4167L7.87019 40.4211C8.0059 40.5394 8.14219 40.6564 8.27789 40.7726C8.86957 41.2791 9.42844 41.7576 9.84481 42.2909C10.2652 42.8294 10.5997 43.4964 10.954 44.2025C11.5117 45.3144 12.0884 46.4642 13.0901 47.2824C14.0869 48.0965 15.3088 48.4169 16.4906 48.7266C17.2448 48.9244 17.9573 49.1111 18.5689 49.4129C19.1621 49.7057 19.7378 50.1528 20.3473 50.6262C20.3642 50.6392 20.3812 50.6524 20.3981 50.6655L13.2802 57.9459Z" fill="#08A045"/>
<path d="M20.728 43.3618C23.4027 44.7774 26.4188 45.5257 29.4504 45.5257C39.93 45.5257 48.4557 36.8055 48.4557 26.0871C48.4557 15.3686 39.93 6.64844 29.4504 6.64844C18.971 6.64844 10.4453 15.3686 10.4453 26.0871C10.4453 31.8582 12.9295 37.2942 17.261 41.0015C17.6304 41.3177 18.1807 41.2678 18.4899 40.8898C18.7992 40.5119 18.7502 39.949 18.3807 39.6328C14.4466 36.2655 12.1901 31.3283 12.1901 26.0871C12.1901 16.3527 19.9331 8.43294 29.4504 8.43294C38.9679 8.43294 46.7108 16.3526 46.7108 26.0871C46.7108 35.8217 38.9679 43.7412 29.4504 43.7412C26.6572 43.7412 23.9924 43.0803 21.5298 41.777C21.1019 41.5506 20.5755 41.7219 20.354 42.1594C20.1327 42.597 20.3 43.1354 20.728 43.3618Z" fill="#08A045"/>
<path d="M34.6635 36.656H22.1417C21.2749 36.656 20.5723 35.9373 20.5723 35.0507V27.8566C20.5723 26.97 21.2749 26.2513 22.1417 26.2513H23.7962C23.8964 25.9273 24.0241 25.6122 24.1775 25.3117C24.5044 24.6708 26.212 21.3531 26.7262 20.3309C26.7485 20.2863 26.7759 20.1559 26.7662 20.0058C26.7006 18.9878 26.5981 17.9687 26.5066 17.1059C26.4721 16.7812 26.4918 15.9901 27.4146 15.6549C29.0521 15.0604 30.6547 15.6627 31.5969 17.2258C32.4403 18.6246 32.4274 20.1601 32.3219 21.3416C32.2866 21.7375 32.2374 22.1345 32.1858 22.5245L36.6133 22.532C37.8649 22.5714 38.9975 23.4416 39.341 24.6733C39.4101 24.921 39.4476 25.1777 39.4476 25.4373C39.4476 25.9636 39.3073 26.4755 39.0496 26.9202C39.3745 27.3849 39.5566 27.9478 39.5566 28.531C39.5566 29.3086 39.2433 30.031 38.7073 30.5453C38.7598 30.7621 38.7868 30.9856 38.7868 31.2108C38.7868 32.2366 38.2374 33.1494 37.4012 33.6269C37.4163 33.789 37.4177 33.9529 37.4047 34.1162C37.2918 35.5405 36.0878 36.656 34.6635 36.656ZM22.4893 34.6952H34.6635C35.0964 34.6952 35.461 34.3712 35.4939 33.9579C35.505 33.8183 35.4828 33.6844 35.4281 33.5601C35.2891 33.2443 35.2995 32.8881 35.4562 32.5825C35.6129 32.2771 35.8931 32.066 36.2254 32.0033C36.599 31.9332 36.8697 31.5999 36.8697 31.2108C36.8697 31.0664 36.8338 30.9303 36.763 30.8063C36.612 30.5421 36.574 30.2225 36.6579 29.9293C36.742 29.6359 36.9429 29.388 37.2093 29.2491C37.4745 29.1104 37.6395 28.8353 37.6395 28.531C37.6395 28.2694 37.52 28.0311 37.3118 27.8771C37.0424 27.6775 36.8781 27.3693 36.861 27.0309C36.8436 26.693 36.9753 26.3695 37.2218 26.1432C37.421 25.9606 37.5306 25.71 37.5306 25.4373C37.5306 24.9224 37.1364 24.5066 36.6333 24.4909L36.6007 24.4899L31.4356 24.4845C31.0712 24.4843 30.7246 24.323 30.4847 24.0418C30.2447 23.7605 30.1353 23.3867 30.1845 23.0168C30.1845 23.0168 30.3697 21.6469 30.4129 21.1633C30.5325 19.8232 30.4027 18.9806 29.9652 18.2548C29.5755 17.6083 29.0724 17.3224 28.4654 17.4003C28.5439 18.1645 28.6239 19.0174 28.6793 19.8767C28.6975 20.1605 28.6896 20.7133 28.4311 21.2277C27.9127 22.2581 26.203 25.5797 25.8771 26.2187C25.7427 26.4821 25.6379 26.7623 25.5657 27.0519C25.3953 27.7349 24.793 28.2119 24.1008 28.2119H22.4893V34.6952ZM38.0826 30.9949C38.082 30.9951 38.0814 30.9954 38.0809 30.9957C38.0815 30.9954 38.082 30.9951 38.0826 30.9949Z" fill="#08A045"/>
</svg>
