<svg width="60" height="60" viewBox="0 0 60 60" fill="none" xmlns="http://www.w3.org/2000/svg">
<rect width="60" height="60" fill="white"/>
<path d="M10.5907 20.4334L4.53242 27.1709C3.69664 28.1003 3.23633 29.2912 3.23633 30.5237V47.91H23.765V19.0703H13.6827C12.497 19.0703 11.3694 19.5674 10.5907 20.4334Z" fill="#F9F9F9"/>
<path d="M3.23633 39.2539H23.765V47.9092H3.23633V39.2539Z" fill="#F9F9F9"/>
<path d="M56.9097 47.9116H22.9434V14.3665C22.9434 13.4263 23.7304 12.6641 24.7012 12.6641H55.1518C56.1225 12.6641 56.9096 13.4263 56.9096 14.3665V47.9116H56.9097Z" fill="#F9F9F9"/>
<path d="M55.1525 12.6641H51.4745V36.9872C51.4745 38.2405 50.4256 39.2563 49.1316 39.2563H22.9434V47.9116H56.9096V14.3659C56.9097 13.4259 56.1229 12.6641 55.1525 12.6641Z" fill="#F9F9F9"/>
<path d="M57.9502 44.5199H52.7128C52.513 44.5199 52.3187 44.4508 52.1704 44.3211C50.2777 42.6654 47.7708 41.6562 45.0195 41.6562C42.2681 41.6562 39.7613 42.6656 37.8686 44.3211C37.7203 44.4508 37.5259 44.5199 37.3261 44.5199H21.879C21.6792 44.5199 21.4849 44.4508 21.3366 44.3211C19.4439 42.6654 16.937 41.6562 14.1857 41.6562C11.4343 41.6562 8.92746 42.6656 7.03477 44.3211C6.88652 44.4508 6.69211 44.5199 6.4923 44.5199H2.05031C1.40332 44.5199 0.878906 45.0278 0.878906 45.6544V50.8601C0.878906 51.4867 1.40344 51.9946 2.05031 51.9946H57.9503C58.5973 51.9946 59.1217 51.4866 59.1217 50.8601V45.6544C59.1217 45.0278 58.5972 44.5199 57.9502 44.5199Z" fill="#6EC045"/>
<path d="M57.9503 44.5195H55.8768V47.717C55.8768 48.3436 55.3523 48.8515 54.7054 48.8515H0.878906V50.8597C0.878906 51.4863 1.40344 51.9941 2.05031 51.9941H57.9503C58.5973 51.9941 59.1217 51.4861 59.1217 50.8597V45.654C59.1218 45.0274 58.5973 44.5195 57.9503 44.5195Z" fill="#08A045"/>
<path d="M14.1845 58.6946C18.0057 58.6946 21.1034 55.6945 21.1034 51.9938C21.1034 48.293 18.0057 45.293 14.1845 45.293C10.3633 45.293 7.26562 48.293 7.26562 51.9938C7.26562 55.6945 10.3633 58.6946 14.1845 58.6946Z" fill="#F9F9F9"/>
<path d="M17.9295 46.3594C18.6252 47.4044 19.0304 48.648 19.0304 49.9838C19.0304 53.6845 15.9328 56.6846 12.1115 56.6846C10.7322 56.6846 9.44832 56.2922 8.36914 55.6185C9.60055 57.4687 11.7453 58.6948 14.1871 58.6948C18.0083 58.6948 21.106 55.6947 21.106 51.994C21.106 49.6291 19.8399 47.552 17.9295 46.3594Z" fill="#F9F9F9"/>
<path d="M14.1859 54.3878C15.5506 54.3878 16.6569 53.3164 16.6569 51.9947C16.6569 50.673 15.5506 49.6016 14.1859 49.6016C12.8212 49.6016 11.7148 50.673 11.7148 51.9947C11.7148 53.3164 12.8212 54.3878 14.1859 54.3878Z" fill="#F9F9F9"/>
<path d="M14.7696 49.6719C14.8151 49.8535 14.8418 50.0421 14.8418 50.2372C14.8418 51.5589 13.7355 52.6303 12.3708 52.6303C12.1694 52.6303 11.9746 52.6045 11.7871 52.5603C12.0498 53.6086 13.0226 54.3881 14.1859 54.3881C15.5507 54.3881 16.657 53.3167 16.657 51.995C16.6568 50.8686 15.8521 49.9263 14.7696 49.6719Z" fill="#F9F9F9"/>
<path d="M45.0204 58.6946C48.8416 58.6946 51.9393 55.6945 51.9393 51.9938C51.9393 48.293 48.8416 45.293 45.0204 45.293C41.1992 45.293 38.1016 48.293 38.1016 51.9938C38.1016 55.6945 41.1992 58.6946 45.0204 58.6946Z" fill="#F9F9F9"/>
<path d="M48.7635 46.3594C49.4591 47.4044 49.8644 48.648 49.8644 49.9838C49.8644 53.6845 46.7668 56.6846 42.9455 56.6846C41.5662 56.6846 40.2823 56.2922 39.2031 55.6185C40.4345 57.4687 42.5793 58.6948 45.0211 58.6948C48.8423 58.6948 51.94 55.6947 51.94 51.994C51.94 49.6291 50.6739 47.552 48.7635 46.3594Z" fill="#F9F9F9"/>
<path d="M45.0198 54.3878C46.3845 54.3878 47.4909 53.3164 47.4909 51.9947C47.4909 50.673 46.3845 49.6016 45.0198 49.6016C43.6551 49.6016 42.5488 50.673 42.5488 51.9947C42.5488 53.3164 43.6551 54.3878 45.0198 54.3878Z" fill="#F9F9F9"/>
<path d="M45.6036 49.6719C45.6491 49.8535 45.6758 50.0421 45.6758 50.2372C45.6758 51.5589 44.5694 52.6303 43.2048 52.6303C43.0034 52.6303 42.8086 52.6045 42.6211 52.5603C42.8838 53.6086 43.8566 54.3881 45.0199 54.3881C46.3847 54.3881 47.4909 53.3167 47.4909 51.995C47.4909 50.8686 46.6861 49.9263 45.6036 49.6719Z" fill="#F9F9F9"/>
<path d="M13.6827 19.0703C12.497 19.0703 11.3694 19.5674 10.5907 20.4334L4.53242 27.1709C3.69664 28.1003 3.23633 29.2912 3.23633 30.5237V32.9195H17.752C18.0754 32.9195 18.3377 32.6655 18.3377 32.3522V19.0703H13.6827Z" fill="#F9F9F9"/>
<path d="M15.4831 19.0703V29.5877C15.4831 29.901 15.2209 30.155 14.8974 30.155H3.25133C3.24219 30.2774 3.23633 30.4002 3.23633 30.5237V32.9195H17.752C18.0754 32.9195 18.3377 32.6655 18.3377 32.3522V19.0703H15.4831Z" fill="#F9F9F9"/>
<path d="M3.23633 40.1278H7.03555C7.98559 40.1278 8.75563 39.3819 8.75563 38.4619V38.1073C8.75563 37.1872 7.98547 36.4414 7.03555 36.4414H3.23633V40.1278Z" fill="#6EC045"/>
<path d="M7.74617 36.5898V36.618C7.74617 37.5377 6.97637 38.2833 6.02668 38.2833H3.23633V40.1266H7.03625C7.98594 40.1266 8.75574 39.381 8.75574 38.4613V38.1053C8.75574 37.4311 8.34113 36.8518 7.74617 36.5898Z" fill="#08A045"/>
<path d="M55 14.9058C55 22.0849 43.592 35.4068 40.6735 38.6975C40.3158 39.1008 39.6842 39.1008 39.3265 38.6975C36.4078 35.4068 25 22.0849 25 14.9058C25 6.67347 31.7158 0 40 0C48.2842 0 55 6.67347 55 14.9058Z" fill="#6EC045"/>
<path d="M45.1278 2C47.7915 4.56724 49.4749 8.34472 49.4749 12.5568C49.4749 18.8211 40.1611 31.4525 37 35.5C38.1735 37.0994 39.9127 37.7639 40.5 38.5C40.8022 38.8789 41.5911 38.0947 41.8934 37.7158C44.3598 34.6241 54 22.1077 54 15.3627C54 9.09237 50.27 3.78492 45.1278 2Z" fill="#08A045"/>
<path d="M40.3113 19.3663C43.3105 19.3663 45.7418 17.0116 45.7418 14.107C45.7418 11.2023 43.3105 8.84766 40.3113 8.84766C37.3122 8.84766 34.8809 11.2023 34.8809 14.107C34.8809 17.0116 37.3122 19.3663 40.3113 19.3663Z" fill="#F9F9F9"/>
<path d="M57.9499 43.6699H57.7888V14.3666C57.7888 12.9591 56.6064 11.8139 55.153 11.8139L52.9403 7.29826C50.5581 3.23426 45.1605 0 40 0C32.8282 0 28.7227 4.23415 26.3404 8.29815L24.7013 11.8139C23.2479 11.8139 22.0655 12.9591 22.0655 14.3666V18.2218H13.6816C12.2415 18.2218 10.873 18.825 9.92707 19.877L3.86883 26.6145C2.89371 27.699 2.35676 29.0882 2.35676 30.526V43.6699H2.05008C0.919688 43.6699 0 44.5606 0 45.6554V50.861C0 51.9558 0.919688 52.8465 2.05008 52.8465H6.43898C6.87703 56.6112 10.1831 59.5473 14.1855 59.5473C18.188 59.5473 21.4941 56.6112 21.9321 52.8465H37.2728C37.7108 56.6112 41.0169 59.5473 45.0193 59.5473C46.3755 59.5473 47.7115 59.2048 48.8827 58.5565C49.3039 58.3234 49.4504 57.8036 49.2096 57.3956C48.9689 56.9875 48.4322 56.8456 48.0109 57.0789C47.1046 57.5803 46.0703 57.8455 45.0192 57.8455C41.6886 57.8455 38.9789 55.2213 38.9789 51.9955C38.9789 48.7698 41.6885 46.1456 45.0192 46.1456C48.3499 46.1456 51.0595 48.7698 51.0595 51.9955C51.0595 52.8223 50.8853 53.6211 50.5417 54.3697C50.3445 54.7991 50.544 55.302 50.9873 55.493C51.4308 55.6839 51.95 55.4906 52.1471 55.0612C52.4721 54.3535 52.6786 53.6113 52.7668 52.8465H57.9499C59.0803 52.8465 60 51.9558 60 50.861V45.6554C60 44.5606 59.0803 43.6699 57.9499 43.6699ZM23.8227 14.3666C23.8227 13.8974 24.5155 13.5 25 13.5L25.5 10C24.8828 11.5183 25 13.8611 25 15.5C25 17.5634 27.1117 23.2329 29.1422 26.6023C29.3869 27.0084 29.9249 27.145 30.3438 26.9083C30.763 26.6714 30.9043 26.1504 30.6598 25.7445C28.7882 22.6389 26.7135 17.2575 26.7572 15.5C26.9613 7.29826 33.3324 1.70185 40 1.70185C46.6676 1.70185 53.5 8.54263 53.5 15C53.5 19.4898 45.7921 31.3642 39.9314 37.8182C38.6521 36.4082 35.5638 32.9062 32.8282 29.0399C32.5541 28.6522 32.0072 28.5535 31.6069 28.819C31.2066 29.0845 31.1045 29.6142 31.3787 30.0018C34.2252 34.025 37.4398 37.6542 38.6897 39.0278C39.004 39.373 39.4564 39.571 39.9313 39.571C40.4061 39.571 40.8586 39.3729 41.1729 39.0278C44.1305 35.7778 55.2571 21.2716 55.2571 15C55.2571 13.2719 54.398 10.5183 53.7806 9L55.153 13.5156C55.6375 13.5156 56.0316 13.8973 56.0316 14.3665V43.6699H52.7353C50.6123 41.823 47.8732 40.8062 45.0192 40.8062C42.1652 40.8062 39.4261 41.8231 37.3031 43.6699H23.8227V14.3666ZM5.1941 27.732L11.2523 20.9946C11.8644 20.3139 12.7499 19.9235 13.6818 19.9235H17.4582V32.0709H4.11387V30.526C4.11387 29.499 4.49754 28.5066 5.1941 27.732ZM4.11387 37.2927H7.03512C7.49883 37.2927 7.87605 37.658 7.87605 38.1071V38.463C7.87605 38.9121 7.49871 39.2775 7.03512 39.2775H4.11387V37.2927ZM4.11387 40.9792H7.03512C8.46773 40.9792 9.63328 39.8504 9.63328 38.463V38.1071C9.63328 36.7196 8.46773 35.5909 7.03512 35.5909H4.11387V33.7728H17.751C18.5584 33.7728 19.2152 33.1366 19.2152 32.3547V19.9236H22.0654V43.67H21.9014C19.7784 41.8231 17.0393 40.8064 14.1853 40.8064C11.3313 40.8064 8.59219 41.8233 6.46922 43.67H4.11375L4.11387 40.9792ZM58.2428 50.8609C58.2428 51.0173 58.1114 51.1445 57.9499 51.1445H52.7659C52.3279 47.3798 49.0218 44.4437 45.0193 44.4437C41.0169 44.4437 37.7108 47.3798 37.2728 51.1445H21.9321C21.4941 47.3798 18.188 44.4437 14.1855 44.4437C13.1646 44.4437 12.1716 44.6322 11.2337 45.0038C10.7846 45.1818 10.5696 45.6787 10.7534 46.1137C10.9371 46.5486 11.4499 46.7571 11.8993 46.5789C12.6248 46.2913 13.3941 46.1456 14.1855 46.1456C17.5161 46.1456 20.2259 48.7698 20.2259 51.9955C20.2259 55.2213 17.5163 57.8455 14.1855 57.8455C10.8548 57.8455 8.14523 55.2213 8.14523 51.9955C8.14523 50.909 8.45473 49.8489 9.0402 48.9297C9.29484 48.5296 9.16664 48.0055 8.75367 47.7588C8.3407 47.512 7.7993 47.6362 7.54453 48.0363C6.94207 48.9824 6.5666 50.0435 6.43828 51.1447H2.05008C1.88859 51.1447 1.75723 51.0174 1.75723 50.861V45.6554C1.75723 45.499 1.88859 45.3718 2.05008 45.3718H6.4923C6.91336 45.3718 7.3152 45.2232 7.62363 44.9535C9.42645 43.3765 11.7568 42.5081 14.1855 42.5081C16.6143 42.5081 18.9446 43.3765 20.7475 44.9535C21.0559 45.2233 21.4576 45.3718 21.8788 45.3718H37.3262C37.7473 45.3718 38.1491 45.2232 38.4575 44.9535C40.2603 43.3765 42.5907 42.5081 45.0195 42.5081C47.4482 42.5081 49.7786 43.3765 51.5814 44.9535C51.8898 45.2233 52.2915 45.3718 52.7127 45.3718H57.9502C58.1116 45.3718 58.243 45.499 58.243 45.6554L58.2428 50.8609Z" fill="#08A045"/>
<path d="M14.1816 55.238C16.0286 55.238 17.5312 53.7828 17.5312 51.994C17.5312 50.2052 16.0286 48.75 14.1816 48.75C12.3346 48.75 10.832 50.2052 10.832 51.994C10.832 53.7828 12.3347 55.238 14.1816 55.238ZM14.1816 50.4517C15.0597 50.4517 15.7741 51.1436 15.7741 51.994C15.7741 52.8444 15.0598 53.5363 14.1816 53.5363C13.3035 53.5363 12.5891 52.8444 12.5891 51.994C12.5891 51.1436 13.3035 50.4517 14.1816 50.4517Z" fill="#08A045"/>
<path d="M41.6699 51.994C41.6699 53.7828 43.1725 55.238 45.0195 55.238C46.8665 55.238 48.3691 53.7828 48.3691 51.994C48.3691 50.2052 46.8665 48.75 45.0195 48.75C43.1725 48.75 41.6699 50.2052 41.6699 51.994ZM46.612 51.994C46.612 52.8444 45.8977 53.5363 45.0195 53.5363C44.1413 53.5363 43.427 52.8444 43.427 51.994C43.427 51.1436 44.1413 50.4517 45.0195 50.4517C45.8977 50.4517 46.612 51.1436 46.612 51.994Z" fill="#08A045"/>
<path d="M12.486 37.3658H14.7593C15.2446 37.3658 15.6379 36.9848 15.6379 36.5149C15.6379 36.0451 15.2446 35.6641 14.7593 35.6641H12.486C12.0007 35.6641 11.6074 36.0451 11.6074 36.5149C11.6074 36.9848 12.0007 37.3658 12.486 37.3658Z" fill="#08A045"/>
<path d="M40.3091 20.2205C43.788 20.2205 46.6183 17.4795 46.6183 14.1102C46.6183 10.741 43.7881 8 40.3091 8C36.8302 8 34 10.741 34 14.1102C34.0001 17.4795 36.8303 20.2205 40.3091 20.2205ZM40.3091 9.70173C42.8191 9.70173 44.8611 11.6794 44.8611 14.1102C44.8611 16.541 42.8191 18.5186 40.3091 18.5186C37.7992 18.5186 35.7572 16.541 35.7572 14.1102C35.7572 11.6794 37.7992 9.70173 40.3091 9.70173Z" fill="#08A045"/>
</svg>
