<svg width="60" height="60" viewBox="0 0 60 60" fill="none" xmlns="http://www.w3.org/2000/svg">
<mask id="mask0_2168_170" style="mask-type:alpha" maskUnits="userSpaceOnUse" x="0" y="0" width="60" height="60">
<rect width="60" height="60" fill="#C4C4C4"/>
</mask>
<g mask="url(#mask0_2168_170)">
<path d="M55 24H57.5V25C50.5 33 67 51 45.5 50L44 48L47 40L53 24H55Z" fill="#6EC045"/>
<path d="M18.5 5.49609L12 0.996094C7.5 8.5 15 11.9961 6 26.4961L8.5 23.4961L16.5 11.9961L18.998 6.99609L18.5 5.49609Z" fill="#6EC045"/>
<path d="M22.0324 43.8556C21.6214 42.9159 20.8525 42.2862 19.9614 42.0437C20.2564 41.1424 20.2219 40.1966 19.8601 39.3691C19.4851 38.5116 18.8048 37.8842 17.9441 37.6017C17.7309 37.5318 17.5129 37.4854 17.2928 37.4617C17.4488 36.7157 17.3907 35.9291 17.0781 35.2141C16.5631 34.0364 15.4857 33.3465 14.3106 33.2946C14.4362 32.5706 14.3553 31.8397 14.0684 31.1833C13.6935 30.3259 13.0127 29.6984 12.1524 29.416C11.4546 29.1871 10.7062 29.2076 9.99905 29.4677L6.94356 27.6387L17.5911 11.3486L20.944 13.363C20.9631 13.3744 20.9824 13.385 21.0019 13.3949C21.3252 13.5578 21.7234 13.5107 22.0325 13.2679L24.7419 11.1402C25.428 10.6017 26.3554 10.6196 26.947 11.1828L28.5903 12.7461C28.981 13.1175 29.6076 13.0627 29.9895 12.6226C30.3712 12.1825 30.3638 11.5241 29.9728 11.1522L28.3299 9.58916C27.0708 8.39055 25.0966 8.35199 23.6359 9.49825L21.4666 11.2019L18.7528 9.57157L19.1186 9.01189C20.2879 7.22311 19.924 4.86704 18.3076 3.75962L13.0001 0.411303C12.5564 0.107843 11.9388 0.259372 11.6186 0.749205C11.2984 1.23916 11.3977 1.88229 11.8404 2.18554L17.1476 5.53435C17.5024 5.77733 17.736 6.1587 17.8054 6.60813C17.8747 7.05756 17.7717 7.52135 17.515 7.91391L4.9576 27.126C4.42796 27.9363 3.40137 28.1869 2.66882 27.6859L1.68648 26.9206C1.2429 26.6175 0.625213 26.7686 0.304977 27.2585C-0.0152593 27.7485 0.0841106 28.3916 0.526745 28.6948L1.50909 29.4601C1.63102 29.5436 1.75667 29.6177 1.88526 29.6825C3.05564 30.2723 4.46991 30.0934 5.56325 29.2851L7.8491 30.6534C7.26287 31.1108 6.81163 31.7357 6.55352 32.4623C6.22327 33.3924 6.24777 34.377 6.62272 35.2343C6.93185 35.9413 7.44863 36.4918 8.10302 36.8216C8.24224 36.8918 8.38767 36.9519 8.53868 37.0016C8.5484 37.0047 8.55813 37.0073 8.56779 37.0102C8.56398 37.0207 8.55977 37.0307 8.55596 37.0412C8.22571 37.9713 8.25023 38.9559 8.62517 39.8131C8.9426 40.5387 9.47328 41.0795 10.1091 41.3999C10.2581 41.475 10.4135 41.5367 10.5727 41.5871C10.2441 42.4875 10.2358 43.496 10.6277 44.392C10.9451 45.1178 11.4758 45.6584 12.1116 45.9788C12.2602 46.0537 12.4151 46.1153 12.5737 46.1656C12.5697 46.1767 12.565 46.1877 12.561 46.1988C12.2308 47.1289 12.2553 48.1135 12.6304 48.9708C12.9396 49.6777 13.4563 50.2284 14.1105 50.5581C14.2499 50.6283 14.3953 50.6885 14.5462 50.7381C15.4068 51.0203 16.3445 50.9235 17.1865 50.4653L20.2834 48.7804C22.0218 47.8348 22.8064 45.6254 22.0324 43.8556ZM9.24783 35.0049C8.8809 34.8846 8.59052 34.6167 8.43062 34.2509C8.27066 33.8853 8.26027 33.4652 8.40111 33.0685C8.54201 32.6716 8.81745 32.3456 9.17677 32.15L10.3172 31.5295C10.6764 31.3341 11.0764 31.2928 11.4435 31.4131C11.8105 31.5339 12.1008 31.8013 12.2608 32.1671C12.4208 32.5328 12.4312 32.9528 12.2903 33.3496C12.1495 33.7463 11.8741 34.0723 11.5149 34.2679L10.3743 34.8884C10.015 35.0838 9.61499 35.1252 9.24783 35.0049ZM10.4331 38.8298C10.2731 38.4641 10.2627 38.0441 10.4035 37.6473C10.5444 37.2505 10.8199 36.9244 11.1792 36.7289L12.3196 36.1085L13.3269 35.5603C13.7645 35.3223 14.2472 35.3243 14.6375 35.521C14.9087 35.6576 15.135 35.8883 15.2704 36.1979C15.6006 36.9528 15.266 37.8953 14.5244 38.2988L12.3767 39.4674C11.6351 39.8708 10.7632 39.5848 10.4331 38.8298ZM12.4356 43.4087C12.2757 43.043 12.2653 42.623 12.4062 42.2261C12.5469 41.8295 12.8223 41.5034 13.1812 41.308L15.3294 40.1391L16.1087 39.715C16.4679 39.5196 16.868 39.4783 17.2351 39.5987C17.6023 39.7194 17.8924 39.9869 18.0524 40.3527C18.3825 41.1073 18.0481 42.0493 17.3072 42.4531L14.3794 44.046C13.6378 44.4492 12.7659 44.1637 12.4356 43.4087ZM19.4786 46.9401L16.3817 48.625C16.0226 48.8205 15.6225 48.8617 15.2555 48.7414C14.8881 48.6208 14.5981 48.3532 14.4381 47.9875C14.2781 47.6219 14.2677 47.2019 14.4086 46.8051C14.5495 46.4082 14.8249 46.0822 15.1842 45.8867L18.1114 44.2941L18.1129 44.2933L18.2812 44.2018C18.6403 44.0063 19.0404 43.9651 19.4076 44.0855C19.7746 44.2063 20.0649 44.4736 20.2249 44.8395C20.5548 45.594 20.2201 46.5367 19.4786 46.9401Z" fill="#08A045"/>
<path d="M53.6211 53.1177C53.8243 52.5689 53.5782 51.9824 53.0708 51.8062L45.9413 49.3403C45.1014 49.0496 44.6935 48.0753 45.0298 47.1675L45.2677 46.5252L45.3228 46.3764L53.0019 25.6446C53.1647 25.2048 53.4761 24.8461 53.8787 24.6344C54.2812 24.4228 54.7267 24.3836 55.1331 24.5243L56.9951 25.0803C57.5023 25.2558 58.0782 24.953 58.2816 24.4041C58.4848 23.8553 58.2387 23.2688 57.7313 23.0926L55.8693 22.5366C54.1268 21.934 52.1559 22.8808 51.3108 24.6643L49.5129 24.0425L45.9162 18.2062C45.4072 17.3793 44.6687 16.7622 43.7808 16.4212L43.7752 16.4193L42.1259 15.7871C41.625 15.595 41.0419 15.8799 40.8233 16.4234C40.6048 16.9666 40.8332 17.5617 41.3345 17.7547L42.9884 18.3886C43.5059 18.587 43.9365 18.9469 44.2336 19.4291L47.9626 25.4801C48.0703 25.6874 48.248 25.847 48.4703 25.924L50.5585 26.6464L45.5715 40.1107L43.8468 44.767L40.7263 43.1978C40.5183 43.0932 40.2761 43.074 40.0443 43.1433L39.6994 43.2271L35.5883 31.8997C37.6614 32.239 40.0532 31.7378 42.7277 30.3996C43.2343 30.1461 43.4793 29.5211 43.2748 29.0035C43.0702 28.4861 42.4936 28.272 41.9869 28.5256C38.9975 30.0214 36.502 30.3092 34.5695 29.3806C31.7519 28.0325 30.9773 24.4711 30.9704 24.438C30.9086 24.1366 30.7189 23.8914 30.455 23.7671C30.1905 23.6439 29.8788 23.6573 29.6063 23.8031L25.6089 25.9429C23.5028 27.0704 21.0857 26.668 19.5945 24.9407L19.3977 24.7128C19.2249 24.5126 19.23 24.2812 19.2485 24.1611C19.267 24.041 19.332 23.8154 19.5604 23.6538L31.3989 15.2801C32.1646 14.7385 33.1106 14.6025 33.9292 14.9163L37.7096 16.3653C38.2105 16.5572 38.7936 16.2723 39.0121 15.729C39.2305 15.1857 39.0016 14.5898 38.501 14.3977L34.7206 12.9487C33.3163 12.4104 31.6937 12.6438 30.3801 13.5728L18.5416 21.9465C17.8751 22.418 17.4208 23.1567 17.2954 23.9733C17.17 24.7899 17.3874 25.5932 17.8917 26.1772L18.0884 26.4051C18.6688 27.0773 19.3504 27.6041 20.0956 27.9796C21.9966 28.9375 24.3099 28.9097 26.4011 27.7903L29.3834 26.1938C29.872 27.54 30.9534 29.7141 33.0892 30.9906L39.0301 47.3595C39.137 47.6538 39.1255 47.9826 38.9978 48.2855C38.8701 48.5884 38.6415 48.8292 38.3544 48.9633L37.6315 49.3004C36.7239 49.7229 35.7107 49.3101 35.3731 48.3805C35.3542 48.3285 35.3306 48.2802 35.3047 48.2342L33.7631 43.9836C33.5731 43.4594 33.0035 43.2278 32.4911 43.4666C31.9788 43.7055 31.7178 44.3243 31.908 44.8487L33.1608 48.3029L31.3753 49.1361C30.8268 49.3919 30.2153 49.3525 29.74 49.0311C29.4555 48.8386 29.24 48.5575 29.117 48.218C29.1148 48.212 29.112 48.2064 29.1097 48.2006L27.6773 44.2512C27.487 43.7269 26.9177 43.4954 26.4053 43.7342C25.893 43.9731 25.632 44.5919 25.8221 45.1163L26.9168 48.1344L25.1202 48.9736C24.5716 49.2295 23.9589 49.1895 23.4835 48.8679C23.039 48.5669 22.4209 48.7222 22.1032 49.2137C21.7854 49.7054 21.888 50.3476 22.3326 50.6482C22.4527 50.7293 22.5765 50.802 22.7041 50.8663C23.6503 51.3432 24.7819 51.3515 25.8097 50.8724L27.7304 49.9753C27.9662 50.3033 28.2552 50.5857 28.5889 50.8114C29.6002 51.4954 30.8989 51.5787 32.0644 51.0351L33.9877 50.1375C34.9458 51.4642 36.7108 51.9489 38.3199 51.1997L39.0437 50.8621C39.8266 50.4966 40.4493 49.8409 40.7971 49.016C41.1449 48.1909 41.1761 47.2951 40.8851 46.4942L40.5117 45.4655L43.1126 46.7733C42.5715 48.554 43.2945 50.398 44.8023 51.1579C44.9308 51.2227 45.0653 51.2797 45.2049 51.328L52.3345 53.794C52.8417 53.9693 53.4177 53.6667 53.6211 53.1177Z" fill="#08A045"/>
<path d="M51.8336 43.6459C50.2636 42.8547 48.358 43.4578 47.5856 44.9904C46.8132 46.523 47.462 48.4137 49.032 49.2049C50.6019 49.9961 52.5075 49.3928 53.2799 47.8602C54.0523 46.3276 53.4035 44.4371 51.8336 43.6459ZM49.9871 47.3096C49.4877 47.0579 49.2812 46.4564 49.527 45.9688C49.7727 45.4812 50.379 45.2894 50.8784 45.5411C51.3779 45.7928 51.5843 46.3942 51.3385 46.8818C51.0928 47.3694 50.4866 47.5614 49.9871 47.3096Z" fill="#08A045"/>
<path d="M6.37075 20.1147C7.08128 18.7049 6.5192 16.9833 5.11775 16.277C3.71629 15.5707 1.99814 16.1431 1.2876 17.5529C0.577063 18.9628 1.13908 20.6845 2.54054 21.3908C3.942 22.0971 5.66021 21.5246 6.37075 20.1147ZM3.02065 18.4264C3.2467 17.9778 3.79324 17.7957 4.23909 18.0205C4.68495 18.2452 4.86374 18.7928 4.6377 19.2413C4.41165 19.6898 3.86505 19.872 3.41919 19.6473C2.97334 19.4226 2.7946 18.8749 3.02065 18.4264Z" fill="#08A045"/>
</g>
</svg>
