<svg width="208" height="78" viewBox="0 0 208 78" fill="none" xmlns="http://www.w3.org/2000/svg">
<path d="M13.2294 34.4982C21.1875 34.4982 26.2379 29.5891 26.2379 21.4073C26.2379 13.2255 21.1875 8.31641 13.1274 8.31641H3.17969V34.4982H13.2294ZM10.2706 28.4641V14.3505H12.7703C16.8514 14.3505 19.096 15.9357 19.096 21.4073C19.096 26.8789 16.8514 28.4641 12.9743 28.4641H10.2706Z" fill="white"/>
<path d="M47.8361 8.31641V24.4755C47.8361 26.9173 46.0888 28.6687 43.6529 28.6687C41.217 28.6687 39.4698 26.9173 39.4698 24.4755V8.31641H32.3789V25.0891C32.3789 31.0721 36.8936 34.805 43.6529 34.805C50.3612 34.805 54.927 31.0721 54.927 25.0891V8.31641H47.8361Z" fill="white"/>
<path d="M45.13 43.5018C37.1718 43.5018 32.1215 48.4109 32.1215 56.5927C32.1215 64.7745 37.1718 69.6836 45.232 69.6836L55.1797 69.6836L55.1797 43.5018L45.13 43.5018ZM48.0888 49.5359L48.0888 63.6495L45.5891 63.6495C41.508 63.6495 39.2634 62.0643 39.2634 56.5927C39.2634 51.1211 41.508 49.5359 45.3851 49.5359L48.0888 49.5359Z" fill="white"/>
<path d="M21.4593 43.5018L19.9544 48.5131L11.333 48.5131L9.82814 43.5018L2.17607 43.5018L10.7974 69.6836L20.49 69.6836L29.1113 43.5018L21.4593 43.5018ZM18.3474 53.8313L15.7457 62.4734L15.5417 62.4734L12.94 53.8313L18.3474 53.8313Z" fill="white"/>
<path d="M72.682 24.7598H74.5437L69.7053 30.1841L74.9427 35.998H72.9582L67.8435 30.3071V35.998H66.1455V24.7598H67.8435V30.2251L72.682 24.7598Z" fill="white"/>
<path d="M75.2496 24.7598H77.0704L79.5254 31.1685C80.0642 32.6313 80.3983 33.6875 80.5279 34.3369H80.6097C80.6984 33.9883 80.8825 33.3936 81.1621 32.5527C81.4485 31.7051 82.376 29.1074 83.9445 24.7598H85.7653L80.9473 37.5566C80.4699 38.8213 79.9107 39.7168 79.2697 40.2432C78.6355 40.7764 77.8546 41.043 76.9272 41.043C76.4089 41.043 75.8974 40.9849 75.3928 40.8686V39.5049C75.7679 39.5869 76.1873 39.6279 76.651 39.6279C77.8171 39.6279 78.6491 38.9717 79.1469 37.6592L79.7709 36.0596L75.2496 24.7598Z" fill="white"/>
<path d="M92.8031 36.2031C92.0734 36.2031 91.4051 36.0698 90.7981 35.8032C90.198 35.5298 89.6934 35.1128 89.2842 34.5522H89.1614C89.2433 35.2085 89.2842 35.8306 89.2842 36.4185V41.043H87.5861V24.7598H88.9671L89.2024 26.2979H89.2842C89.7206 25.6826 90.2287 25.2383 90.8084 24.9648C91.388 24.6914 92.0529 24.5547 92.8031 24.5547C94.2897 24.5547 95.4354 25.064 96.2401 26.0825C97.0516 27.1011 97.4574 28.5298 97.4574 30.3687C97.4574 32.2144 97.0448 33.6499 96.2197 34.6753C95.4013 35.6938 94.2625 36.2031 92.8031 36.2031ZM92.5576 26.0005C91.4119 26.0005 90.5833 26.3184 90.0718 26.9541C89.5604 27.5898 89.2978 28.6016 89.2842 29.9893V30.3687C89.2842 31.9478 89.5467 33.0791 90.0718 33.7627C90.597 34.4395 91.4392 34.7778 92.5985 34.7778C93.5669 34.7778 94.3238 34.3848 94.8694 33.5986C95.4218 32.8125 95.698 31.729 95.698 30.3481C95.698 28.9468 95.4218 27.8735 94.8694 27.1284C94.3238 26.3765 93.5532 26.0005 92.5576 26.0005Z" fill="white"/>
<path d="M102.03 24.7598V31.8862L101.958 33.7524L101.928 34.3369L107.994 24.7598H110.111V35.998H108.526V29.1279L108.556 27.7744L108.607 26.4414L102.552 35.998H100.434V24.7598H102.03Z" fill="white"/>
<path d="M121.271 26.2158H117.63V35.998H115.932V26.2158H112.331V24.7598H121.271V26.2158Z" fill="white"/>
<path d="M128.227 36.2031C126.57 36.2031 125.261 35.6973 124.299 34.6855C123.344 33.6738 122.867 32.269 122.867 30.4712C122.867 28.6597 123.31 27.2207 124.197 26.1543C125.09 25.0879 126.287 24.5547 127.787 24.5547C129.192 24.5547 130.304 25.0195 131.122 25.9492C131.94 26.8721 132.35 28.0923 132.35 29.6099V30.6865H124.626C124.661 32.0059 124.991 33.0073 125.619 33.6909C126.253 34.3745 127.143 34.7163 128.289 34.7163C129.496 34.7163 130.689 34.4634 131.869 33.9575V35.4751C131.269 35.7349 130.699 35.9194 130.161 36.0288C129.629 36.145 128.984 36.2031 128.227 36.2031ZM127.767 25.98C126.867 25.98 126.147 26.2739 125.608 26.8618C125.077 27.4497 124.763 28.2632 124.667 29.3022H130.529C130.529 28.229 130.29 27.4087 129.813 26.8413C129.335 26.2671 128.653 25.98 127.767 25.98Z" fill="white"/>
<path d="M143.612 35.998H141.894V26.2158H138.528C138.344 28.6494 138.088 30.5806 137.761 32.0093C137.434 33.438 137.007 34.4839 136.482 35.147C135.964 35.8101 135.302 36.1416 134.498 36.1416C134.13 36.1416 133.836 36.1006 133.618 36.0186V34.7573C133.768 34.7983 133.939 34.8188 134.13 34.8188C134.914 34.8188 135.538 33.9883 136.001 32.3271C136.465 30.666 136.816 28.1436 137.055 24.7598H143.612V35.998Z" fill="white"/>
<path d="M148.921 29.4048H152.379C155.243 29.4048 156.675 30.4609 156.675 32.5732C156.675 33.6807 156.3 34.5283 155.55 35.1162C154.806 35.7041 153.715 35.998 152.276 35.998H147.223V24.7598H148.921V29.4048ZM148.921 30.8711V34.5728H152.194C153.095 34.5728 153.783 34.4155 154.261 34.1011C154.738 33.7866 154.977 33.3115 154.977 32.6758C154.977 32.0537 154.755 31.5991 154.312 31.312C153.876 31.0181 153.153 30.8711 152.143 30.8711H148.921Z" fill="white"/>
<path d="M161.319 24.7598V29.4663H167.6V24.7598H169.298V35.998H167.6V30.9326H161.319V35.998H159.621V24.7598H161.319Z" fill="white"/>
<path d="M174.597 29.4048H177.655C179.081 29.4048 180.134 29.6714 180.816 30.2046C181.505 30.731 181.849 31.5205 181.849 32.5732C181.849 33.7012 181.484 34.5557 180.755 35.1367C180.032 35.7109 178.965 35.998 177.553 35.998H172.899V24.7598H174.597V29.4048ZM185.43 35.998H183.731V24.7598H185.43V35.998ZM174.597 30.8711V34.5728H177.471C179.271 34.5728 180.172 33.9404 180.172 32.6758C180.172 32.0469 179.964 31.5889 179.548 31.3018C179.132 31.0146 178.422 30.8711 177.42 30.8711H174.597Z" fill="white"/>
<path d="M190.636 24.7598V31.8862L190.565 33.7524L190.534 34.3369L196.6 24.7598H198.717V35.998H197.132V29.1279L197.163 27.7744L197.214 26.4414L191.158 35.998H189.04V24.7598H190.636ZM193.838 23.2729C192.576 23.2729 191.656 23.0303 191.076 22.5449C190.496 22.0527 190.173 21.2461 190.104 20.125H191.7C191.761 20.8359 191.946 21.3315 192.252 21.6118C192.566 21.8921 193.108 22.0322 193.879 22.0322C194.581 22.0322 195.1 21.8818 195.434 21.5811C195.775 21.2803 195.983 20.7949 196.058 20.125H197.664C197.582 21.2051 197.238 22.0015 196.631 22.5142C196.024 23.02 195.093 23.2729 193.838 23.2729Z" fill="white"/>
<path d="M70.6259 64.7031C69.0029 64.7031 67.7447 64.2041 66.8513 63.206C65.9648 62.2012 65.5215 60.7827 65.5215 58.9507C65.5215 57.0708 65.9716 55.6182 66.8718 54.5928C67.7788 53.5674 69.0676 53.0547 70.7384 53.0547C71.2772 53.0547 71.8159 53.1128 72.3547 53.229C72.8934 53.3452 73.3162 53.4819 73.6231 53.6392L73.1014 55.085C72.7263 54.9346 72.3172 54.8115 71.8739 54.7158C71.4306 54.6133 71.0385 54.562 70.6975 54.562C68.4198 54.562 67.2809 56.0181 67.2809 58.9302C67.2809 60.311 67.5571 61.3706 68.1095 62.1089C68.6687 62.8472 69.4939 63.2163 70.585 63.2163C71.5193 63.2163 72.4774 63.0146 73.4594 62.6113V64.1186C72.7093 64.5083 71.7648 64.7031 70.6259 64.7031Z" fill="white"/>
<path d="M74.3494 53.2598H76.1702L78.6252 59.6684C79.164 61.1313 79.4981 62.1875 79.6277 62.8369H79.7095C79.7982 62.4883 79.9823 61.8935 80.2619 61.0527C80.5484 60.2051 81.4758 57.6074 83.0443 53.2598H84.8651L80.0471 66.0566C79.5697 67.3213 79.0105 68.2168 78.3695 68.7432C77.7353 69.2764 76.9545 69.543 76.027 69.543C75.5087 69.543 74.9972 69.4849 74.4926 69.3686V68.0049C74.8677 68.0869 75.2871 68.1279 75.7508 68.1279C76.9169 68.1279 77.7489 67.4717 78.2468 66.1592L78.8707 64.5596L74.3494 53.2598Z" fill="white"/>
<path d="M88.384 64.498H86.6859V53.2598H96.0969V64.498H94.3784V54.7363H88.384V64.498Z" fill="white"/>
<path d="M104.434 64.7031C102.777 64.7031 101.467 64.1973 100.506 63.1855C99.551 62.1738 99.0736 60.769 99.0736 58.9712C99.0736 57.1597 99.5169 55.7207 100.403 54.6543C101.297 53.5879 102.494 53.0547 103.994 53.0547C105.399 53.0547 106.51 53.5195 107.329 54.4492C108.147 55.3721 108.556 56.5923 108.556 58.1099V59.1865H100.833C100.867 60.5059 101.198 61.5073 101.825 62.1909C102.46 62.8745 103.349 63.2163 104.495 63.2163C105.702 63.2163 106.896 62.9634 108.075 62.4575V63.9751C107.475 64.2349 106.906 64.4194 106.367 64.5288C105.835 64.645 105.191 64.7031 104.434 64.7031ZM103.973 54.48C103.073 54.48 102.354 54.7739 101.815 55.3618C101.283 55.9497 100.969 56.7632 100.874 57.8022H106.735C106.735 56.729 106.497 55.9087 106.019 55.3413C105.542 54.7671 104.86 54.48 103.973 54.48Z" fill="white"/>
<path d="M116.678 64.7031C115.949 64.7031 115.28 64.5698 114.673 64.3032C114.073 64.0298 113.569 63.6128 113.159 63.0522H113.037C113.118 63.7085 113.159 64.3306 113.159 64.9184V69.543H111.461V53.2598H112.842L113.078 54.7978H113.159C113.596 54.1826 114.104 53.7383 114.684 53.4648C115.263 53.1914 115.928 53.0547 116.678 53.0547C118.165 53.0547 119.311 53.564 120.115 54.5825C120.927 55.6011 121.333 57.0298 121.333 58.8686C121.333 60.7143 120.92 62.1499 120.095 63.1753C119.277 64.1938 118.138 64.7031 116.678 64.7031ZM116.433 54.5005C115.287 54.5005 114.459 54.8184 113.947 55.4541C113.436 56.0898 113.173 57.1016 113.159 58.4893V58.8686C113.159 60.4477 113.422 61.5791 113.947 62.2627C114.472 62.9394 115.314 63.2778 116.474 63.2778C117.442 63.2778 118.199 62.8848 118.745 62.0986C119.297 61.3125 119.573 60.229 119.573 58.8481C119.573 57.4468 119.297 56.3735 118.745 55.6284C118.199 54.8765 117.428 54.5005 116.433 54.5005Z" fill="white"/>
<path d="M130.13 62.8574L130.447 61.9038L130.887 60.6938L133.925 53.2803H136.083V64.498H134.58V55.2183L134.375 55.813L133.782 57.3818L130.887 64.498H129.465L126.57 57.3613C126.209 56.4453 125.96 55.731 125.823 55.2183V64.498H124.309V53.2803H126.386L129.322 60.4067C129.615 61.1587 129.884 61.9756 130.13 62.8574Z" fill="white"/>
<path d="M146.609 64.498L146.272 62.8984H146.19C145.631 63.6025 145.071 64.081 144.512 64.334C143.96 64.5801 143.268 64.7031 142.436 64.7031C141.324 64.7031 140.451 64.416 139.817 63.8418C139.19 63.2676 138.876 62.4507 138.876 61.3911C138.876 59.1216 140.687 57.9321 144.308 57.8227L146.21 57.7612V57.064C146.21 56.1821 146.019 55.5327 145.637 55.1157C145.262 54.6919 144.659 54.48 143.827 54.48C142.893 54.48 141.836 54.7671 140.656 55.3413L140.134 54.0391C140.687 53.7383 141.29 53.5024 141.945 53.3315C142.606 53.1606 143.268 53.0752 143.929 53.0752C145.266 53.0752 146.255 53.3726 146.896 53.9673C147.544 54.562 147.867 55.5156 147.867 56.8281V64.498H146.609ZM142.773 63.2983C143.83 63.2983 144.659 63.0078 145.259 62.4268C145.866 61.8457 146.169 61.0322 146.169 59.9863V58.9712L144.471 59.043C143.121 59.0908 142.146 59.3027 141.546 59.6787C140.952 60.0478 140.656 60.6255 140.656 61.4116C140.656 62.0268 140.84 62.4951 141.208 62.8164C141.583 63.1377 142.105 63.2983 142.773 63.2983Z" fill="white"/>
<path d="M156.593 64.7031C155.863 64.7031 155.195 64.5698 154.588 64.3032C153.988 64.0298 153.483 63.6128 153.074 63.0522H152.951C153.033 63.7085 153.074 64.3306 153.074 64.9184V69.543H151.376V53.2598H152.757L152.992 54.7978H153.074C153.511 54.1826 154.019 53.7383 154.598 53.4648C155.178 53.1914 155.843 53.0547 156.593 53.0547C158.08 53.0547 159.225 53.564 160.03 54.5825C160.842 55.6011 161.247 57.0298 161.247 58.8686C161.247 60.7143 160.835 62.1499 160.01 63.1753C159.191 64.1938 158.052 64.7031 156.593 64.7031ZM156.348 54.5005C155.202 54.5005 154.373 54.8184 153.862 55.4541C153.35 56.0898 153.088 57.1016 153.074 58.4893V58.8686C153.074 60.4477 153.337 61.5791 153.862 62.2627C154.387 62.9394 155.229 63.2778 156.389 63.2778C157.357 63.2778 158.114 62.8848 158.659 62.0986C159.212 61.3125 159.488 60.229 159.488 58.8481C159.488 57.4468 159.212 56.3735 158.659 55.6284C158.114 54.8765 157.343 54.5005 156.348 54.5005Z" fill="white"/>
<path d="M170.761 53.2598H172.622L167.784 58.6841L173.021 64.498H171.037L165.922 58.8071V64.498H164.224V53.2598H165.922V58.7251L170.761 53.2598Z" fill="white"/>
<path d="M179.844 64.7031C178.187 64.7031 176.878 64.1973 175.916 63.1855C174.962 62.1738 174.484 60.769 174.484 58.9712C174.484 57.1597 174.927 55.7207 175.814 54.6543C176.707 53.5879 177.904 53.0547 179.404 53.0547C180.809 53.0547 181.921 53.5195 182.739 54.4492C183.558 55.3721 183.967 56.5923 183.967 58.1099V59.1865H176.244C176.278 60.5059 176.608 61.5073 177.236 62.1909C177.87 62.8745 178.76 63.2163 179.906 63.2163C181.113 63.2163 182.306 62.9634 183.486 62.4575V63.9751C182.886 64.2349 182.316 64.4194 181.778 64.5288C181.246 64.645 180.601 64.7031 179.844 64.7031ZM179.384 54.48C178.484 54.48 177.764 54.7739 177.226 55.3618C176.694 55.9497 176.38 56.7632 176.285 57.8022H182.146C182.146 56.729 181.907 55.9087 181.43 55.3413C180.953 54.7671 180.271 54.48 179.384 54.48Z" fill="white"/>
<path d="M194.431 54.7158H190.79V64.498H189.092V54.7158H185.491V53.2598H194.431V54.7158Z" fill="white"/>
</svg>
