<svg width="139" height="52" viewBox="0 0 139 52" fill="none" xmlns="http://www.w3.org/2000/svg">
<path d="M7.71432 22.9198C13.2694 22.9198 16.7948 19.5598 16.7948 13.9599C16.7948 8.35996 13.2694 5 7.6431 5H0.699219V22.9198H7.71432ZM5.64896 18.7898V9.12995H7.39383C10.2426 9.12995 11.8094 10.2149 11.8094 13.9599C11.8094 17.7049 10.2426 18.7898 7.53627 18.7898H5.64896Z" fill="#2F2F2F"/>
<path d="M31.8698 5V16.0599C31.8698 17.7311 30.6502 18.9298 28.9498 18.9298C27.2494 18.9298 26.0298 17.7311 26.0298 16.0599V5H21.0801V16.4799C21.0801 20.5748 24.2315 23.1298 28.9498 23.1298C33.6325 23.1298 36.8195 20.5748 36.8195 16.4799V5H31.8698Z" fill="#2F2F2F"/>
<path d="M29.9849 29.0802C24.4298 29.0802 20.9044 32.4402 20.9044 38.0401C20.9044 43.64 24.4298 47 30.0561 47L37 47L37 29.0802L29.9849 29.0802ZM32.0503 33.2102L32.0503 42.87L30.3054 42.87C27.4566 42.87 25.8898 41.7851 25.8898 38.0401C25.8898 34.2951 27.4566 33.2102 30.163 33.2102L32.0503 33.2102Z" fill="#2F2F2F"/>
<path d="M13.4613 29.0802L12.4108 32.5102L6.39278 32.5102L5.3423 29.0802L0.000850364 29.0802L6.01888 47L12.7847 47L18.8027 29.0802L13.4613 29.0802ZM11.2891 36.1501L9.47301 42.0651L9.33057 42.0651L7.51448 36.1501L11.2891 36.1501Z" fill="#2F2F2F"/>
<path d="M49.7846 13.095H51.0286L47.7956 16.7172L51.2951 20.5996H49.9691L46.5516 16.7994V20.5996H45.4169V13.095H46.5516V16.7446L49.7846 13.095Z" fill="#2F2F2F"/>
<path d="M51.5002 13.095H52.7168L54.3573 17.3745C54.7173 18.3514 54.9405 19.0567 55.0271 19.4903H55.0818C55.141 19.2575 55.2641 18.8604 55.4509 18.2989C55.6423 17.7329 56.262 15.9982 57.31 13.095H58.5267L55.3073 21.6404C54.9884 22.4849 54.6147 23.0829 54.1864 23.4344C53.7626 23.7904 53.2409 23.9685 52.6212 23.9685C52.2748 23.9685 51.9331 23.9297 51.5959 23.8521V22.9414C51.8465 22.9961 52.1267 23.0235 52.4366 23.0235C53.2158 23.0235 53.7717 22.5853 54.1044 21.7089L54.5213 20.6407L51.5002 13.095Z" fill="#2F2F2F"/>
<path d="M63.2292 20.7365C62.7417 20.7365 62.2951 20.6475 61.8896 20.4695C61.4886 20.2869 61.1514 20.0084 60.878 19.6341H60.7959C60.8506 20.0724 60.878 20.4878 60.878 20.8803V23.9685H59.7433V13.095H60.6661L60.8233 14.1221H60.878C61.1696 13.7112 61.5091 13.4145 61.8964 13.2319C62.2837 13.0493 62.728 12.958 63.2292 12.958C64.2226 12.958 64.9881 13.2981 65.5258 13.9783C66.0681 14.6584 66.3392 15.6125 66.3392 16.8404C66.3392 18.0729 66.0635 19.0316 65.5122 19.7163C64.9654 20.3965 64.2044 20.7365 63.2292 20.7365ZM63.0652 13.9235C62.2997 13.9235 61.746 14.1358 61.4043 14.5603C61.0625 14.9848 60.8871 15.6604 60.878 16.5871V16.8404C60.878 17.8949 61.0534 18.6504 61.4043 19.1069C61.7551 19.5588 62.3179 19.7848 63.0925 19.7848C63.7396 19.7848 64.2454 19.5223 64.6099 18.9973C64.979 18.4724 65.1636 17.7488 65.1636 16.8267C65.1636 15.8909 64.979 15.1743 64.6099 14.6767C64.2454 14.1746 63.7305 13.9235 63.0652 13.9235Z" fill="#2F2F2F"/>
<path d="M69.3945 13.095V17.8538L69.3467 19.1L69.3262 19.4903L73.3794 13.095H74.7943V20.5996H73.7348V16.0119L73.7553 15.1081L73.7895 14.2179L69.7431 20.5996H68.3282V13.095H69.3945Z" fill="#2F2F2F"/>
<path d="M82.2514 14.0673H79.8181V20.5996H78.6834V14.0673H76.2775V13.095H82.2514V14.0673Z" fill="#2F2F2F"/>
<path d="M86.8992 20.7365C85.792 20.7365 84.9171 20.3987 84.2746 19.7231C83.6366 19.0475 83.3176 18.1095 83.3176 16.9089C83.3176 15.6992 83.6138 14.7383 84.2062 14.0262C84.8031 13.3141 85.6028 12.958 86.6053 12.958C87.544 12.958 88.2868 13.2684 88.8336 13.8893C89.3804 14.5055 89.6538 15.3203 89.6538 16.3337V17.0527H84.4933C84.5161 17.9337 84.7371 18.6025 85.1563 19.059C85.5801 19.5154 86.1747 19.7437 86.9403 19.7437C87.7468 19.7437 88.5442 19.5748 89.3325 19.237V20.2504C88.9315 20.4239 88.5511 20.5471 88.1911 20.6201C87.8356 20.6977 87.405 20.7365 86.8992 20.7365ZM86.5917 13.9098C85.9902 13.9098 85.5094 14.1061 85.1494 14.4987C84.794 14.8912 84.5844 15.4345 84.5206 16.1283H88.4371C88.4371 15.4116 88.2777 14.8639 87.9587 14.485C87.6397 14.1015 87.184 13.9098 86.5917 13.9098Z" fill="#2F2F2F"/>
<path d="M97.1792 20.5996H96.0309V14.0673H93.7822C93.6592 15.6924 93.4883 16.9819 93.2696 17.936C93.0508 18.8901 92.766 19.5885 92.4152 20.0313C92.0689 20.4741 91.6269 20.6955 91.0892 20.6955C90.8431 20.6955 90.6472 20.6681 90.5013 20.6133V19.7711C90.6016 19.7985 90.7155 19.8122 90.8431 19.8122C91.3671 19.8122 91.7841 19.2575 92.0939 18.1483C92.4038 17.039 92.6385 15.3546 92.7979 13.095H97.1792V20.5996Z" fill="#2F2F2F"/>
<path d="M100.727 16.1968H103.037C104.951 16.1968 105.908 16.9021 105.908 18.3126C105.908 19.0521 105.657 19.6182 105.156 20.0107C104.659 20.4033 103.93 20.5996 102.969 20.5996H99.592V13.095H100.727V16.1968ZM100.727 17.176V19.6478H102.914C103.515 19.6478 103.976 19.5428 104.295 19.3328C104.614 19.1229 104.773 18.8056 104.773 18.3811C104.773 17.9657 104.625 17.6621 104.329 17.4704C104.037 17.2741 103.554 17.176 102.88 17.176H100.727Z" fill="#2F2F2F"/>
<path d="M109.011 13.095V16.2379H113.208V13.095H114.342V20.5996H113.208V17.217H109.011V20.5996H107.876V13.095H109.011Z" fill="#2F2F2F"/>
<path d="M117.883 16.1968H119.926C120.879 16.1968 121.583 16.3748 122.039 16.7309C122.499 17.0824 122.729 17.6096 122.729 18.3126C122.729 19.0658 122.485 19.6364 121.998 20.0244C121.515 20.4079 120.801 20.5996 119.858 20.5996H116.748V13.095H117.883V16.1968ZM125.121 20.5996H123.987V13.095H125.121V20.5996ZM117.883 17.176V19.6478H119.803C121.006 19.6478 121.608 19.2256 121.608 18.3811C121.608 17.9611 121.469 17.6553 121.191 17.4635C120.913 17.2718 120.439 17.176 119.769 17.176H117.883Z" fill="#2F2F2F"/>
<path d="M128.6 13.095V17.8538L128.552 19.1L128.532 19.4903L132.585 13.095H134V20.5996H132.941V16.0119L132.961 15.1081L132.995 14.2179L128.949 20.5996H127.534V13.095H128.6ZM130.74 12.1021C129.897 12.1021 129.281 11.9401 128.894 11.616C128.507 11.2873 128.29 10.7486 128.245 10H129.311C129.352 10.4747 129.475 10.8057 129.68 10.9929C129.89 11.18 130.252 11.2736 130.767 11.2736C131.236 11.2736 131.583 11.1732 131.806 10.9723C132.034 10.7715 132.173 10.4474 132.223 10H133.296C133.241 10.7212 133.011 11.2531 132.606 11.5954C132.2 11.9332 131.578 12.1021 130.74 12.1021Z" fill="#2F2F2F"/>
<path d="M48.4107 39.7681C47.3262 39.7681 46.4855 39.4348 45.8886 38.7684C45.2962 38.0973 45 37.1501 45 35.9268C45 34.6714 45.3007 33.7014 45.9022 33.0167C46.5083 32.3319 47.3695 31.9896 48.4859 31.9896C48.8459 31.9896 49.2059 32.0284 49.5659 32.106C49.9258 32.1836 50.2084 32.2749 50.4134 32.3799L50.0648 33.3453C49.8142 33.2449 49.5408 33.1627 49.2446 33.0988C48.9484 33.0304 48.6864 32.9961 48.4586 32.9961C46.9366 32.9961 46.1756 33.9684 46.1756 35.9131C46.1756 36.8352 46.3602 37.5427 46.7293 38.0357C47.1029 38.5287 47.6543 38.7752 48.3834 38.7752C49.0077 38.7752 49.6479 38.6406 50.304 38.3712V39.3778C49.8028 39.638 49.1717 39.7681 48.4107 39.7681Z" fill="#2F2F2F"/>
<path d="M50.8987 32.1265H52.1154L53.7558 36.4061C54.1158 37.3829 54.339 38.0882 54.4256 38.5219H54.4803C54.5395 38.2891 54.6626 37.8919 54.8494 37.3305C55.0408 36.7644 55.6605 35.0298 56.7085 32.1265H57.9252L54.7059 40.6719C54.3869 41.5164 54.0132 42.1144 53.5849 42.4659C53.1611 42.822 52.6394 43 52.0197 43C51.6733 43 51.3316 42.9612 50.9944 42.8836V41.9729C51.245 42.0277 51.5253 42.0551 51.8351 42.0551C52.6143 42.0551 53.1702 41.6168 53.5029 40.7404L53.9198 39.6722L50.8987 32.1265Z" fill="#2F2F2F"/>
<path d="M60.2765 39.6311H59.1418V32.1265H65.4302V39.6311H64.2819V33.1125H60.2765V39.6311Z" fill="#2F2F2F"/>
<path d="M71.0008 39.7681C69.8935 39.7681 69.0186 39.4303 68.3761 38.7547C67.7381 38.0791 67.4192 37.141 67.4192 35.9405C67.4192 34.7308 67.7154 33.7699 68.3077 33.0577C68.9047 32.3456 69.7044 31.9896 70.7069 31.9896C71.6455 31.9896 72.3883 32.3 72.9351 32.9208C73.4819 33.5371 73.7553 34.3519 73.7553 35.3653V36.0842H68.5948C68.6176 36.9653 68.8386 37.634 69.2578 38.0905C69.6816 38.547 70.2762 38.7752 71.0418 38.7752C71.8483 38.7752 72.6458 38.6063 73.4341 38.2685V39.2819C73.0331 39.4554 72.6526 39.5786 72.2926 39.6517C71.9372 39.7293 71.5066 39.7681 71.0008 39.7681ZM70.6932 32.9413C70.0917 32.9413 69.611 33.1376 69.251 33.5302C68.8956 33.9228 68.6859 34.466 68.6221 35.1599H72.5387C72.5387 34.4432 72.3792 33.8954 72.0602 33.5165C71.7412 33.1331 71.2856 32.9413 70.6932 32.9413Z" fill="#2F2F2F"/>
<path d="M79.1824 39.7681C78.6948 39.7681 78.2483 39.6791 77.8427 39.501C77.4417 39.3184 77.1045 39.04 76.8311 38.6657H76.7491C76.8038 39.1039 76.8311 39.5193 76.8311 39.9119V43H75.6965V32.1265H76.6192L76.7764 33.1536H76.8311C77.1227 32.7428 77.4622 32.4461 77.8495 32.2635C78.2369 32.0809 78.6812 31.9896 79.1824 31.9896C80.1758 31.9896 80.9413 32.3296 81.479 33.0098C82.0212 33.69 82.2924 34.644 82.2924 35.872C82.2924 37.1045 82.0167 38.0631 81.4653 38.7478C80.9185 39.428 80.1575 39.7681 79.1824 39.7681ZM79.0184 32.955C78.2528 32.955 77.6992 33.1673 77.3574 33.5918C77.0157 34.0164 76.8402 34.692 76.8311 35.6186V35.872C76.8311 36.9265 77.0066 37.6819 77.3574 38.1384C77.7083 38.5903 78.271 38.8163 79.0457 38.8163C79.6928 38.8163 80.1986 38.5538 80.5631 38.0289C80.9322 37.5039 81.1167 36.7804 81.1167 35.8583C81.1167 34.9225 80.9322 34.2058 80.5631 33.7082C80.1986 33.2061 79.6836 32.955 79.0184 32.955Z" fill="#2F2F2F"/>
<path d="M88.1706 38.5356L88.3825 37.8988L88.6764 37.0908L90.7064 32.1402H92.1486V39.6311H91.1438V33.4343L91.0071 33.8315L90.6107 34.8791L88.6764 39.6311H87.7263L85.792 34.8654C85.5504 34.2537 85.3841 33.7767 85.293 33.4343V39.6311H84.2814V32.1402H85.6689L87.6306 36.8991C87.8265 37.4012 88.0065 37.9467 88.1706 38.5356Z" fill="#2F2F2F"/>
<path d="M99.1819 39.6311L98.9564 38.563H98.9017C98.528 39.0331 98.1544 39.3527 97.7807 39.5216C97.4116 39.6859 96.9491 39.7681 96.3932 39.7681C95.6505 39.7681 95.0672 39.5764 94.6434 39.1929C94.2242 38.8095 94.0146 38.264 94.0146 37.5564C94.0146 36.0409 95.2244 35.2466 97.644 35.1736L98.9154 35.1325V34.6669C98.9154 34.078 98.7878 33.6443 98.5326 33.3659C98.282 33.0828 97.8787 32.9413 97.3228 32.9413C96.6985 32.9413 95.9922 33.1331 95.2039 33.5165L94.8553 32.6469C95.2244 32.4461 95.6277 32.2886 96.0651 32.1744C96.5071 32.0603 96.9491 32.0033 97.3911 32.0033C98.2843 32.0033 98.945 32.2018 99.3733 32.599C99.8062 32.9961 100.023 33.6329 100.023 34.5094V39.6311H99.1819ZM96.6188 38.83C97.3251 38.83 97.8787 38.636 98.2797 38.248C98.6852 37.86 98.888 37.3168 98.888 36.6183V35.9405L97.7534 35.9884C96.8512 36.0203 96.1995 36.1618 95.7986 36.4129C95.4021 36.6594 95.2039 37.0451 95.2039 37.5701C95.2039 37.9809 95.3269 38.2936 95.573 38.5082C95.8236 38.7227 96.1722 38.83 96.6188 38.83Z" fill="#2F2F2F"/>
<path d="M105.853 39.7681C105.365 39.7681 104.919 39.6791 104.513 39.501C104.112 39.3184 103.775 39.04 103.502 38.6657H103.42C103.474 39.1039 103.502 39.5193 103.502 39.9119V43H102.367V32.1265H103.29L103.447 33.1536H103.502C103.793 32.7428 104.133 32.4461 104.52 32.2635C104.907 32.0809 105.352 31.9896 105.853 31.9896C106.846 31.9896 107.612 32.3296 108.15 33.0098C108.692 33.69 108.963 34.644 108.963 35.872C108.963 37.1045 108.687 38.0631 108.136 38.7478C107.589 39.428 106.828 39.7681 105.853 39.7681ZM105.689 32.955C104.923 32.955 104.37 33.1673 104.028 33.5918C103.686 34.0164 103.511 34.692 103.502 35.6186V35.872C103.502 36.9265 103.677 37.6819 104.028 38.1384C104.379 38.5903 104.942 38.8163 105.716 38.8163C106.363 38.8163 106.869 38.5538 107.234 38.0289C107.603 37.5039 107.787 36.7804 107.787 35.8583C107.787 34.9225 107.603 34.2058 107.234 33.7082C106.869 33.2061 106.354 32.955 105.689 32.955Z" fill="#2F2F2F"/>
<path d="M115.32 32.1265H116.564L113.331 35.7487L116.83 39.6311H115.504L112.087 35.8309V39.6311H110.952V32.1265H112.087V35.7761L115.32 32.1265Z" fill="#2F2F2F"/>
<path d="M121.389 39.7681C120.282 39.7681 119.407 39.4303 118.765 38.7547C118.127 38.0791 117.808 37.141 117.808 35.9405C117.808 34.7308 118.104 33.7699 118.696 33.0577C119.293 32.3456 120.093 31.9896 121.095 31.9896C122.034 31.9896 122.777 32.3 123.324 32.9208C123.87 33.5371 124.144 34.3519 124.144 35.3653V36.0842H118.983C119.006 36.9653 119.227 37.634 119.646 38.0905C120.07 38.547 120.665 38.7752 121.43 38.7752C122.237 38.7752 123.034 38.6063 123.823 38.2685V39.2819C123.422 39.4554 123.041 39.5786 122.681 39.6517C122.326 39.7293 121.895 39.7681 121.389 39.7681ZM121.082 32.9413C120.48 32.9413 119.999 33.1376 119.639 33.5302C119.284 33.9228 119.074 34.466 119.011 35.1599H122.927C122.927 34.4432 122.768 33.8954 122.449 33.5165C122.13 33.1331 121.674 32.9413 121.082 32.9413Z" fill="#2F2F2F"/>
<path d="M131.136 33.0988H128.703V39.6311H127.568V33.0988H125.162V32.1265H131.136V33.0988Z" fill="#2F2F2F"/>
</svg>
