<svg width="16" height="16" viewBox="0 0 16 16" fill="none" xmlns="http://www.w3.org/2000/svg">
<g clip-path="url(#clip0_4533_62979)">
<path d="M15.4992 7.49997H9.166C8.89001 7.49997 8.66602 7.27598 8.66602 6.99999C8.66602 6.72399 8.89001 6.5 9.166 6.5H15.4992C15.7752 6.5 15.9992 6.72399 15.9992 6.99999C15.9992 7.27598 15.7752 7.49997 15.4992 7.49997Z" fill="#BBBBBB"/>
<path d="M12.9999 10.001C12.8718 10.001 12.7439 9.95229 12.6465 9.85439C12.4512 9.65897 12.4512 9.34233 12.6465 9.14702L14.7931 7.00048L12.6465 4.85382C12.4512 4.65852 12.4512 4.34188 12.6465 4.14657C12.8419 3.95114 13.1585 3.95114 13.3539 4.14657L15.8538 6.64649C16.0491 6.8418 16.0491 7.15844 15.8538 7.35374L13.3539 9.85366C13.2558 9.95229 13.1279 10.001 12.9999 10.001Z" fill="#BBBBBB"/>
<path d="M5.33321 15.9995C5.19051 15.9995 5.05514 15.9795 4.91989 15.9375L0.907931 14.6009C0.362049 14.4102 0 13.9015 0 13.333V1.33333C0 0.598004 0.598004 0 1.33333 0C1.47591 0 1.61128 0.0200189 1.74665 0.0620098L5.75849 1.39864C6.30449 1.58931 6.66642 2.09796 6.66642 2.66654V14.6662C6.66642 15.4015 6.06854 15.9995 5.33321 15.9995ZM1.33333 0.999969C1.14999 0.999969 0.999969 1.14999 0.999969 1.33333V13.333C0.999969 13.4749 1.0953 13.6069 1.23128 13.6542L5.22445 14.9849C5.25313 14.9942 5.29048 14.9995 5.33321 14.9995C5.51655 14.9995 5.66645 14.8495 5.66645 14.6662V2.66654C5.66645 2.52458 5.57112 2.39263 5.43513 2.34526L1.44197 1.01462C1.41329 1.00534 1.37593 0.999969 1.33333 0.999969Z" fill="#BBBBBB"/>
<path d="M10.1669 5.33321C9.89095 5.33321 9.66696 5.10922 9.66696 4.83322V1.83332C9.66696 1.37398 9.29307 0.999969 8.83374 0.999969H1.33397C1.05798 0.999969 0.833984 0.775977 0.833984 0.499984C0.833984 0.223992 1.05798 0 1.33397 0H8.83374C9.84506 0 10.6669 0.821996 10.6669 1.83332V4.83322C10.6669 5.10922 10.4429 5.33321 10.1669 5.33321Z" fill="#BBBBBB"/>
<path d="M8.83266 13.9992H6.166C5.89001 13.9992 5.66602 13.7752 5.66602 13.4992C5.66602 13.2232 5.89001 12.9992 6.166 12.9992H8.83266C9.292 12.9992 9.66589 12.6252 9.66589 12.1659V9.166C9.66589 8.89001 9.88988 8.66602 10.1659 8.66602C10.4419 8.66602 10.6659 8.89001 10.6659 9.166V12.1659C10.6659 13.1772 9.84399 13.9992 8.83266 13.9992Z" fill="#BBBBBB"/>
</g>
<defs>
<clipPath id="clip0_4533_62979">
<rect width="16" height="16" fill="white"/>
</clipPath>
</defs>
</svg>
