<svg width="171" height="92" viewBox="0 0 171 92" fill="none" xmlns="http://www.w3.org/2000/svg">
<path d="M12.0868 53.7227L12.173 53.3454L12.1175 53.1616L11.8648 52.9873L11.5842 52.7212L11.2023 52.2851L10.8398 52.2446L10.9399 51.9132L10.7595 51.3157L10.6653 50.3408L10.6834 50.235L10.6641 49.8395L10.9156 49.5124L10.8323 49.2366L11.1714 49.0335L11.1201 48.6979L11.216 48.5183L11.4356 48.2511L11.6871 47.9239L12.0581 47.661L12.4792 47.2323L12.4972 47.1265L12.9461 46.7897L13.1976 46.4626L13.7381 46.0981L14.3022 45.9772L14.8161 46.0221L15.1594 45.6671L15.5817 45.7398L15.7831 45.5784L16.0124 45.5089L16.5445 45.4479L16.971 45.3687L17.3197 45.3634L17.5809 45.234L17.824 45.2105L18.1449 45.1132L18.6673 44.8544L19.0576 44.9869L19.4063 44.9816L19.6814 44.8982L20.0259 45.0446L20.269 45.021L20.7371 45.0798L20.9205 45.0242L21.297 45.1107L21.9111 44.8242L22.182 44.8926L22.3973 44.7771L22.8474 44.9417L23.0307 44.8861L23.4808 45.0507L23.8753 45.0314L24.0768 44.87L24.6409 44.7491L25.2743 44.8581L25.5494 44.7747L25.8202 44.8431L26.2926 44.75L26.5954 44.7586L27.0636 44.8173L27.5818 44.7104L27.9805 44.5393L28.8293 44.5328L29.0308 44.3714L29.5587 44.4622L30.1088 44.2954L30.4436 44.244L30.7423 44.4044L31.0493 44.2611L31.3884 44.058L31.594 43.7448L31.8149 43.9788L32.2275 43.8537L32.5388 43.5587L32.7083 43.4571L32.9514 43.4336L33.4654 43.4784L33.703 43.1053L34.024 43.008L34.506 43.1128L34.9089 42.7899L34.9952 42.4126L35.4494 42.4254L35.7885 42.2222L35.7691 41.8267L36.1957 41.7476L36.4014 41.4344L36.5974 40.9234L36.5919 40.5739L36.4073 40.1282L36.2504 39.7744L35.7491 39.2742L35.3032 38.7125L35.0962 38.5244L34.7753 38.6217L35.0058 39.0536L35.1765 39.4533L34.8334 40.0535L34.7429 40.5826L34.3997 40.9375L34.2579 41.131L33.9008 41.44L33.4339 41.8825L32.8699 42.0034L32.5447 42.2525L32.1779 42.3637L31.9626 42.4791L31.775 42.6865L31.4902 42.5722L30.9262 42.693L30.7663 42.9923L30.5829 43.0479L30.2439 43.251L29.6841 43.2201L29.2395 43.4051L28.813 43.4842L28.4046 43.4575L27.8821 43.7162L27.4321 43.5517L26.5875 43.4064L26.2986 43.4438L26.1152 43.4994L25.8081 43.6427L25.5469 43.7721L25.0052 43.6353L24.4495 43.4526L24.1147 43.5039L23.7618 43.6611L23.4035 43.4687L22.9951 43.442L22.7658 43.5115L22.4087 43.8205L22.2615 43.6644L21.7934 43.6057L21.4447 43.611L20.2973 43.4572L19.6138 43.5139L19.1318 43.4092L19.0358 43.5888L18.5635 43.6819L18.187 43.5953L17.7189 43.5366L17.2701 43.8733L16.8756 43.8926L16.5812 43.5805L16.3019 43.8157L16.1366 43.7655L15.7058 43.9964L15.3433 43.9558L15.2474 44.1354L14.6055 44.33L13.9401 44.2809L13.6373 44.2724L13.3622 44.3558L13.0787 44.7427L12.409 44.8454L12.0658 45.2003L11.7171 45.2057L11.4933 45.6247L11.1265 45.7359L11.164 46.0256L10.8346 46.4265L10.3803 46.4137L10.2525 46.6531L9.92732 46.9022L9.76747 47.2015L9.48817 47.4367L9.52559 47.7264L9.26438 47.8558L8.98508 48.0909L8.91693 48.3625L8.67505 48.8873L8.67083 49.0391L8.4012 49.472L8.19129 49.937L8.30652 50.1529L8.35782 50.4886L8.56475 50.6767L8.61605 51.0123L8.75483 51.4719L8.95333 51.9636L9.20189 52.2896L9.56025 52.482L9.74487 52.9277L10.0296 53.042L10.2601 53.4739L10.5865 53.7261L10.8296 53.7025L11.2199 53.8351L11.5686 53.8297L12.0868 53.7227ZM14.5453 77.6105L14.6551 77.4768L14.9482 77.2876L15.347 77.1165L15.768 76.6879L15.9556 76.4805L16.3128 76.1715L16.5462 75.9503L16.7977 75.6231L16.9854 75.4158L17.2049 75.1485L17.4607 74.6696L17.6803 74.4024L17.7484 74.1309L18.0138 73.8497L18.2557 73.3249L18.4156 73.0256L18.5018 72.6482L18.5838 72.4227L18.7618 72.0175L18.8203 71.5483L19.0567 70.6739L19.2027 70.3286L19.3209 69.8914L19.453 69.5002L19.5253 69.0769L19.538 68.6215L19.6882 68.1245L19.7286 67.761L19.7871 67.2918L19.8275 66.9284L19.9915 66.4773L20.0639 66.054L20.0446 65.6585L20.167 65.0695L20.2532 64.6922L20.0825 64.2924L20.2062 64.2047L20.141 63.8232L20.2912 63.3261L20.3593 63.0546L20.1566 62.7147L20.229 62.2914L20.2597 61.7302L20.2181 61.5923L20.3001 61.3668L20.2669 60.9253L20.3531 60.548L20.545 60.1888L20.6173 59.7655L20.5244 59.292L20.7259 59.1306L20.744 59.0248L20.8899 58.6795L20.7747 58.4636L21.2319 57.8233L21.4599 57.2524L21.6017 57.059L22.22 56.6206L22.3063 56.2433L22.4341 56.0039L22.7273 55.8146L23.1164 55.4458L23.5749 55.3068L23.8264 54.9797L23.9682 54.7862L24.3808 54.6611L24.5588 54.256L24.8561 53.915L25.0854 53.8455L25.5161 53.6146L25.612 53.435L25.7954 53.3794L26.2165 52.9507L26.5513 52.8994L26.8764 52.6503L27.0779 52.4889L27.3433 52.2077L27.5683 52.29L28.2283 51.9896L28.5951 51.8784L28.7049 51.7447L29.0258 51.6474L29.2828 51.6699L29.5717 51.6324L30.2233 51.6356L30.6178 51.6163L30.8428 51.6986L31.3526 51.8952L31.7749 51.9678L32.6014 52.219L33.1069 52.5674L33.3736 52.7875L33.5805 52.9757L33.8194 53.1039L33.9347 53.3198L34.2152 53.5859L34.4179 53.9258L34.6068 54.2198L34.7998 54.3619L35.1401 54.6601L35.315 54.9081L35.4997 55.3538L35.5787 55.7814L35.7537 56.0293L35.8689 56.2452L36.0855 56.6311L36.1507 57.0127L36.3033 57.5183L36.2491 57.8357L36.4017 58.3413L36.3891 58.7967L36.3348 59.1141L36.3903 59.298L36.3318 59.7672L36.2081 59.8549L36.1635 60.3701L36.0676 60.5497L36.0134 60.8672L35.8077 61.1804L35.8909 61.4562L35.8964 61.8057L35.8879 62.1093L35.5363 62.7677L35.6195 63.0435L35.3318 63.5823L35.0067 63.8314L35.0399 64.2728L34.7425 64.6138L34.6062 65.1568L34.4602 65.5021L34.2044 65.981L34.0947 66.1146L33.9167 66.5198L33.5874 66.9206L33.3859 67.0821L33.0885 67.4231L32.9606 67.6625L32.6493 67.9576L32.4714 68.3627L32.2018 68.7956L31.771 69.0266L31.4459 69.2756L30.9971 69.6124L30.9012 69.792L30.5622 69.9951L30.1357 70.0742L30.0578 70.148L29.8008 70.1256L29.5173 70.5126L29.3062 70.4762L29.1186 70.6836L28.4948 70.7724L28.1739 70.8697L27.8168 71.1786L27.4222 71.1979L26.8805 71.0612L26.4998 71.1264L26.0498 70.9618L25.6275 70.8892L25.4344 70.747L24.9608 70.3388L24.5747 70.0545L24.4637 69.6868L24.2194 69.209L23.9931 68.6254L23.8224 68.2256L23.6655 67.8718L23.5726 67.3983L23.5351 67.1087L23.5713 66.897L23.5019 66.6672L23.2117 66.2033L23.4174 65.8901L23.38 65.6004L23.3384 65.4626L23.3691 64.9014L23.3872 64.7956L23.354 64.3541L23.4583 63.8709L23.6363 63.4658L23.8836 63.2905L23.8142 63.0607L24.0435 62.9912L24.1436 62.6598L24.5785 62.2771L24.812 62.0558L25.1926 61.9906L25.1232 61.7608L25.1317 61.4572L24.6177 61.4123L24.0717 61.4274L23.6229 61.7641L23.3297 61.9533L23.2061 62.041L23.0643 62.2345L22.7392 62.4836L22.5516 62.6909L22.6029 63.0266L22.3097 63.2158L22.4068 63.5375L22.1414 63.8187L22.1469 64.1682L21.8495 64.5092L21.9285 64.9368L21.9756 65.4242L21.9503 66.3349L22.0933 66.6427L21.9377 66.7903L22.2182 67.0564L22.1181 67.3878L22.2472 67.6496L22.3305 67.9254L22.3039 68.3348L22.3733 68.5646L22.5761 68.9045L22.7287 69.4101L22.7661 69.6998L22.9508 70.1455L23.3743 70.7194L23.5311 71.0732L23.7061 71.3212L24.0783 71.5595L24.6575 71.986L25.1353 72.2425L25.42 72.3568L25.6312 72.3931L26.2785 72.5481L26.6272 72.5427L26.9439 72.5972L27.3885 72.4122L27.8108 72.4849L27.9942 72.4293L28.5721 72.3544L28.9111 72.1512L29.3015 72.2838L29.5307 72.2143L30.1128 71.9876L30.2866 71.7342L30.47 71.6786L30.9423 71.5856L31.2397 71.2446L31.5787 71.0415L31.6607 70.8159L31.9316 70.8843L32.3068 70.4695L32.5542 70.2942L32.9668 70.1691L33.2781 69.8741L33.4421 69.423L33.5742 69.0317L33.8951 68.9344L34.1467 68.6073L34.2523 68.6255L34.3343 68.3999L34.6733 68.1968L35.0027 67.7959L35.2542 67.4688L35.6391 67.2518L35.7338 66.5709L35.9533 66.3037L36.1548 66.1422L36.3466 65.7831L36.4148 65.5115L36.615 64.8488L36.5734 64.7109L36.7791 64.3977L36.9987 64.1305L37.2267 63.5596L37.2532 63.1502L37.2477 62.8007L37.5674 62.2021L37.6121 61.6869L37.7399 61.4474L37.7942 61.13L37.9124 60.6928L37.7278 60.247L37.8418 59.9616L38.0059 59.5105L38.0004 59.161L37.9033 58.8393L37.7048 58.3476L37.8924 58.1402L37.8272 57.7586L37.6287 57.2669L37.7107 57.0414L37.3886 56.6374L37.1901 56.1457L37.1623 56.0538L37.0054 55.7L36.8166 55.406L36.7653 55.0704L36.6917 54.9924L36.5029 54.6985L36.2543 54.3725L36.1071 54.2164L35.7891 53.6606L35.403 53.3763L34.9614 52.9082L34.7086 52.734L34.3545 52.3898L34.2073 52.2338L34.0281 52.1376L33.6878 51.8394L33.4073 51.5733L32.8837 51.3307L32.5531 51.2302L32.1489 51.0518L31.91 50.9235L31.6988 50.8872L31.2307 50.8284L30.914 50.774L30.4959 50.5495L29.9958 50.5506L29.7569 50.4224L29.5276 50.4919L29.0137 50.4471L28.5093 50.6L28.0189 50.7988L27.9091 50.9324L27.7257 50.988L27.2853 51.0212L27.1436 51.2147L26.8226 51.312L26.442 51.3773L25.9558 51.4243L25.5986 51.7333L25.1082 51.9321L24.6733 52.3149L24.3481 52.5639L23.816 52.6249L23.702 52.9103L23.2617 52.9435L23.1796 53.1691L22.8086 53.432L22.6433 53.3818L22.5293 53.6672L22.3236 53.9804L22.0208 53.9719L21.7693 54.299L21.5261 54.3226L21.2788 54.4979L21.1968 54.7234L20.9175 54.9586L20.5742 55.3135L20.4964 55.3873L20.3951 55.2173L20.3021 54.7438L20.2508 54.4082L20.3926 54.2147L20.2261 53.6632L20.3401 53.3778L20.1651 53.1298L20.1554 52.932L20.0402 52.7161L20.0806 52.3527L19.9973 52.0769L19.9599 51.7873L19.9726 51.3319L19.9532 50.9364L19.87 50.6606L19.9562 50.2833L19.8772 49.8558L19.8397 49.5661L19.9676 49.3266L19.9024 48.945L19.9151 48.4897L19.8915 48.246L19.8764 47.6987L19.7015 47.4507L19.3847 47.3962L19.0306 47.0521L18.4985 47.1131L18.0859 47.2382L17.9761 47.3718L17.7704 47.685L17.794 47.9287L17.6896 48.4119L17.727 48.7015L17.8604 48.8116L17.9352 49.391L18.0281 49.8645L17.9558 50.2878L18.0903 50.8992L18.1416 51.2348L18.1971 51.4187L18.1719 52.3294L18.3885 52.7152L18.3662 52.9728L18.2437 53.5618L18.4368 53.704L18.4658 54.2972L18.5448 54.7248L18.5461 55.2261L18.4556 55.7552L18.6125 56.109L18.4985 56.3944L18.6137 56.6103L18.5872 57.0197L18.5426 57.5349L18.6355 58.0084L18.5354 58.3398L18.6102 58.9191L18.4546 59.0667L18.6392 59.5124L18.7044 59.894L18.5807 59.9816L18.5403 60.3451L18.4541 60.7224L18.5554 60.8924L18.6025 61.3798L18.5024 61.7111L18.6689 62.2627L18.3715 62.6037L18.4645 63.0772L18.3366 63.3167L18.4615 63.7303L18.4808 64.1258L18.4307 64.2915L18.3861 64.8067L18.2082 65.2118L18.2776 65.4417L18.1232 66.0905L18.3162 66.2326L18.084 66.9553L17.9936 67.4844L18.1546 67.6864L18.0587 67.866L17.9031 68.0135L18.1155 68.5511L17.8 68.998L17.8513 69.3336L17.7608 69.8627L17.4357 70.1118L17.6662 70.5436L17.405 70.673L17.3646 71.0364L17.2463 71.4736L16.8072 72.0081L16.9182 72.3758L16.7361 72.9327L16.4845 73.2598L16.4622 73.5174L16.3983 73.6372L16.1884 74.1022L16.2439 74.286L15.9284 74.7328L15.6087 75.3314L15.3113 75.6725L15.1098 75.8339L14.8764 76.0552L14.5193 76.3641L14.4553 76.4838L13.9468 76.7885L13.7911 76.9361L13.4563 76.9874L12.984 77.0804L12.6811 77.0719L12.3686 76.8656L11.9463 76.793L11.556 76.6605L11.2435 76.4542L10.9033 76.156L10.6046 75.9957L10.5033 75.8258L10.37 75.7157L10.3229 75.2283L9.95064 74.9899L9.7618 74.696L9.45773 74.1862L9.28276 73.9382L9.02999 73.764L9.13854 73.129L8.99555 72.8212L8.88874 72.3017L8.87908 72.104L8.80969 71.8742L8.92369 71.5888L8.82233 71.4188L8.68776 70.8074L8.88925 70.646L8.79632 70.1725L8.80053 70.0207L8.83672 69.809L9.02432 69.6017L8.95914 69.2201L9.13287 68.9667L9.23299 68.6353L9.25951 68.226L9.38739 67.9865L9.63472 67.8112L9.84463 67.3462L10.0184 67.0928L10.206 66.8854L10.4937 66.3467L10.6578 65.8956L10.8454 65.6882L10.8351 65.367L10.5509 65.3761L10.2674 65.7631L10.034 65.9844L9.75047 66.3713L9.49892 66.6985L9.21541 67.0854L9.13338 67.311L8.95965 67.5643L8.84986 67.6979L8.59411 68.1768L8.48977 68.66L8.34801 68.8535L8.30762 69.2169L8.23946 69.4884L7.87813 69.9492L7.89746 70.3447L7.84318 70.6621L7.78469 71.1314L7.76239 71.389L7.78171 71.7845L7.58568 72.2954L7.5495 72.5071L7.67861 72.769L7.8216 73.0768L7.91875 73.3985L7.91032 73.7021L8.27412 74.244L8.31154 74.5337L8.50459 74.6758L8.51426 74.8736L8.82255 75.2316L8.95587 75.3417L9.08499 75.6036L9.13629 75.9392L9.65572 76.3336L9.73899 76.6094L10.0237 76.7237L10.2126 77.0176L10.4973 77.132L10.9015 77.3104L11.1362 77.5905L11.4571 77.4932L11.7558 77.6535L11.9766 77.8876L12.4127 78.0062L13.1879 77.9216L13.5089 77.8243L13.9034 77.8051L14.5453 77.6105Z" fill="#08A045"/>
<path d="M48.3976 63.7348L48.6727 63.6514L48.952 63.4162L49.3049 63.2591L49.5704 62.9779L49.9233 62.8207L50.0831 62.5214L50.4082 62.2723L50.6556 62.097L50.8335 61.6919L51.2087 61.2771L51.4687 60.6464L52.3258 59.6702L52.4301 59.1871L52.3927 58.8974L52.4331 58.534L52.272 58.332L51.9734 58.1717L51.7176 58.6506L51.5994 59.0878L51.3798 59.355L51.2297 59.8521L50.6799 60.4342L50.1753 60.8379L50.0155 61.1372L49.7959 61.4045L49.5305 61.6856L49.3429 61.893L48.9719 62.156L48.7843 62.3634L48.4772 62.5066L47.9409 62.7194L47.5144 62.7985L47.1476 62.9097L46.7211 62.9889L46.3405 63.0541L45.9001 63.0873L45.6431 63.0649L45.2486 63.0841L44.9041 62.9377L44.6929 62.9014L44.3346 62.709L43.893 62.2409L43.429 62.0304L43.2999 61.7685L43.1986 61.5986L42.9138 61.4842L43.0278 61.1988L42.8752 60.6932L42.7461 60.4313L42.6905 60.2475L42.6392 59.9119L42.5379 59.7419L42.6199 59.5164L42.4298 58.7211L42.4564 58.3117L42.8231 58.2005L43.0801 58.223L43.2316 58.2272L43.4928 58.0979L43.8734 58.0326L44.3361 57.7418L44.8223 57.6947L45.1155 57.5055L45.2712 57.358L45.5505 57.1228L45.8255 57.0394L46.0867 56.91L46.3938 56.7668L46.5356 56.5733L46.8607 56.3242L47.14 56.089L47.3873 55.9137L47.85 55.6229L48.1016 55.2958L48.2614 54.9965L48.5087 54.8212L48.7464 54.4481L48.8465 54.1167L49.0939 53.9414L49.2398 53.5961L49.3816 53.4026L49.4316 53.237L49.6832 52.9098L49.8569 52.6565L49.9613 52.1733L50.1211 51.874L50.1796 51.4048L50.22 51.0413L50.2881 50.7698L50.2688 50.3743L50.1439 49.9607L49.8079 49.5107L49.5092 49.3504L49.2287 49.0843L48.944 48.9699L48.462 48.8652L48.2828 48.769L48.0855 48.7787L47.9341 48.7744L47.5757 48.582L47.1173 48.721L46.8005 48.6666L46.6491 48.6623L45.7696 49.23L45.664 49.2118L45.2194 49.3968L44.9305 49.4342L44.8165 49.7196L44.6608 49.8671L44.2301 50.0981L43.9731 50.0756L43.9647 50.3792L43.6896 50.4626L43.4061 50.8496L43.3102 51.0292L42.7932 51.6374L42.5555 52.0105L42.3541 52.1719L42.1345 52.4392L41.933 52.6006L41.9662 53.0421L41.93 53.2537L41.8619 53.5252L41.5186 53.8801L41.3769 54.0736L41.3865 54.2714L41.3642 54.529L41.0391 54.7781L41.1821 55.0859L40.9637 55.8545L40.8721 55.8823L41.0567 56.328L40.9288 56.5674L40.8287 56.8988L40.8842 57.0826L40.8396 57.5979L40.8311 57.9014L40.9964 57.9516L40.8963 58.283L40.8378 58.7523L40.9392 58.9222L41.1099 59.322L40.9778 59.7132L41.0153 60.0029L41.1999 60.4486L41.1637 60.6602L41.504 60.9584L41.5553 61.2941L41.6204 61.6757L41.9233 61.6842L42.1399 62.07L42.0759 62.1898L42.2008 62.6034L42.4216 62.8375L42.7106 62.8001L43.005 63.1121L43.2578 63.2864L43.4092 63.2906L43.5522 63.5984L43.8647 63.8047L43.9884 63.7171L44.4565 63.7758L44.6454 64.0697L45.0719 63.9906L45.508 64.1092L45.9303 64.1818L46.2512 64.0845L46.568 64.139L47.3932 63.8888L47.8336 63.8556L48.3976 63.7348ZM42.8846 57.0782L42.6499 56.7981L42.6541 56.6464L42.5751 56.2188L42.5835 55.9152L42.6698 55.5379L42.7379 55.2664L42.8881 54.7693L42.9104 54.5117L42.9605 54.346L43.0147 54.0286L43.1607 53.6833L43.2608 53.3519L43.5999 53.1488L43.6861 52.7715L43.8598 52.5181L44.103 52.4946L44.4643 52.0338L44.5324 51.7623L45.155 51.1722L45.5217 51.061L45.7455 50.642L46.1443 50.4709L46.4333 50.4335L46.9599 50.023L47.5975 49.9802L48.0976 49.9791L48.3685 50.0474L48.6949 50.2997L48.8976 50.6396L48.9447 51.127L48.8723 51.5503L48.7402 51.9415L48.5943 52.2868L48.4344 52.5861L48.2884 52.9314L48.0689 53.1986L47.877 53.5578L47.6714 53.871L47.31 54.3317L47.0265 54.7187L46.0149 55.6776L45.7217 55.8668L45.4008 55.9641L45.259 56.1576L44.9839 56.241L44.7963 56.4484L44.581 56.5639L44.2462 56.6152L44.0905 56.7627L43.7237 56.8739L43.5223 57.0354L43.2194 57.0268L42.8846 57.0782Z" fill="#08A045"/>
<path d="M55.622 79.1539L56.218 78.9732L56.7266 78.6685L56.671 78.4847L57.0879 78.2078L57.784 77.6957L57.8522 77.4242L58.3052 76.9357L58.8457 76.5711L58.8222 76.3274L58.9724 75.8304L59.3753 75.5075L59.5267 75.5118L59.7228 75.0008L59.7493 74.5914L60.1342 74.3744L60.2759 74.1809L60.6276 73.5224L60.9973 72.7581L61.1156 72.3209L61.2796 71.8698L61.4256 71.5246L61.8466 71.0959L61.951 70.6127L62.097 70.2675L62.211 69.982L62.2694 69.5128L62.5391 69.0799L62.7254 68.3712L62.8075 68.1456L62.7924 67.5983L63.1398 67.0916L63.1718 67.0318L63.2164 66.5166L63.4818 66.2354L63.2471 65.9554L63.4709 65.5363L63.3738 65.2146L63.3225 64.879L63.6337 64.5839L63.5366 64.2622L63.8159 64.027L63.9022 63.6497L64.0023 63.3183L64.0831 62.5914L64.1096 62.182L64.0444 61.8004L64.1403 61.6209L64.3502 61.1559L64.4323 60.9303L64.2531 60.8341L64.4533 60.1714L64.3659 60.0474L64.4063 59.684L64.4605 59.3665L64.487 58.9571L64.3386 58.2997L64.2873 57.9641L64.3138 57.5547L64.0375 57.1368L64.0598 56.8792L63.8752 56.4335L63.7503 56.0198L63.7171 55.5784L63.6519 55.1968L63.8256 54.9434L64.3064 54.5468L64.7371 54.3159L65.1081 54.0529L65.6486 53.6884L66.2531 53.2041L67.0151 52.8125L66.5511 52.602L66.1147 52.6159L65.6752 52.7419L64.6653 53.0834L64.1387 53.4939L63.8913 53.6693L63.7079 53.7249L63.3188 54.0937L62.7783 54.4582L62.309 53.8982L61.8674 53.43L61.5548 53.2238L61.3298 53.1415L60.9437 52.8572L60.5673 52.7706L60.2367 52.6702L59.6352 52.5014L58.7502 52.7195L57.9805 53.1536L57.7874 53.0114L58.2254 51.9756L58.3755 51.4785L58.6675 50.788L58.9552 50.2492L59.0414 49.8719L59.2236 49.315L59.3877 48.8639L59.4781 48.3348L59.5366 47.8655L59.6687 47.4743L59.6771 47.1707L59.6578 46.7752L59.808 46.2782L59.8387 45.717L59.925 45.3397L59.814 44.972L59.5793 44.6919L59.4682 44.3242L59.2613 44.1361L58.953 43.7781L58.5392 43.4019L58.2086 43.3014L57.9377 43.233L57.7308 43.0449L57.2765 43.0321L56.7167 43.0012L56.2763 43.0344L55.8039 43.1274L55.5705 43.3487L55.3412 43.4182L54.7965 43.9345L54.6367 44.2338L54.3073 44.6347L53.7723 45.3488L53.5207 45.6759L53.3247 46.1869L53.0593 46.468L52.8494 46.933L52.7076 47.1265L52.6214 47.5038L52.3837 47.8769L52.2836 48.2083L52.2751 48.5118L52.3904 48.7277L52.6764 49.3434L52.7596 49.6192L53.0999 49.9174L53.4347 49.866L53.9014 49.7578L53.9517 49.2578L53.8823 49.028L53.9782 48.8484L53.8116 48.2968L53.8798 48.0253L53.9522 47.602L54.0981 47.2568L54.2719 47.0034L54.4914 46.7362L54.6471 46.5886L54.7653 46.1514L55.1224 45.8425L55.3601 45.4694L55.5157 45.3219L55.7353 45.0546L55.877 44.8612L56.1883 44.5661L56.6926 44.4132L57.2108 44.3063L57.6928 44.411L58.1248 44.6814L58.3136 44.9753L58.444 45.7385L58.4175 46.1479L58.3728 46.6631L58.2227 47.1602L58.274 47.4958L58.1557 47.933L58.1334 48.1906L57.9054 48.7614L57.815 49.2905L57.7329 49.5161L57.587 49.8614L57.4229 50.3125L57.2546 50.9153L57.0586 51.4263L56.7208 52.1307L56.5525 52.7336L56.4343 53.1708L56.2745 53.4701L56.1605 53.7555L56.0423 54.1927L56.181 54.6523L56.3421 54.8543L56.5533 54.8907L57.5664 54.9339L57.9109 55.0804L58.104 55.2225L58.2735 55.1209L58.1079 54.5698L58.2496 54.3764L58.4233 54.123L58.836 53.9979L59.3125 53.7531L59.8446 53.6921L60.0696 53.7744L60.5794 53.971L60.8044 54.0533L61.053 54.3793L61.2322 54.4755L61.3474 54.6914L61.5682 54.9255L61.8126 55.4032L61.561 55.7304L60.9246 56.2745L60.7563 56.8774L60.2798 57.1222L60.1658 57.4076L59.8448 57.5049L59.7489 57.6845L59.4654 58.0715L59.2139 58.3986L58.9346 58.6338L58.5775 58.9427L58.2939 59.3297L57.9604 59.8823L57.7088 60.2094L57.5073 60.3709L57.3572 60.8679L56.8764 61.2645L56.7582 61.7017L56.4831 61.7851L56.3968 62.1625L56.1133 62.5494L55.5408 62.9739L55.6102 63.2037L55.2211 63.5725L54.7416 64.4704L54.4442 64.8114L54.3025 65.0049L54.1565 65.3502L53.9508 65.6634L53.7035 65.8387L53.6631 66.2021L53.499 66.6532L53.3211 67.0584L53.0653 67.5373L53.0527 67.9926L52.6998 68.1498L52.6774 68.4074L52.669 68.711L52.7481 69.1385L52.359 69.5073L52.3186 69.8708L52.2046 70.1562L52.2004 70.3079L52.0279 71.0626L52.0375 71.2604L51.7999 71.6334L51.897 71.9552L51.9622 72.3368L51.8343 72.5762L51.555 72.8114L51.4826 73.2347L51.6908 73.9241L51.3615 74.325L51.6281 74.5452L51.5696 75.0144L51.5654 75.1662L51.3694 75.6772L51.4388 75.907L51.5039 76.2886L51.6011 76.6103L51.7495 77.2677L51.8883 77.7273L52.3299 78.1954L52.6105 78.4615L52.8035 78.6037L53.0798 79.0216L53.291 79.0579L53.6493 79.2503L54.0119 79.2909L54.2411 79.2214L54.5717 79.3218L55.3053 79.0994L55.622 79.1539ZM55.3487 78.0829L54.6332 78.1995L54.1053 78.1087L53.8845 77.8746L53.4248 77.5123L53.1582 77.2921L52.9777 76.6946L52.9542 76.4509L52.9807 76.0415L52.7322 75.7155L52.7822 75.5498L52.7991 74.9427L52.8214 74.6851L52.9257 74.2019L52.8702 74.0181L52.8189 73.6824L52.8635 73.1672L52.9721 72.5323L52.925 72.0449L53.153 71.474L53.299 71.1288L53.2935 70.7792L53.3158 70.5216L53.4256 70.388L53.5939 69.7851L53.7121 69.3479L53.8539 69.1544L53.7845 68.9246L53.9944 68.4596L54.1584 68.0085L54.4781 67.4099L54.5644 67.0326L54.5228 66.8947L54.8382 66.4479L54.8105 66.3559L55.0065 65.845L55.1344 65.6055L55.4457 65.3105L55.6972 64.9834L55.7376 64.6199L55.8932 64.4724L56.117 64.0534L56.263 63.7081L56.6243 63.2474L56.9078 62.8604L57.265 62.5515L57.4568 62.1923L57.6763 61.925L57.8639 61.7177L58.0835 61.4504L58.317 61.2291L58.5088 60.87L58.7603 60.5428L59.1175 60.2339L59.2315 59.9485L59.3412 59.8149L59.8456 59.662L60.161 59.2151L60.2612 58.8838L60.5085 58.7084L60.8198 58.4134L60.9157 58.2338L61.2131 57.8928L61.5744 57.4321L61.8121 57.059L62.247 56.6763L62.472 56.7586L62.583 57.1262L62.7996 57.5121L62.9245 57.9258L63.0313 58.4452L63.1285 58.767L63.1798 59.1026L63.0977 59.3282L63.035 59.9492L62.9181 60.8877L62.8276 61.4168L62.7456 61.6424L62.6412 62.1255L62.5731 62.397L62.4784 63.0779L62.4839 63.4275L62.4073 64.0026L62.1057 64.4954L62.0375 64.7669L61.9971 65.1303L61.9887 65.4339L61.815 65.6872L61.669 66.0325L61.5966 66.4558L61.4923 66.9389L61.4519 67.3024L61.3518 67.6337L61.2794 68.057L61.0375 68.5819L60.9054 68.9731L60.6219 69.3601L60.5815 69.7235L60.5272 70.041L60.2854 70.5659L60.2311 70.8833L59.9934 71.2564L59.9391 71.5739L59.6695 72.0068L59.4916 72.4119L59.2859 72.7251L59.1719 73.0106L59.1037 73.2821L58.9716 73.6733L58.7436 74.2441L58.4963 74.4194L58.3045 74.7786L57.8792 75.3591L57.4039 76.1052L57.0926 76.4003L56.9328 76.6996L56.823 76.8332L56.4061 77.1101L56.2644 77.3036L55.6738 77.8338L55.3487 78.0829Z" fill="#08A045"/>
<path d="M86.9165 36.274L86.6679 35.948L86.5804 35.824L86.3874 35.6819L86.1026 35.5675L85.2878 35.3423L85.0351 35.1681L84.7087 34.9158L84.4058 34.9073L84.1072 34.747L83.7766 34.6466L83.3821 34.6658L83.0334 34.6712L82.8361 34.6809L82.1207 34.7974L81.9053 34.9129L81.5246 34.9781L81.401 35.0658L81.2634 35.1075L80.8007 35.3983L80.4617 35.6014L80.256 35.9146L79.917 36.1177L79.8169 36.4491L79.6751 36.6426L79.5195 36.7901L79.4374 37.0157L79.4013 37.2273L79.2456 37.3748L79.0858 37.6742L79.0176 37.9457L78.8759 38.1392L78.8077 38.4107L78.7577 38.5763L78.6159 38.7698L78.5936 39.0274L78.4518 39.2209L78.4018 39.3866L78.2739 39.6261L78.2558 39.7319L78.0097 40.4085L78.093 40.6843L77.9373 40.8318L77.8692 41.1033L77.9066 41.393L77.7787 41.6324L77.7426 41.8441L77.6605 42.0696L77.666 42.4192L77.6618 42.571L77.6117 42.7366L77.5948 43.3438L77.6365 43.4817L77.5406 43.6613L77.5822 43.7991L77.5557 44.2085L77.5195 44.4202L77.5889 44.65L77.6263 44.9397L77.5581 45.2112L77.6692 45.5789L77.7705 45.7488L77.776 46.0983L77.6801 46.2779L77.6897 46.4757L77.8188 46.7375L77.9715 47.2431L77.9214 47.4088L78.1561 47.6888L78.1338 47.9465L78.3727 48.0747L78.5157 48.3825L78.4795 48.5942L78.6128 48.7043L78.7697 49.0581L78.9169 49.2141L79.2433 49.4663L79.3766 49.5764L79.6113 49.8565L79.7627 49.8607L79.8502 49.9847L80.0572 50.1728L80.3322 50.0894L80.5711 50.2177L81.0254 50.2304L81.1448 50.2946L81.6269 50.3993L81.7367 50.2656L81.8881 50.2699L82.177 50.2325L82.2965 50.2966L82.9383 50.102L83.1398 49.9406L83.7497 49.8058L84.318 49.5332L84.5973 49.298L84.9502 49.1408L85.2156 48.8597L85.5685 48.7025L85.7283 48.4032L86.0535 48.1541L86.3008 47.9788L86.4788 47.5737L86.854 47.1589L87.1139 46.5282L88.161 45.5898L88.2653 45.1066L88.2279 44.817L88.2683 44.4535L88.1072 44.2515L87.8086 44.0912L87.5529 44.5701L87.4346 45.0073L87.2428 45.3665L86.8151 45.9468L86.4353 46.218L85.8206 46.7197L85.6607 47.019L85.4411 47.2862L85.1896 47.6134L85.002 47.8207L84.631 48.0837L84.4434 48.2911L84.1502 48.4803L83.8112 48.6835L83.4263 48.9005L83.0457 48.9657L82.7386 49.109L82.3302 49.0823L81.8578 49.1753L81.5134 49.0289L81.2703 49.0525L80.8202 48.8879L80.641 48.7917L80.3147 48.5395L79.9967 47.9837L79.8079 47.6898L79.6745 47.5797L79.5774 47.2579L79.476 47.088L79.3511 46.6743L79.3041 46.1869L79.1834 45.6215L79.2696 45.2441L79.021 44.9182L79.1351 44.6327L79.0102 44.2191L79.0783 43.9476L79.059 43.5521L79.0577 43.0508L79.0384 42.6553L79.2206 42.0984L79.1831 41.8087L79.2416 41.3394L79.4057 40.8883L79.4781 40.465L79.6144 39.922L79.8382 39.503L79.9703 39.1117L80.0565 38.7344L80.4124 37.9242L80.568 37.7766L80.714 37.4314L80.8419 37.1919L80.91 36.9204L81.0976 36.713L81.3769 36.4778L81.5506 36.2245L81.8119 36.0951L82.1967 35.8781L82.4718 35.7947L82.7149 35.7711L82.9442 35.7017L83.247 35.7102L83.5317 35.8245L83.8026 35.8929L84.1151 36.0992L84.7544 36.3431L85.0809 36.5987L85.5785 36.9807L85.8493 37.0491L86.0979 37.3751L86.3869 37.3376L86.6342 37.1623L86.9593 36.9132L87.0456 36.5359L86.9165 36.274Z" fill="#08A045"/>
<path d="M105.974 45.6313L105.745 45.7008L105.503 46.2256L105.379 46.3133L104.792 46.6593L103.751 47.2536L103.55 47.415L103.123 47.4942L102.77 47.6513L102.44 47.5509L102.123 47.4964L101.755 47.1063L101.304 46.4404L101.165 45.9808L100.925 45.3512L100.85 44.7719L100.876 44.3625L100.728 43.7051L100.771 42.6886L100.724 42.2011L100.759 41.4882L100.776 40.881L100.665 40.5133L100.733 40.2418L100.636 39.9201L100.686 39.7544L100.635 39.4188L100.639 39.267L100.634 38.9175L100.734 38.5861L100.591 38.2783L100.599 37.9747L100.653 37.6572L100.606 37.1698L100.642 36.9582L100.623 36.5627L100.516 36.0432L100.475 35.9053L100.455 35.5098L100.312 35.202L100.201 34.8343L99.9848 34.4484L99.7181 34.2283L99.4376 33.9621L99.0653 33.7238L98.675 33.5913L98.2208 33.5785L97.6887 33.6395L97.276 33.7646L96.7856 33.9634L96.0074 34.7011L95.7559 35.0282L95.5363 35.2954L95.4223 35.5808L94.9747 36.4189L94.7371 36.792L94.5091 37.3628L93.8154 38.8775L93.8196 38.7257L93.81 38.528L93.7948 37.9807L93.6603 37.3693L93.5577 36.698L93.3272 36.2662L92.9411 35.9819L92.8078 35.8718L92.5272 35.6057L92.1188 35.579L91.7605 35.3866L91.559 35.5481L91.0589 35.5492L90.7476 35.8442L90.5365 35.8079L90.2294 35.9512L90.0696 36.2505L89.7125 36.5594L89.4109 37.0522L89.1829 37.623L89.0369 37.9683L88.9368 38.2997L88.8047 38.6909L88.7045 39.0223L88.7878 39.2981L88.967 39.3942L89.3898 39.3807L89.5908 39.3055L89.8049 38.6887L90.0148 38.2237L90.1927 37.8186L90.6222 37.0863L90.8418 36.8191L91.1947 36.6619L91.4837 36.6245L91.7545 36.6929L92.0489 37.0049L92.2294 37.6024L92.2095 38.8627L92.2234 38.9086L92.3314 39.9295L92.291 40.2929L92.241 40.4586L92.2422 40.9599L92.3351 41.4334L92.235 41.7648L92.3014 42.6477L92.3111 42.8454L92.2761 43.5584L92.3009 44.3034L92.2479 45.1222L92.1894 45.5915L92.2226 46.0329L92.2878 46.4145L92.2474 46.778L92.2347 47.2333L92.1666 47.5048L92.2456 47.9324L92.2094 48.144L92.2288 48.5395L92.1884 48.903L92.2493 49.4363L92.3923 49.7442L92.8478 50.2583L93.1187 50.3266L93.4535 50.2753L93.8565 49.9525L93.9705 49.6671L93.9011 49.4372L94.0289 49.1978L94.0374 48.8942L93.8666 48.4945L93.764 47.8232L93.6808 47.5474L93.7393 47.0782L93.7935 46.7607L93.7006 46.2872L93.773 45.8639L93.7995 45.4545L93.8399 45.0911L93.8164 44.8474L93.8248 44.5438L93.8193 44.1943L93.8597 43.8308L93.9182 43.3616L93.8295 42.7363L94.0146 41.5262L94.233 40.7577L94.5249 40.0671L94.853 39.1649L95.0853 38.4423L95.3772 37.7518L95.4634 37.3745L95.911 36.5364L96.3321 36.1077L96.6518 35.5091L96.995 35.1542L97.5952 34.8217L98.3523 34.843L98.7982 35.1594L99.2078 35.6874L99.3466 36.147L99.3895 36.7862L99.4142 37.5312L99.4113 38.1843L99.4596 39.1731L99.4385 39.932L99.4494 40.631L99.4645 41.1783L99.4977 41.6198L99.435 42.2408L99.49 44.0804L99.5232 44.5219L99.551 44.6138L99.5661 45.1611L100.107 46.9536L100.296 47.2475L100.499 47.5874L101.042 48.2255L101.175 48.3356L101.818 48.6423L102.607 48.6037L102.823 48.4883L103.327 48.3354L103.849 48.0766L104.157 47.9334L104.514 47.6244L105.247 47.1734L105.757 46.9011L106.022 46.62L106.137 46.2858L106.121 45.7873L105.974 45.6313Z" fill="#08A045"/>
<path d="M121.048 37.3608L120.677 37.6238L120.001 37.7327L119.311 38.1211L119.032 38.3562L118.739 38.5455L118.537 38.7069L118.23 38.8502L118.061 38.9517L117.662 39.1228L117.511 39.1185L117.038 39.2116L116.768 39.1432L116.345 39.0705L116.286 39.0385L115.941 38.8921L115.812 38.6302L115.499 38.4239L115.434 38.0423L115.172 37.6704L115.13 37.5325L115.065 37.1509L114.926 36.6913L114.636 36.2274L114.672 36.0158L114.589 35.74L114.693 35.2568L114.532 35.0548L114.411 34.4894L114.576 34.0383L114.405 33.6385L114.477 33.2152L114.454 32.9715L114.586 32.5803L114.489 32.2586L114.525 32.0469L114.428 31.7252L114.56 31.3339L114.527 30.8925L114.397 30.6306L114.589 30.2714L114.662 29.8482L114.453 29.1587L114.522 28.8872L114.466 28.7034L114.584 28.2662L114.607 28.0086L114.647 27.6451L114.765 27.2079L114.604 27.0059L114.531 26.9279L114.585 26.6104L114.332 26.4362L114.139 26.2941L113.846 26.4833L113.469 26.3968L113.148 26.4941L112.672 26.7389L112.52 26.7346L112.259 26.864L111.841 26.6396L111.538 26.631L111.106 26.3606L110.712 26.3799L110.13 26.6066L109.813 26.5521L109.139 26.8066L108.745 26.8258L108.204 27.1904L107.975 27.2599L107.893 27.4854L107.677 27.6009L107.504 27.8542L107.224 28.0894L107.202 28.347L106.923 28.5822L106.777 28.9275L106.388 29.2963L106.274 29.5817L106.329 29.7656L105.972 30.0745L106.01 30.3642L105.804 30.6774L105.676 30.9168L105.424 31.244L105.586 31.446L105.366 31.7132L105.234 32.1044L105.106 32.3439L105.116 32.5416L105.052 32.6614L105.043 32.9649L104.842 33.1264L104.756 33.5037L104.825 33.7335L104.715 33.8671L104.647 34.1386L104.575 34.5619L104.525 34.7276L104.429 34.9072L104.374 35.2247L104.408 35.6661L104.202 35.9793L104.437 36.2594L104.492 36.4432L104.346 36.7885L104.278 37.06L104.256 37.3176L104.251 37.4694L104.335 37.7452L104.331 37.8969L104.382 38.2326L104.318 38.3523L104.236 38.5779L104.544 38.9359L104.448 39.1155L104.545 39.4372L104.702 39.791L104.726 40.0347L104.855 40.2966L104.97 40.5125L105.191 40.7466L105.274 41.0223L105.674 41.3526L105.863 41.6465L106.116 41.8207L106.337 42.0548L106.649 42.2611L107.053 42.4395L107.191 42.3978L107.751 42.4288L108.026 42.3454L108.131 42.3636L108.755 42.2748L109.108 42.1176L109.328 41.8504L109.465 41.8087L109.671 41.4955L109.826 41.3479L110.321 40.9973L110.449 40.7578L110.796 40.2511L111.204 39.7765L111.304 39.4451L111.477 39.1918L111.623 38.8465L111.756 38.4553L111.824 38.1838L111.842 38.0779L112.006 37.6269L112.106 37.2955L112.174 37.024L112.352 36.6188L112.516 36.1677L112.698 35.6108L112.693 35.2613L112.875 34.7044L113.104 34.6349L113.211 35.1544L113.29 35.5819L113.447 35.9357L113.512 36.3173L113.444 36.5888L113.651 36.7769L113.702 37.1125L113.648 37.43L113.933 37.5444L113.984 37.88L114.081 38.2017L114.362 38.4679L114.395 38.9093L114.721 39.1615L115.016 39.4736L115.268 39.6478L115.673 39.8263L116.017 39.9727L116.545 40.0635L116.696 40.0678L117.21 40.1126L117.426 39.9972L117.774 39.9918L118.081 39.8485L118.498 39.5716L118.773 39.4882L119.071 39.1472L119.378 39.004L119.533 38.8564L119.872 38.6533L120.927 38.4511L121.16 38.2298L121.458 37.8888L121.631 37.6355L121.443 37.3416L121.048 37.3608ZM112.524 28.2386L112.562 28.5282L112.641 28.9558L112.682 29.0937L112.77 29.2177L112.688 29.4432L112.643 29.9584L112.828 30.4042L112.582 31.0808L112.697 31.2967L112.752 31.4806L112.519 31.7018L112.419 32.0332L112.428 32.231L112.346 32.4565L112.324 32.7141L112.252 33.1374L112.106 33.4827L112.056 33.6484L111.997 34.1176L111.979 34.2234L111.957 34.4811L111.733 34.9001L111.729 35.0519L111.587 35.2454L111.583 35.3971L111.542 35.7606L111.351 36.1198L111.264 36.4971L111.118 36.8424L111 37.2796L110.858 37.473L110.85 37.7766L110.736 38.062L110.512 38.4811L110.394 38.9182L110.202 39.2774L109.887 39.7243L109.681 40.0375L109.521 40.3368L108.963 40.8071L108.697 41.0883L108.312 41.3053L107.693 41.2423L107.33 41.2017L107.008 40.7977L106.632 40.7112L106.566 40.3296L106.423 40.0217L106.157 39.8016L106.064 39.328L105.994 39.0982L105.865 38.8364L105.947 38.6108L105.928 38.2153L105.809 38.1512L105.725 37.8754L105.784 37.4062L105.696 37.2822L105.737 36.9188L105.745 36.6152L105.799 36.2977L105.899 35.9663L105.89 35.7686L105.807 35.4928L105.783 35.2491L105.911 35.0097L106.089 34.6045L106.083 34.255L106.279 33.7441L106.361 33.5185L106.613 33.1914L106.452 32.9894L106.612 32.6901L106.606 32.3405L106.826 32.0733L106.757 31.8435L107.044 31.3047L107.016 31.2128L107.13 30.9274L107.382 30.6003L107.482 30.2689L107.578 30.0893L107.766 29.8819L107.862 29.7024L108.127 29.4212L108.397 28.9883L108.543 28.643L108.818 28.5596L109.207 28.1908L109.528 28.0935L110.142 27.807L110.628 27.7599L110.798 27.6583L111.206 27.685L111.688 27.7897L111.913 27.872L112.303 28.0045L112.524 28.2386ZM139.649 34.0938L139.54 34.2274L139.366 34.4808L139.252 34.7662L139.046 35.0794L138.749 35.4204L138.639 35.554L138.155 35.6705L136.787 35.833L136.351 35.7144L135.937 35.3382L135.738 34.8465L135.545 34.7044L135.43 34.4884L135.402 34.3965L135.415 33.9412L135.262 33.4356L135.271 33.132L135.054 32.7462L134.957 32.4244L134.937 32.0289L134.896 31.891L134.964 31.6195L134.849 31.4036L134.853 31.2518L134.806 30.7644L134.731 30.1851L134.514 29.7992L134.545 29.2381L134.572 28.8287L134.415 28.4749L134.483 28.2034L134.459 27.9596L134.353 27.4402L134.347 27.0906L134.368 26.3317L134.257 25.964L134.288 25.4028L134.158 24.6396L134.533 23.993L134.344 23.6991L134.081 23.3271L133.87 23.2908L133.54 23.1904L133.269 23.122L132.746 23.3807L132.559 23.5881L132.196 23.9785L131.629 24.5533L131.493 25.0963L131.467 25.5057L131.175 26.1963L131.212 26.4859L131.016 26.9969L130.912 27.48L130.812 27.8114L130.753 28.2807L130.653 28.612L130.567 28.9894L130.444 29.5784L130.34 30.0615L130.141 31.2256L129.991 31.7226L129.996 32.0722L129.81 32.7809L129.765 33.2961L129.619 33.6414L129.497 34.2303L129.283 34.8471L128.973 35.6435L128.588 35.8605L128.271 35.806L128.036 35.526L127.81 34.9424L127.57 34.3128L127.467 33.6416L127.297 33.2418L127.186 32.8741L127.226 32.5107L126.995 32.0789L127.026 31.5177L126.901 31.104L126.808 30.6305L126.843 29.9175L126.737 29.3981L126.689 28.9106L126.463 28.327L126.398 27.9455L126.379 27.55L126.262 26.8327L126.601 26.1384L126.49 25.7707L126.283 25.5826L125.897 25.2983L125.387 25.1017L124.928 25.2407L124.603 25.4898L124.398 25.7317L124.18 25.945L123.831 26.431L123.496 27.1195L123.47 27.5289L123.397 27.9521L123.247 28.4492L123.298 28.7848L123.212 29.1622L123.122 29.6913L123.017 30.1744L123.005 30.6298L122.9 31.113L122.832 31.3845L122.802 31.9456L122.743 32.4149L122.73 32.8703L122.608 33.4592L122.54 33.7307L122.481 34.2L122.455 34.6094L122.401 34.9269L122.406 35.2764L122.278 35.5158L122.261 36.123L122.135 36.8638L122.016 37.3009L122.054 37.5906L121.904 38.0877L121.763 38.7825L121.687 39.3576L121.377 40.1539L120.966 41.2817L120.505 42.0738L119.864 42.7697L119.192 43.5255L119.418 44.1091L120.028 43.9743L120.912 43.2549L121.808 42.0801L122.196 41.2099L122.542 40.2019L122.792 39.3735L122.887 38.6926L123.005 38.2554L123.24 36.8797L123.253 36.4243L123.325 36.001L123.444 35.5638L123.474 35.0027L123.537 34.3816L123.641 33.8985L123.664 33.6409L123.722 33.1716L123.886 32.7205L123.839 32.2331L123.957 31.7959L124.066 31.1609L124.042 30.9172L124.205 29.9648L124.337 29.5736L124.286 29.238L124.408 28.649L124.471 28.0279L124.589 27.5907L124.74 27.0937L124.96 27.3278L125.035 27.9071L125.217 29.0059L125.25 29.4474L125.469 30.8359L125.498 31.4291L125.67 32.3302L125.866 33.475L126.024 34.3301L126.135 34.6978L126.172 34.9874L126.426 35.663L126.587 35.865L126.919 36.4667L127.186 36.6869L127.498 36.8932L127.769 36.9616L128.164 36.9423L128.512 36.9369L129.214 36.7744L129.837 36.1843L130.134 35.8433L130.216 35.6177L130.384 35.0148L130.498 34.7294L130.543 34.2142L130.601 33.7449L130.669 33.4734L130.815 33.1282L130.81 32.7786L130.896 32.4013L130.955 31.932L131.091 31.389L131.145 31.0716L131.154 30.768L131.354 30.1052L131.463 29.4703L131.545 29.2447L131.635 28.7156L131.703 28.4441L131.835 28.0529L131.884 27.3859L132.03 27.0406L132.102 26.6173L132.267 26.1662L132.508 25.6414L132.843 25.59L132.972 25.8519L132.966 27.1581L133.024 28.3446L133.123 29.1676L133.24 30.3862L133.256 30.9335L133.344 31.5588L133.461 32.276L133.591 33.0392L133.888 34.3539L134.124 35.1353L134.368 35.613L134.585 35.9989L135.072 36.4531L135.367 36.7652L135.592 36.8475L136.239 37.0024L136.574 36.9511L136.831 36.9735L137.028 36.9639L137.61 36.7372L138.105 36.3866L139.388 35.8789L139.561 35.6255L139.63 35.354L139.73 35.0227L139.866 34.4796L139.649 34.0938Z" fill="#08A045"/>
<path d="M154.037 27.2452L153.666 27.5082L153.403 27.7391L153.136 27.943L152.254 28.2841L151.96 28.4733L151.759 28.6347L151.452 28.778L151.282 28.8795L150.884 29.0506L150.732 29.0463L150.26 29.1394L149.989 29.071L149.567 28.9983L149.507 28.9663L149.163 28.8199L149.033 28.558L148.721 28.3517L148.656 27.9701L148.393 27.5982L148.352 27.4603L148.286 27.0787L148.148 26.6191L147.858 26.1552L147.894 25.9436L147.81 25.6678L147.915 25.1846L147.754 24.9826L147.633 24.4172L147.797 23.9661L147.626 23.5663L147.699 23.143L147.675 22.8993L147.807 22.5081L147.71 22.1864L147.746 21.9747L147.649 21.653L147.781 21.2617L147.748 20.8203L147.619 20.5584L147.811 20.1993L147.883 19.776L147.675 19.0865L147.743 18.815L147.688 18.6312L147.806 18.194L147.828 17.9364L147.868 17.5729L147.987 17.1357L147.826 16.9337L147.752 16.8557L147.806 16.5382L147.553 16.364L147.333 16.7326L147.531 16.6143L147.292 16.9508L146.88 17.4946L145.893 16.6667L145.742 16.6624L145.481 16.7918L145.063 16.5674L144.779 16.4241L144.328 16.2884L143.933 16.3077L143.351 16.5344L143.034 16.4799L142.361 16.7344L141.966 16.7536L141.426 17.1182L141.196 17.1877L141.114 17.4132L140.899 17.5287L140.725 17.7821L140.446 18.0172L140.424 18.2749L140.144 18.51L139.998 18.8553L139.609 19.2241L139.495 19.5095L139.551 19.6934L139.194 20.0023L139.231 20.292L139.025 20.6052L138.897 20.8447L138.646 21.1718L138.807 21.3738L138.587 21.641L138.455 22.0322L138.327 22.2717L138.337 22.4694L138.273 22.5892L138.265 22.8927L138.063 23.0542L137.977 23.4315L138.046 23.6613L137.937 23.7949L137.868 24.0664L137.796 24.4897L137.746 24.6554L137.65 24.835L137.596 25.1525L137.629 25.5939L137.423 25.9071L137.658 26.1872L137.714 26.371L137.568 26.7163L137.499 26.9878L137.477 27.2454L137.473 27.3972L137.556 27.673L137.552 27.8248L137.603 28.1604L137.539 28.2801L137.457 28.5057L137.766 28.8637L137.67 29.0433L137.767 29.365L137.924 29.7188L137.947 29.9625L138.076 30.2244L138.192 30.4403L138.412 30.6744L138.496 30.9501L138.896 31.2804L139.084 31.5743L139.337 31.7485L139.558 31.9826L139.871 32.1889L140.275 32.3674L140.412 32.3257L140.972 32.3566L141.247 32.2732L141.353 32.2914L141.977 32.2026L142.33 32.0454L142.549 31.7782L142.687 31.7365L142.892 31.4233L143.048 31.2757L143.543 30.9251L143.67 30.6856L144.018 30.1789L144.425 29.7043L144.525 29.3729L144.699 29.1196L144.845 28.7743L144.977 28.3831L145.045 28.1116L145.063 28.0058L145.227 27.5547L145.327 27.2233L145.396 26.9518L145.574 26.5466L145.738 26.0956L145.92 25.5386L145.914 25.1891L146.096 24.6322L146.326 24.5627L146.433 25.0822L146.512 25.5097L146.668 25.8635L146.734 26.2451L146.665 26.5166L146.872 26.7047L146.924 27.0403L146.869 27.3578L147.154 27.4722L147.205 27.8078L147.303 28.1295L147.583 28.3957L147.616 28.8371L147.943 29.0894L148.237 29.4014L148.49 29.5757L148.894 29.7541L149.239 29.9005L149.766 29.9913L149.918 29.9956L150.432 30.0404L150.647 29.925L150.996 29.9196L151.303 29.7763L151.72 29.4994L151.995 29.416L152.292 29.075L153.279 28.8796L153.435 28.7321L153.774 28.529L153.915 28.3355L154.149 28.1142L154.446 27.7732L154.62 27.5199L154.431 27.2259L154.037 27.2452ZM145.746 18.1664L145.783 18.4561L145.862 18.8836L145.904 19.0215L145.991 19.1455L145.909 19.371L145.865 19.8862L146.049 20.332L145.803 21.0086L145.918 21.2245L145.974 21.4084L145.74 21.6296L145.64 21.961L145.65 22.1588L145.568 22.3843L145.546 22.6419L145.473 23.0652L145.327 23.4105L145.277 23.5762L145.219 24.0454L145.201 24.1513L145.178 24.4089L144.955 24.8279L144.95 24.9797L144.809 25.1732L144.804 25.3249L144.764 25.6884L144.572 26.0476L144.486 26.4249L144.34 26.7702L144.222 27.2074L144.08 27.4008L144.071 27.7044L143.957 27.9898L143.734 28.4089L143.615 28.8461L143.424 29.2052L143.108 29.6521L142.902 29.9653L142.743 30.2646L142.184 30.7349L141.919 31.0161L141.534 31.2331L140.914 31.1701L140.552 31.1295L140.229 30.7255L139.853 30.639L139.788 30.2574L139.645 29.9495L139.378 29.7294L139.285 29.2559L139.216 29.026L139.087 28.7642L139.169 28.5386L139.149 28.1431L139.03 28.079L138.947 27.8032L139.005 27.334L138.918 27.21L138.958 26.8466L138.967 26.543L139.021 26.2255L139.121 25.8942L139.111 25.6964L139.028 25.4206L139.004 25.1769L139.132 24.9375L139.31 24.5323L139.305 24.1828L139.501 23.6719L139.583 23.4463L139.834 23.1192L139.673 22.9172L139.833 22.6179L139.828 22.2684L140.047 22.0011L139.978 21.7713L140.266 21.2325L140.238 21.1406L140.352 20.8552L140.604 20.5281L140.704 20.1967L140.8 20.0171L140.987 19.8097L141.083 19.6302L141.348 19.349L141.618 18.9161L141.764 18.5708L142.039 18.4874L142.428 18.1186L142.749 18.0213L143.363 17.7348L143.85 17.6877L144.019 17.5861L144.427 17.6128L144.909 17.7175L145.134 17.7998L145.525 17.9323L145.746 18.1664Z" fill="#08A045"/>
<path d="M156.973 22.5388L157.178 22.2255L157.334 22.078L157.233 21.9081L157.038 21.2646L156.804 20.9846L156.976 20.2299L156.786 19.4347L156.6 18.4876L156.709 17.8527L156.662 17.3653L156.776 17.0799L156.706 16.8501L156.627 16.4225L156.631 16.2707L156.708 15.6956L156.643 15.314L156.747 14.8309L156.558 14.537L156.636 14.4632L156.557 14.0356L156.524 13.5942L156.541 12.987L156.581 12.6236L156.462 12.5595L156.47 12.2559L156.634 11.8048L156.519 11.5889L156.348 11.1892L156.375 10.7798L156.469 10.0988L156.496 9.68946L156.413 9.41369L156.559 9.06842L156.585 8.65902L156.446 8.1994L156.496 8.03372L156.669 7.27905L156.554 7.06315L156.425 6.80128L156.621 6.29031L156.496 5.87666L156.669 5.62331L156.674 5.47153L156.627 4.98412L156.585 4.84623L156.657 4.42293L156.813 4.27541L156.656 3.92162L156.798 3.72813L156.649 3.07077L156.479 2.67101L156.758 2.43583L156.816 1.96657L156.719 1.64484L156.736 1.03769L156.721 0.490416L156.464 0.467989L155.982 0.36328L155.115 0.4756L154.897 1.24416L155.081 1.68989L154.967 1.97529L154.941 2.38469L155.134 2.52683L155.002 2.91806L155.177 3.16604L155.168 3.46961L155.088 4.19647L155.083 4.34825L155.135 4.68389L155.003 5.07513L155.155 5.5807L155.289 5.69079L155.102 6.39949L155.209 6.91897L155.031 7.3241L155.146 7.54001L155.249 8.21128L155.145 8.69443L155.2 8.87828L155.178 9.13589L155.349 9.53565L155.312 9.7473L155.378 10.1289L155.186 10.4881L155.265 10.9156L155.165 11.247L155.312 11.403L155.271 11.7665L155.319 12.2539L155.31 12.5575L155.233 13.1325L155.249 13.6798L155.314 14.0614L155.357 14.7006L155.422 15.0822L155.418 15.234L155.309 15.8689L155.438 16.1308L155.476 16.4205L155.505 17.0137L155.464 17.3771L155.521 18.0623L155.494 18.4717L155.504 18.6695L155.551 19.1569L155.658 19.6763L155.494 20.1274L155.537 20.7667L155.438 21.5993L155.577 22.059L155.656 22.4865L155.743 22.6105L156.106 22.6511L156.536 22.4202L156.973 22.5388ZM157.429 29.0227L157.52 28.4936L157.422 28.1719L157.435 27.7165L157.348 27.5925L157.392 27.0773L157.144 26.7513L156.859 26.637L156.57 26.6744L156.217 26.8316L155.759 26.9706L155.768 27.1683L155.59 27.5735L155.646 27.7573L155.739 28.2308L155.703 28.4425L155.933 28.8743L156.644 28.9095L156.897 29.0837L157.429 29.0227Z" fill="#08A045"/>
<path d="M12.8195 53.7873L12.9057 53.41L12.8502 53.2262L12.5974 53.052L12.3169 52.7858L11.935 52.3497L11.5725 52.3092L11.6726 51.9778L11.4922 51.3803L11.398 50.4055L11.4161 50.2996L11.3968 49.9041L11.6483 49.577L11.565 49.3013L11.9041 49.0981L11.8528 48.7625L11.9487 48.5829L12.1683 48.3157L12.4198 47.9886L12.7908 47.7256L13.2118 47.2969L13.2299 47.1911L13.6787 46.8543L13.9303 46.5272L14.4708 46.1627L15.0348 46.0418L15.5488 46.0867L15.8921 45.7318L16.3144 45.8044L16.5158 45.643L16.7451 45.5735L17.2772 45.5125L17.7037 45.4334L18.0523 45.428L18.3136 45.2986L18.5567 45.2751L18.8776 45.1778L19.4 44.9191L19.7903 45.0516L20.139 45.0462L20.4141 44.9628L20.7586 45.1092L21.0017 45.0857L21.4698 45.1444L21.6532 45.0888L22.0297 45.1753L22.6438 44.8888L22.9146 44.9572L23.13 44.8417L23.5801 45.0063L23.7634 44.9507L24.2135 45.1153L24.608 45.096L24.8095 44.9346L25.3736 44.8137L26.007 44.9227L26.2821 44.8393L26.5529 44.9077L27.0253 44.8146L27.3281 44.8232L27.7963 44.8819L28.3145 44.775L28.7132 44.6039L29.562 44.5974L29.7635 44.436L30.2914 44.5268L30.8415 44.36L31.1763 44.3087L31.475 44.469L31.782 44.3257L32.121 44.1226L32.3267 43.8094L32.5475 44.0434L32.9602 43.9183L33.2714 43.6233L33.441 43.5217L33.6841 43.4982L34.1981 43.543L34.4357 43.17L34.7567 43.0727L35.2387 43.1774L35.6416 42.8545L35.7279 42.4772L36.1821 42.49L36.5212 42.2868L36.5018 41.8913L36.9283 41.8122L37.134 41.499L37.3301 40.988L37.3246 40.6385L37.14 40.1928L36.9831 39.839L36.4818 39.3388L35.7011 39.0738L35.4942 38.8857L35.1733 38.983L35.4038 39.4148L35.5745 39.8145L35.5661 40.1181L35.4756 40.6472L35.1324 41.0021L34.9906 41.1956L34.6335 41.5046L34.1666 41.9472L33.6026 42.068L33.2774 42.3171L32.9106 42.4283L32.6953 42.5437L32.5077 42.7511L32.2229 42.6368L31.6589 42.7576L31.499 43.0569L31.3156 43.1125L30.9766 43.3157L30.4168 43.2847L29.9722 43.4697L29.5457 43.5488L29.1373 43.5221L28.6148 43.7809L28.1648 43.6163L27.3202 43.471L27.0313 43.5084L26.8479 43.564L26.5408 43.7073L26.2796 43.8367L25.7379 43.6999L25.1822 43.5172L24.8474 43.5685L24.4945 43.7257L24.1362 43.5333L23.7278 43.5066L23.4985 43.5761L23.1414 43.8851L22.9942 43.729L22.5261 43.6703L22.1774 43.6757L21.03 43.5218L20.3465 43.5786L19.8644 43.4738L19.7685 43.6534L19.2962 43.7465L18.9197 43.6599L18.4516 43.6012L18.0028 43.9379L17.6083 43.9572L17.3138 43.6451L17.0345 43.8803L16.8693 43.8301L16.4385 44.061L16.076 44.0204L15.9801 44.2L15.3382 44.3946L14.6728 44.3455L14.3699 44.337L14.0949 44.4204L13.8114 44.8074L13.1417 44.91L12.7985 45.2649L12.4498 45.2703L12.226 45.6894L11.8592 45.8006L11.8967 46.0902L11.5673 46.4911L11.113 46.4783L10.9852 46.7178L10.66 46.9668L10.5002 47.2662L10.2209 47.5013L10.2583 47.791L9.99707 47.9204L9.71778 48.1556L9.64962 48.4271L9.40774 48.9519L9.40353 49.1037L9.13389 49.5366L8.92398 50.0016L9.03922 50.2176L9.09051 50.5532L9.29745 50.7413L9.34874 51.0769L9.48752 51.5365L9.68602 52.0282L9.93459 52.3542L10.2929 52.5466L10.4776 52.9923L10.7623 53.1066L10.9928 53.5385L11.3192 53.7907L11.5623 53.7672L11.9526 53.8997L12.3013 53.8943L12.8195 53.7873ZM15.278 77.6751L15.3877 77.5415L15.6809 77.3522L16.0797 77.1812L16.5007 76.7525L16.6883 76.5451L17.0454 76.2362L17.2789 76.0149L17.5304 75.6878L17.718 75.4804L17.9376 75.2131L18.1934 74.7342L18.413 74.467L18.4811 74.1955L18.7465 73.9143L18.9884 73.3895L19.1483 73.0902L19.2345 72.7128L19.3165 72.4873L19.4945 72.0822L19.553 71.6129L19.7894 70.7385L19.9354 70.3932L20.0536 69.956L20.1857 69.5648L20.258 69.1415L20.2707 68.6862L20.4209 68.1891L20.4613 67.8257L20.5198 67.3564L20.5602 66.993L20.7242 66.5419L20.7966 66.1186L20.7773 65.7231L20.8997 65.1341L20.9859 64.7568L20.8152 64.357L20.9388 64.2694L20.8737 63.8878L21.0239 63.3907L21.092 63.1192L20.8893 62.7793L20.9617 62.356L20.9924 61.7948L20.9508 61.6569L21.0328 61.4314L20.9996 60.9899L21.0858 60.6126L21.2777 60.2534L21.35 59.8301L21.2571 59.3566L21.4586 59.1952L21.4767 59.0894L21.6226 58.7441L21.5074 58.5282L21.9646 57.8879L22.1926 57.3171L22.3344 57.1236L22.9527 56.6853L23.039 56.3079L23.1668 56.0685L23.46 55.8793L23.8491 55.5104L24.3076 55.3714L24.5591 55.0443L24.7009 54.8508L25.1135 54.7257L25.2914 54.3206L25.5888 53.9796L25.8181 53.9101L26.2488 53.6792L26.3447 53.4996L26.5281 53.444L26.9492 53.0153L27.284 52.964L27.6091 52.7149L27.8106 52.5535L28.076 52.2723L28.301 52.3546L28.961 52.0542L29.3278 51.943L29.4376 51.8094L29.7585 51.7121L30.0155 51.7345L30.3044 51.697L30.956 51.7002L31.3505 51.6809L31.5755 51.7632L32.0853 51.9598L32.5076 52.0325L33.3341 52.2836L33.8396 52.632L34.1063 52.8522L34.3132 53.0403L34.5521 53.1685L34.6674 53.3844L34.9479 53.6506L35.1506 53.9904L35.3395 54.2844L35.5325 54.4265L35.8728 54.7247L36.0477 54.9727L36.2324 55.4184L36.3114 55.846L36.4864 56.0939L36.6016 56.3098L36.8182 56.6957L36.8834 57.0773L37.036 57.5829L36.9818 57.9003L37.1344 58.4059L37.1218 58.8613L37.0675 59.1788L37.123 59.3626L37.0645 59.8319L36.9408 59.9195L36.8962 60.4347L36.8003 60.6143L36.746 60.9318L36.5404 61.245L36.6236 61.5208L36.6291 61.8703L36.6206 62.1739L36.269 62.8324L36.3522 63.1081L36.0645 63.6469L35.7394 63.896L35.7726 64.3374L35.4752 64.6784L35.3389 65.2215L35.1929 65.5667L34.9371 66.0456L34.8274 66.1792L34.6494 66.5844L34.3201 66.9853L34.1186 67.1467L33.8212 67.4877L33.6933 67.7271L33.382 68.0222L33.2041 68.4273L32.9345 68.8602L32.5037 69.0912L32.1786 69.3403L31.7298 69.677L31.6339 69.8566L31.2949 70.0597L30.8683 70.1389L30.7905 70.2126L30.5335 70.1902L30.25 70.5772L30.0389 70.5408L29.8513 70.7482L29.2275 70.837L28.9066 70.9343L28.5495 71.2433L28.1549 71.2625L27.6132 71.1258L27.2325 71.191L26.7825 71.0264L26.3602 70.9538L26.1671 70.8116L25.6935 70.4034L25.3074 70.1191L25.1964 69.7514L24.9521 69.2736L24.7258 68.69L24.5551 68.2902L24.3982 67.9365L24.3053 67.4629L24.2678 67.1733L24.304 66.9616L24.2346 66.7318L23.9444 66.2679L24.1501 65.9547L24.1127 65.6651L24.0711 65.5272L24.1018 64.966L24.1199 64.8602L24.0867 64.4187L24.191 63.9355L24.369 63.5304L24.6163 63.3551L24.5469 63.1253L24.7762 63.0558L24.8763 62.7244L25.3112 62.3417L25.5447 62.1204L25.9253 62.0552L25.8559 61.8254L25.8644 61.5218L25.3504 61.477L24.8044 61.492L24.3556 61.8287L24.0624 62.0179L23.9388 62.1056L23.797 62.2991L23.4719 62.5482L23.2843 62.7556L23.3356 63.0912L23.0424 63.2804L23.1395 63.6021L22.8741 63.8833L22.8796 64.2328L22.5822 64.5738L22.6612 65.0014L22.7083 65.4888L22.683 66.3995L22.826 66.7074L22.6704 66.8549L22.9509 67.121L22.8508 67.4524L22.9799 67.7143L23.0632 67.99L23.0366 68.3994L23.106 68.6292L23.3087 68.9691L23.4614 69.4747L23.4988 69.7644L23.6834 70.2101L24.107 70.7841L24.2638 71.1378L24.4388 71.3858L24.811 71.6242L25.3902 72.0506L25.868 72.3071L26.1527 72.4214L26.3639 72.4577L27.0112 72.6127L27.3599 72.6073L27.6766 72.6618L28.1212 72.4768L28.5435 72.5495L28.7269 72.4939L29.3048 72.419L29.6438 72.2159L30.0342 72.3484L30.2634 72.2789L30.8455 72.0522L31.0193 71.7989L31.2026 71.7433L31.675 71.6502L31.9724 71.3092L32.3114 71.1061L32.3934 70.8805L32.6643 70.9489L33.0395 70.5341L33.2869 70.3588L33.6995 70.2337L34.0108 69.9387L34.1748 69.4876L34.3069 69.0963L34.6278 68.999L34.8794 68.6719L34.985 68.6901L35.067 68.4645L35.406 68.2614L35.7354 67.8605L35.9869 67.5334L36.3718 67.3164L36.4665 66.6355L36.686 66.3683L36.8875 66.2068L37.0793 65.8477L37.1475 65.5762L37.3477 64.9134L37.3061 64.7755L37.5118 64.4623L37.7314 64.1951L37.9594 63.6243L37.9859 63.2149L37.9804 62.8653L38.3001 62.2667L38.3447 61.7515L38.4726 61.512L38.5269 61.1946L38.6451 60.7574L38.4605 60.3117L38.5745 60.0262L38.7386 59.5752L38.7331 59.2256L38.636 58.9039L38.4375 58.4122L38.6251 58.2048L38.5599 57.8232L38.3614 57.3316L38.4434 57.106L38.1213 56.702L37.9228 56.2103L37.895 56.1184L37.7381 55.7646L37.5493 55.4707L37.498 55.135L37.4244 55.057L37.2355 54.7631L36.987 54.4371L36.8398 54.281L36.5218 53.7252L36.1357 53.4409L35.6941 52.9728L35.4413 52.7986L35.0872 52.4544L34.94 52.2984L34.7608 52.2022L34.4205 51.904L34.14 51.6379L33.6164 51.3953L33.2858 51.2948L32.8816 51.1164L32.6427 50.9881L32.4315 50.9518L31.9634 50.8931L31.6467 50.8386L31.2286 50.6141L30.7285 50.6153L30.4896 50.487L30.2603 50.5565L29.7464 50.5117L29.242 50.6646L28.7516 50.8634L28.6418 50.9971L28.4584 51.0527L28.018 51.0858L27.8763 51.2793L27.5553 51.3766L27.1747 51.4419L26.6885 51.4889L26.3313 51.7979L25.8409 51.9968L25.406 52.3795L25.0808 52.6286L24.5487 52.6895L24.4347 52.9749L23.9944 53.0081L23.9123 53.2337L23.5413 53.4967L23.376 53.4464L23.262 53.7318L23.0563 54.045L22.7535 54.0365L22.5019 54.3636L22.2588 54.3872L22.0115 54.5625L21.9295 54.788L21.6502 55.0232L21.3069 55.3781L21.2291 55.4519L21.1278 55.282L21.0348 54.8084L20.9835 54.4728L21.1253 54.2793L20.9588 53.7278L21.0728 53.4424L20.8978 53.1944L20.8881 52.9967L20.7729 52.7807L20.8133 52.4173L20.73 52.1415L20.6926 51.8519L20.7053 51.3965L20.6859 51.001L20.6027 50.7253L20.6889 50.3479L20.6099 49.9204L20.5724 49.6307L20.7003 49.3912L20.6351 49.0096L20.6478 48.5543L20.6242 48.3106L20.6091 47.7633L20.4342 47.5153L20.1174 47.4609L19.7633 47.1167L19.2312 47.1777L18.8186 47.3028L18.7088 47.4364L18.5031 47.7496L18.5267 47.9933L18.4223 48.4765L18.4597 48.7661L18.5931 48.8762L18.6679 49.4556L18.7608 49.9291L18.6885 50.3524L18.823 50.9638L18.8743 51.2994L18.9298 51.4833L18.9046 52.394L19.1212 52.7798L19.0988 53.0374L18.9764 53.6264L19.1695 53.7686L19.1985 54.3618L19.2775 54.7894L19.2787 55.2907L19.1883 55.8198L19.3452 56.1736L19.2312 56.459L19.3464 56.6749L19.3199 57.0843L19.2753 57.5995L19.3682 58.073L19.2681 58.4044L19.3429 58.9838L19.1873 59.1313L19.3719 59.577L19.4371 59.9586L19.3134 60.0463L19.273 60.4097L19.1868 60.787L19.2881 60.957L19.3352 61.4444L19.2351 61.7758L19.4016 62.3273L19.1042 62.6683L19.1972 63.1418L19.0693 63.3813L19.1942 63.7949L19.2135 64.1904L19.1634 64.3561L19.1188 64.8713L18.9409 65.2765L19.0103 65.5063L18.8559 66.1551L19.0489 66.2973L18.8167 67.0199L18.7263 67.549L18.8873 67.751L18.7914 67.9306L18.6358 68.0781L18.8482 68.6157L18.5327 69.0626L18.584 69.3982L18.4935 69.9273L18.1684 70.1764L18.3989 70.6082L18.1376 70.7376L18.0973 71.101L17.979 71.5382L17.5399 72.0727L17.6509 72.4404L17.4688 72.9973L17.2172 73.3244L17.1949 73.582L17.131 73.7018L16.9211 74.1668L16.9766 74.3506L16.6611 74.7974L16.3414 75.3961L16.044 75.7371L15.8425 75.8985L15.6091 76.1198L15.2519 76.4287L15.188 76.5485L14.6795 76.8531L14.5238 77.0007L14.189 77.052L13.7167 77.1451L13.4138 77.1365L13.1013 76.9303L12.679 76.8576L12.2887 76.7251L11.9762 76.5188L11.636 76.2206L11.3373 76.0603L11.236 75.8904L11.1026 75.7803L11.0556 75.2929L10.6833 75.0546L10.4945 74.7606L10.1904 74.2508L10.0155 74.0028L9.76268 73.8286L9.87123 73.1937L9.72824 72.8858L9.62143 72.3663L9.61177 72.1686L9.54238 71.9388L9.65638 71.6534L9.55502 71.4834L9.42046 70.872L9.30824 70.5499L9.16495 70.2254L9.16916 70.0737L9.20535 69.862L9.39295 69.6546L9.32778 69.273L9.5015 69.0197L9.60163 68.6883L9.62815 68.2789L9.75603 68.0395L10.0034 67.8641L10.2133 67.3991L10.387 67.1458L10.5746 66.9384L10.8623 66.3997L11.0264 65.9486L11.214 65.7412L11.2864 65.3179L10.9196 65.4291L10.6361 65.8161L10.4026 66.0373L10.1191 66.4243L9.86756 66.7514L9.58404 67.1384L9.50201 67.3639L9.32829 67.6173L9.2185 67.7509L8.96274 68.2298L8.85841 68.713L8.71665 68.9065L8.67625 69.2699L8.6081 69.5414L8.24677 70.0021L8.26609 70.3976L8.57588 70.7267L8.51739 71.196L8.49508 71.4536L8.51441 71.8491L8.31837 72.3601L8.28219 72.5717L8.4113 72.8336L8.5543 73.1414L8.65144 73.4631L8.64301 73.7667L9.00681 74.3086L9.04423 74.5983L9.23728 74.7404L9.24695 74.9382L9.55524 75.2962L9.68857 75.4063L9.81768 75.6682L9.86898 76.0038L10.3884 76.3982L10.4717 76.674L10.7564 76.7883L10.9453 77.0822L11.23 77.1966L11.6342 77.3751L11.8689 77.6551L12.1898 77.5578L12.4885 77.7181L12.7093 77.9522L13.1454 78.0708L13.9206 77.9863L14.2416 77.889L14.6361 77.8697L15.278 77.6751Z" fill="#08A045"/>
<path d="M49.3962 63.7037L49.6713 63.6203L49.9506 63.3851L50.3035 63.228L50.5689 62.9468L50.9218 62.7896L51.0817 62.4903L51.4068 62.2413L51.6542 62.0659L51.8321 61.6608L52.2073 61.246L52.4673 60.6153L52.6995 59.8927L52.8038 59.4096L52.7664 59.1199L52.8068 58.7565L52.6457 58.5545L52.3471 58.3942L52.0913 58.8731L51.9731 59.3103L51.7536 59.5775L51.6034 60.0746L51.3796 60.4936L51.1739 60.8068L51.014 61.1061L50.7945 61.3734L50.529 61.6545L50.3414 61.8619L49.9705 62.1249L49.7828 62.3323L49.4758 62.4755L48.9395 62.6883L48.513 62.7674L48.1462 62.8786L47.7197 62.9578L47.339 63.023L46.8987 63.0562L46.6417 63.0338L46.2471 63.053L45.9027 62.9066L45.6915 62.8703L45.3332 62.6779L44.8916 62.2098L44.4276 61.9993L44.2985 61.7374L44.1972 61.5675L43.9124 61.4531L44.0264 61.1677L43.8738 60.6621L43.7446 60.4002L43.6891 60.2164L43.6378 59.8808L43.5365 59.7108L43.6185 59.4853L43.4284 58.69L43.455 58.2806L43.8217 58.1694L44.0787 58.1919L44.2301 58.1961L44.4914 58.0668L44.872 58.0015L45.3347 57.7107L45.8209 57.6636L46.1141 57.4744L46.2697 57.3269L46.549 57.0917L46.8241 57.0083L47.0853 56.8789L47.3924 56.7357L47.5341 56.5422L47.8593 56.2931L48.1386 56.0579L48.3859 55.8826L48.8486 55.5918L49.1001 55.2647L49.26 54.9654L49.5073 54.7901L49.745 54.417L49.8451 54.0856L50.0924 53.9103L50.2384 53.565L50.3802 53.3715L50.4302 53.2059L50.6818 52.8788L50.8555 52.6254L50.9598 52.1422L51.1197 51.8429L51.1782 51.3737L51.2186 51.0102L51.2867 50.7387L51.2674 50.3432L51.1425 49.9296L50.8065 49.4796L50.5078 49.3193L50.2273 49.0532L49.9425 48.9388L49.4605 48.8341L49.2814 48.7379L49.0841 48.7476L48.9327 48.7433L48.5743 48.5509L48.1158 48.6899L47.7991 48.6355L47.6477 48.6312L46.7682 49.1989L46.6626 49.1807L46.218 49.3657L45.929 49.4031L45.815 49.6885L45.6594 49.836L45.2287 50.067L44.9717 50.0445L44.9633 50.3481L44.6882 50.4315L44.4047 50.8185L44.3088 50.9981L43.7918 51.6063L43.5541 51.9794L43.3526 52.1408L43.1331 52.4081L42.9316 52.5695L42.9648 53.011L42.9286 53.2226L42.8605 53.4941L42.5172 53.849L42.3755 54.0425L42.3851 54.2403L42.3628 54.4979L42.0377 54.747L42.1807 55.0548L41.9623 55.8234L41.8706 55.8512L42.0553 56.2969L41.9274 56.5363L41.8273 56.8677L41.8828 57.0515L41.8382 57.5668L41.8297 57.8703L41.995 57.9205L41.8949 58.2519L41.8364 58.7212L41.9378 58.8911L42.1085 59.2909L41.9764 59.6821L42.0138 59.9718L42.1985 60.4175L42.1623 60.6291L42.5025 60.9273L42.5538 61.263L42.619 61.6446L42.9219 61.6531L43.1385 62.0389L43.0745 62.1587L43.1994 62.5723L43.4202 62.8064L43.7092 62.769L44.0036 63.081L44.2564 63.2553L44.4078 63.2595L44.5508 63.5673L44.8633 63.7736L44.987 63.686L45.4551 63.7447L45.6439 64.0386L46.0704 63.9595L46.5066 64.0781L46.9289 64.1507L47.2498 64.0534L47.5665 64.1079L48.3918 63.8577L48.8322 63.8245L49.3962 63.7037ZM43.8832 57.0471L43.6485 56.767L43.6527 56.6153L43.5737 56.1877L43.5821 55.8841L43.6684 55.5068L43.7365 55.2353L43.8867 54.7382L43.909 54.4806L43.9591 54.3149L44.0133 53.9975L44.1593 53.6522L44.2594 53.3208L44.5985 53.1177L44.6847 52.7404L44.8584 52.487L45.1015 52.4635L45.4629 52.0027L45.531 51.7312L46.1536 51.1411L46.5203 51.0299L46.7441 50.6109L47.1429 50.4398L47.4318 50.4024L47.9585 49.9919L48.5961 49.9491L49.0962 49.948L49.3671 50.0163L49.6935 50.2686L49.8962 50.6085L49.9433 51.0959L49.8709 51.5192L49.7388 51.9104L49.5928 52.2557L49.433 52.555L49.287 52.9003L49.0675 53.1675L48.8756 53.5267L48.6699 53.8399L48.3086 54.3006L48.0251 54.6876L47.0135 55.6465L46.7203 55.8357L46.3994 55.933L46.2576 56.1265L45.9825 56.2099L45.7949 56.4173L45.5796 56.5328L45.2447 56.5841L45.0891 56.7316L44.7223 56.8428L44.5209 57.0043L44.218 56.9957L43.8832 57.0471Z" fill="#08A045"/>
<path d="M56.6206 79.1228L57.2166 78.9421L57.7251 78.6374L57.6696 78.4536L58.0865 78.1767L58.7826 77.6646L58.8508 77.3931L59.3038 76.9046L59.8443 76.54L59.8208 76.2963L59.9709 75.7993L60.3739 75.4764L60.5253 75.4807L60.7214 74.9697L60.7479 74.5603L61.1327 74.3433L61.2745 74.1498L61.6262 73.4913L61.9959 72.727L62.1141 72.2898L62.2782 71.8387L62.4242 71.4935L62.8452 71.0648L62.9496 70.5816L63.0955 70.2364L63.2095 69.9509L63.268 69.4817L63.5377 69.0488L63.724 68.3401L63.8061 68.1145L63.791 67.5672L64.1384 67.0605L64.1704 67.0007L64.215 66.4855L64.4804 66.2043L64.2457 65.9243L64.4695 65.5052L64.3724 65.1835L64.3211 64.8479L64.6323 64.5528L64.5352 64.2311L64.8145 63.9959L64.9007 63.6186L65.0009 63.2872L65.0817 62.5603L65.1082 62.1509L65.043 61.7693L65.1389 61.5898L65.3488 61.1248L65.4309 60.8992L65.2517 60.803L65.4519 60.1403L65.3644 60.0163L65.4048 59.6529L65.4591 59.3354L65.4856 58.926L65.3372 58.2686L65.2859 57.933L65.3124 57.5236L65.0361 57.1057L65.0584 56.8481L64.8738 56.4024L64.7489 55.9887L64.7157 55.5473L64.6505 55.1657L64.8242 54.9123L65.305 54.5157L65.7357 54.2848L66.1067 54.0218L66.6472 53.6573L67.2517 53.173L67.3379 52.7956L66.874 52.5851L66.4614 52.7102L66.3057 52.8577L65.6639 53.0523L65.1372 53.4629L64.8899 53.6382L64.7065 53.6938L64.3174 54.0626L63.7769 54.4271L63.3076 53.8671L62.8659 53.3989L62.5534 53.1927L62.3284 53.1104L61.9423 52.8261L61.5659 52.7395L61.2353 52.6391L60.6338 52.4703L59.7488 52.6884L58.9791 53.1225L58.786 52.9803L59.2239 51.9445L59.3741 51.4474L59.6661 50.7569L59.9538 50.2181L60.04 49.8408L60.2222 49.2839L60.3863 48.8328L60.4767 48.3037L60.5352 47.8344L60.6673 47.4432L60.6757 47.1396L60.6564 46.7441L60.8066 46.2471L60.8373 45.6859L60.9236 45.3086L60.8125 44.9409L60.5779 44.6608L60.4668 44.2931L60.2599 44.105L59.9516 43.747L59.5377 43.3708L59.2071 43.2703L58.9363 43.2019L58.7293 43.0138L58.2751 43.001L57.7153 42.9701L57.2749 43.0033L56.8025 43.0963L56.5691 43.3176L56.3398 43.3871L55.7951 43.9034L55.6353 44.2027L55.3059 44.6036L54.7708 45.3177L54.5193 45.6448L54.3233 46.1558L54.0578 46.4369L53.8479 46.9019L53.7062 47.0954L53.6199 47.4727L53.3823 47.8458L53.2821 48.1772L53.2737 48.4807L52.8207 48.6936L53.1067 49.3093L53.1899 49.585L53.5302 49.8832L53.865 49.8319L54.1902 49.5828L54.382 49.2236L54.3126 48.9938L54.4085 48.8142L54.6079 48.4087L54.8784 47.9942L54.9507 47.5709L55.0967 47.2257L55.2704 46.9723L55.49 46.7051L55.6457 46.5575L55.7639 46.1203L56.121 45.8114L56.3587 45.4383L56.5143 45.2908L56.7339 45.0236L56.8756 44.8301L57.1869 44.535L57.6912 44.3821L58.2094 44.2752L58.6914 44.3799L59.1234 44.6503L59.3122 44.9442L59.4426 45.7074L59.416 46.1168L59.3714 46.632L59.2212 47.1291L59.2725 47.4647L59.1543 47.9019L59.132 48.1595L58.904 48.7303L58.8136 49.2594L58.7315 49.485L58.5856 49.8303L58.4215 50.2814L58.2532 50.8842L58.0572 51.3952L57.7194 52.0996L57.5511 52.7025L57.4329 53.1397L57.2731 53.439L57.1591 53.7244L57.0408 54.1616L57.1796 54.6212L57.3407 54.8232L57.5518 54.8596L57.8088 54.882L58.1533 55.0284L58.3464 55.1705L58.5159 55.069L59.1064 54.5387L59.2482 54.3453L59.4219 54.0919L59.8346 53.9668L60.3111 53.722L60.8432 53.661L61.0682 53.7433L61.578 53.9399L61.803 54.0222L62.0516 54.3482L62.2308 54.4444L62.346 54.6603L62.5668 54.8944L62.8112 55.3721L62.5596 55.6993L61.9232 56.2434L61.7549 56.8463L61.2784 57.0911L61.1644 57.3765L60.8434 57.4738L60.7475 57.6534L60.464 58.0404L60.2125 58.3675L59.9332 58.6027L59.576 58.9116L59.2925 59.2986L58.9589 59.8512L58.7074 60.1783L58.5059 60.3398L58.3557 60.8368L57.875 61.2334L57.7567 61.6706L57.4817 61.754L57.3954 62.1314L57.1119 62.5183L56.5394 62.9428L56.6088 63.1726L56.2197 63.5414L55.7402 64.4393L55.4428 64.7803L55.301 64.9738L55.1551 65.3191L54.9494 65.6323L54.702 65.8076L54.6616 66.171L54.4976 66.6221L54.3196 67.0273L54.0639 67.5062L54.0512 67.9615L53.6983 68.1187L53.676 68.3763L53.6676 68.6799L53.7467 69.1074L53.3576 69.4762L53.3172 69.8397L53.2032 70.1251L53.199 70.2768L53.0265 71.0315L53.0361 71.2293L52.7985 71.6023L52.8956 71.9241L52.9608 72.3057L52.8329 72.5451L52.5536 72.7803L52.4812 73.2036L52.6894 73.893L52.36 74.2939L52.6267 74.5141L52.5682 74.9833L52.564 75.1351L52.368 75.6461L52.4374 75.8759L52.5025 76.2575L52.5997 76.5792L52.7481 77.2366L52.8869 77.6962L53.3285 78.1643L53.609 78.4304L53.8021 78.5726L54.0784 78.9905L54.2896 79.0268L54.6479 79.2192L55.0105 79.2598L55.2397 79.1903L55.5703 79.2907L56.3039 79.0683L56.6206 79.1228ZM56.3472 78.0518L55.6318 78.1684L55.1039 78.0776L54.8831 77.8435L54.4234 77.4812L54.1567 77.261L53.9763 76.6635L53.9528 76.4198L53.9793 76.0104L53.7307 75.6844L53.7808 75.5187L53.7977 74.9116L53.82 74.654L53.9243 74.1708L53.8688 73.987L53.8175 73.6513L53.8621 73.1361L53.9707 72.5012L53.9236 72.0138L54.1516 71.4429L54.2975 71.0977L54.2921 70.7481L54.3144 70.4905L54.4242 70.3569L54.5925 69.754L54.7107 69.3168L54.8524 69.1233L54.7831 68.8935L54.993 68.4285L55.157 67.9774L55.4767 67.3788L55.563 67.0015L55.5213 66.8636L55.8368 66.4168L55.8091 66.3248L56.0051 65.8139L56.133 65.5744L56.4442 65.2794L56.6958 64.9523L56.7362 64.5889L56.8918 64.4413L57.1156 64.0223L57.2616 63.677L57.6229 63.2163L57.9064 62.8293L58.2635 62.5204L58.4554 62.1612L58.6749 61.8939L58.8625 61.6866L59.0821 61.4193L59.3156 61.198L59.5074 60.8389L59.7589 60.5117L60.116 60.2028L60.23 59.9174L60.3398 59.7838L60.8441 59.6309L61.1596 59.184L61.2598 58.8527L61.5071 58.6773L61.8183 58.3823L61.9143 58.2027L62.2116 57.8617L62.573 57.401L62.8106 57.0279L63.2456 56.6452L63.4706 56.7275L63.5816 57.0951L63.7982 57.481L63.9231 57.8947L64.0299 58.4141L64.1271 58.7359L64.1784 59.0715L64.0963 59.2971L64.0336 59.9181L63.9167 60.8566L63.8262 61.3857L63.7442 61.6113L63.6398 62.0944L63.5717 62.3659L63.477 63.0468L63.4824 63.3964L63.4059 63.9715L63.1043 64.4643L63.0361 64.7358L62.9957 65.0992L62.9873 65.4028L62.8136 65.6561L62.6676 66.0014L62.5952 66.4247L62.4909 66.9078L62.4505 67.2713L62.3504 67.6026L62.278 68.0259L62.0361 68.5508L61.904 68.942L61.6205 69.329L61.5801 69.6924L61.5258 70.0099L61.2839 70.5348L61.2297 70.8522L60.992 71.2253L60.9377 71.5428L60.6681 71.9757L60.4902 72.3808L60.2845 72.694L60.1705 72.9795L60.1023 73.251L59.9702 73.6422L59.7422 74.213L59.4949 74.3883L59.3031 74.7475L58.8778 75.328L58.4025 76.0741L58.0912 76.3692L57.9313 76.6685L57.8216 76.8021L57.4047 77.079L57.263 77.2725L56.6724 77.8027L56.3472 78.0518Z" fill="#08A045"/>
<path d="M87.2794 36.1138L87.0309 35.7878L86.9434 35.6638L86.7504 35.5217L86.4656 35.4074L86.2864 35.3112L86.0337 35.137L85.7073 34.8847L85.4044 34.8762L85.1058 34.7159L84.7752 34.6155L84.3807 34.6347L84.032 34.6401L83.8347 34.6497L83.1192 34.7663L82.9039 34.8818L82.5232 34.947L82.3996 35.0347L82.262 35.0764L81.7993 35.3672L81.4603 35.5703L81.2546 35.8835L80.9156 36.0866L80.8155 36.418L80.6737 36.6115L80.5181 36.759L80.436 36.9846L80.3999 37.1962L80.2442 37.3437L80.0844 37.6431L80.0162 37.9146L79.8745 38.108L79.8063 38.3796L79.7563 38.5452L79.6145 38.7387L79.5922 38.9963L79.4504 39.1898L79.4004 39.3555L79.2725 39.595L79.2544 39.7008L79.0083 40.3774L79.0916 40.6532L78.9359 40.8007L78.8678 41.0722L78.9052 41.3619L78.7773 41.6013L78.7411 41.813L78.6591 42.0385L78.6646 42.3881L78.6603 42.5399L78.6103 42.7055L78.5934 43.3127L78.6351 43.4506L78.5392 43.6302L78.5808 43.768L78.5543 44.1774L78.5181 44.3891L78.5875 44.6189L78.6249 44.9086L78.5567 45.1801L78.6678 45.5478L78.7691 45.7177L78.7746 46.0672L78.6787 46.2468L78.6883 46.4446L78.8174 46.7064L78.9701 47.212L78.92 47.3777L79.1547 47.6577L79.1324 47.9154L79.3713 48.0436L79.5143 48.3514L79.4781 48.5631L79.6114 48.6732L79.7683 49.027L79.9155 49.183L80.2419 49.4352L80.3752 49.5453L80.6099 49.8253L80.7613 49.8296L80.8488 49.9536L81.0558 50.1417L81.3308 50.0583L81.5697 50.1866L82.024 50.1993L82.1434 50.2635L82.6255 50.3682L82.7352 50.2345L82.8867 50.2388L83.1756 50.2014L83.2951 50.2655L83.9369 50.0709L84.1384 49.9095L84.7483 49.7747L85.3166 49.5021L85.5959 49.2669L85.9488 49.1097L86.2142 48.8286L86.5671 48.6714L86.727 48.3721L87.0521 48.123L87.2994 47.9477L87.4774 47.5426L87.8526 47.1278L88.1126 46.4971L88.3448 45.7745L88.4491 45.2914L88.4117 45.0017L88.4521 44.6383L88.291 44.4362L87.9924 44.2759L87.7366 44.7548L87.6184 45.192L87.4266 45.5512L87.2764 46.0483L87.0249 46.3754L86.8192 46.6886L86.6593 46.9879L86.4397 47.2551L86.1882 47.5822L86.0006 47.7896L85.6296 48.0526L85.442 48.26L85.1488 48.4492L84.8098 48.6524L84.4249 48.8694L84.0443 48.9346L83.7372 49.0779L83.3288 49.0512L82.8564 49.1442L82.512 48.9978L82.2689 49.0214L81.8188 48.8568L81.6396 48.7606L81.3133 48.5084L80.9953 47.9526L80.8065 47.6587L80.6731 47.5486L80.576 47.2268L80.4746 47.0569L80.3497 46.6432L80.3026 46.1558L80.182 45.5904L80.2682 45.213L80.0196 44.887L80.1336 44.6016L80.0087 44.188L80.0769 43.9165L80.0576 43.521L80.0563 43.0197L80.037 42.6242L80.2192 42.0672L80.1817 41.7776L80.2402 41.3083L80.4043 40.8572L80.4767 40.4339L80.613 39.8909L80.8368 39.4719L80.9689 39.0806L81.0551 38.7033L81.411 37.893L81.5666 37.7455L81.7126 37.4003L81.8405 37.1608L81.9086 36.8893L82.0962 36.6819L82.3755 36.4467L82.5492 36.1934L82.8104 36.064L83.1953 35.847L83.4704 35.7636L83.7135 35.74L83.9428 35.6705L84.2456 35.6791L84.5303 35.7934L84.8012 35.8618L85.1137 36.0681L85.4123 36.2284L85.6929 36.4945L85.9414 36.8205L86.2123 36.8889L86.4609 37.2149L86.7498 37.1774L86.9972 37.0021L87.3223 36.753L87.4086 36.3757L87.2794 36.1138Z" fill="#08A045"/>
<path d="M106.031 45.8306L105.802 45.9001L105.56 46.425L105.436 46.5127L105.23 46.8259L104.75 47.2225L104.548 47.3839L104.122 47.4631L103.769 47.6202L103.438 47.5198L103.121 47.4653L102.753 47.0752L102.302 46.4093L102.163 45.9497L101.923 45.3201L101.848 44.7408L101.875 44.3314L101.727 43.674L101.77 42.6575L101.723 42.17L101.758 41.4571L101.775 40.8499L101.664 40.4822L101.732 40.2107L101.635 39.889L101.685 39.7233L101.633 39.3877L101.638 39.2359L101.632 38.8864L101.732 38.555L101.589 38.2472L101.598 37.9436L101.652 37.6261L101.605 37.1387L101.641 36.9271L101.622 36.5316L101.515 36.0121L101.473 35.8742L101.454 35.4787L101.311 35.1709L101.2 34.8032L100.983 34.4173L100.717 34.1972L100.436 33.931L100.064 33.6927L99.6736 33.5602L99.2194 33.5474L98.6873 33.6084L98.2747 33.7335L97.7842 33.9323L97.006 34.67L96.7545 34.9971L96.5349 35.2643L96.4209 35.5497L95.9733 36.3878L95.7357 36.7609L95.1164 37.1357L94.814 38.8464L94.8182 38.6946L94.8086 38.4969L94.7934 37.9496L94.6589 37.3382L94.5563 36.6669L94.3258 36.2351L93.9397 35.9508L93.8064 35.8407L93.5258 35.5746L93.1174 35.5479L92.7591 35.3555L92.5576 35.517L92.0575 35.5181L91.7462 35.8131L91.5351 35.7768L91.228 35.9201L91.0682 36.2194L90.7111 36.5283L90.4095 37.0211L90.1814 37.5919L89.4654 38.0162L89.3652 38.3476L89.2331 38.7388L89.133 39.0702L89.2163 39.346L89.3955 39.4422L89.7719 39.5287L90.5894 39.2744L90.8035 38.6576L91.0134 38.1926L91.1913 37.7875L91.6208 37.0552L91.8404 36.788L92.1933 36.6308L92.4823 36.5934L92.7531 36.6617L93.0475 36.9738L93.2279 37.5713L93.2081 38.8316L93.222 38.8775L93.33 39.8984L93.2896 40.2618L93.2396 40.4275L93.2408 40.9288L93.3337 41.4023L93.2336 41.7337L93.3 42.6166L93.3097 42.8143L93.2747 43.5273L93.2995 44.2723L93.2465 45.0911L93.188 45.5604L93.2212 46.0018L93.2864 46.3834L93.246 46.7469L93.2333 47.2022L93.1652 47.4737L93.2442 47.9013L93.208 48.1129L93.2274 48.5084L93.187 48.8718L93.2479 49.4052L93.3909 49.7131L93.8464 50.2272L94.1173 50.2955L94.4521 50.2442L94.8551 49.9214L94.9691 49.6359L94.8997 49.4061L95.0275 49.1667L95.036 48.8631L94.8652 48.4634L94.7626 47.7921L94.6794 47.5163L94.7379 47.0471L94.7921 46.7296L94.6992 46.2561L94.7716 45.8328L94.7981 45.4234L94.8385 45.06L94.8149 44.8163L94.8234 44.5127L94.8179 44.1631L94.8583 43.7997L94.9168 43.3305L94.8281 42.7052L95.0132 41.4951L95.2316 40.7266L95.5235 40.036L95.8516 39.1338L96.0838 38.4112L96.3758 37.7207L96.462 37.3434L96.9096 36.5053L97.3307 36.0766L97.6504 35.478L97.9936 35.1231L98.5938 34.7906L99.3509 34.8119L99.7968 35.1283L100.206 35.6563L100.345 36.1159L100.388 36.7551L100.413 37.5001L100.41 38.1532L100.458 39.142L100.437 39.9009L100.448 40.5999L100.463 41.1472L100.496 41.5887L100.434 42.2097L100.489 44.0493L100.522 44.4908L100.55 44.5827L100.565 45.13L101.106 46.9225L101.295 47.2164L101.497 47.5563L102.04 48.1944L102.174 48.3045L102.817 48.6112L103.606 48.5726L103.821 48.4572L104.326 48.3043L104.848 48.0455L105.155 47.9023L105.512 47.5933L105.686 47.34L105.814 47.1005L106.079 46.8194L106.178 45.9867L106.031 45.8306Z" fill="#08A045"/>
<path d="M121.134 37.3384L120.763 37.6014L120.603 37.9007L120.31 38.09L120.031 38.3251L119.738 38.5144L119.536 38.6758L119.229 38.8191L119.06 38.9206L118.661 39.0917L118.509 39.0874L118.037 39.1805L117.766 39.1121L117.344 39.0394L117.284 39.0074L116.94 38.861L116.811 38.5991L116.498 38.3928L116.433 38.0112L116.17 37.6393L116.129 37.5014L116.064 37.1198L115.925 36.6602L115.635 36.1963L115.671 35.9847L115.588 35.7089L115.692 35.2257L115.531 35.0237L115.41 34.4583L115.574 34.0072L115.403 33.6074L115.476 33.1841L115.452 32.9404L115.584 32.5492L115.487 32.2275L115.523 32.0158L115.426 31.6941L115.558 31.3028L115.525 30.8614L115.396 30.5995L115.588 30.2403L115.66 29.817L115.452 29.1276L115.52 28.8561L115.465 28.6723L115.583 28.2351L115.605 27.9775L115.646 27.614L115.764 27.1768L115.603 26.9748L115.529 26.8968L115.583 26.5793L115.331 26.4051L115.138 26.263L114.844 26.4522L114.468 26.3657L114.147 26.463L113.67 26.7078L113.519 26.7035L113.258 26.8329L112.84 26.6085L112.537 26.5999L112.105 26.3295L111.71 26.3488L111.128 26.5755L110.812 26.521L110.138 26.7755L109.743 26.7947L109.203 27.1593L108.973 27.2288L108.891 27.4543L108.676 27.5698L108.502 27.8231L108.223 28.0583L108.201 28.3159L107.921 28.5511L107.775 28.8964L107.386 29.2652L107.272 29.5506L107.328 29.7345L106.971 30.0434L107.008 30.3331L106.802 30.6463L106.675 30.8857L106.423 31.2129L106.584 31.4149L106.365 31.6821L106.232 32.0733L106.105 32.3128L106.114 32.5105L106.05 32.6303L106.042 32.9338L105.84 33.0953L105.754 33.4726L105.824 33.7024L105.714 33.836L105.646 34.1075L105.573 34.5308L105.523 34.6965L105.427 34.8761L105.373 35.1936L105.406 35.635L105.201 35.9482L105.435 36.2283L105.491 36.4121L105.345 36.7574L105.277 37.0289L105.254 37.2865L105.25 37.4383L105.333 37.7141L105.329 37.8658L105.38 38.2015L105.316 38.3212L105.234 38.5467L105.543 38.9048L105.447 39.0844L105.544 39.4061L105.701 39.7599L105.724 40.0036L105.853 40.2655L105.969 40.4814L106.19 40.7155L106.273 40.9912L106.673 41.3215L106.862 41.6154L107.114 41.7896L107.335 42.0237L107.648 42.23L108.052 42.4084L108.189 42.3667L108.749 42.3977L109.024 42.3143L109.13 42.3324L109.754 42.2437L110.107 42.0865L110.326 41.8193L110.464 41.7776L110.669 41.4644L110.825 41.3168L111.32 40.9662L111.448 40.7267L111.795 40.22L112.202 39.7454L112.302 39.414L112.476 39.1607L112.622 38.8154L112.754 38.4242L112.822 38.1527L112.84 38.0468L113.004 37.5957L113.105 37.2644L113.173 36.9929L113.351 36.5877L113.515 36.1366L113.697 35.5797L113.691 35.2302L113.874 34.6733L114.103 34.6038L114.21 35.1232L114.289 35.5508L114.446 35.9046L114.511 36.2862L114.443 36.5577L114.65 36.7458L114.701 37.0814L114.647 37.3989L114.931 37.5133L114.983 37.8489L115.08 38.1706L115.36 38.4368L115.393 38.8782L115.72 39.1304L116.014 39.4425L116.267 39.6167L116.671 39.7952L117.016 39.9416L117.544 40.0324L117.695 40.0367L118.209 40.0815L118.424 39.9661L118.773 39.9607L119.08 39.8174L119.497 39.5405L119.772 39.4571L120.069 39.1161L120.376 38.9729L120.532 38.8253L120.871 38.6222L121.013 38.4287L121.246 38.2074L121.544 37.8664L121.717 37.6131L121.529 37.3192L121.134 37.3384ZM113.523 28.2075L113.56 28.4971L113.639 28.9247L113.681 29.0626L113.768 29.1866L113.686 29.4121L113.642 29.9273L113.826 30.3731L113.58 31.0497L113.695 31.2656L113.751 31.4495L113.517 31.6707L113.417 32.0021L113.427 32.1999L113.345 32.4254L113.323 32.683L113.25 33.1063L113.104 33.4516L113.054 33.6173L112.996 34.0865L112.978 34.1923L112.955 34.45L112.732 34.869L112.727 35.0208L112.586 35.2143L112.581 35.366L112.541 35.7295L112.349 36.0886L112.263 36.466L112.117 36.8113L111.999 37.2484L111.857 37.4419L111.849 37.7455L111.735 38.0309L111.511 38.4499L111.393 38.8871L111.201 39.2463L110.885 39.6932L110.68 40.0064L110.52 40.3057L109.961 40.776L109.696 41.0572L109.311 41.2742L108.691 41.2112L108.329 41.1706L108.007 40.7666L107.63 40.6801L107.565 40.2985L107.422 39.9906L107.155 39.7705L107.062 39.2969L106.993 39.0671L106.864 38.8053L106.946 38.5797L106.927 38.1842L106.807 38.1201L106.724 37.8443L106.782 37.3751L106.695 37.2511L106.735 36.8877L106.744 36.5841L106.798 36.2666L106.898 35.9352L106.888 35.7375L106.805 35.4617L106.782 35.218L106.909 34.9786L107.087 34.5734L107.082 34.2239L107.278 33.7129L107.36 33.4874L107.612 33.1603L107.451 32.9583L107.61 32.659L107.605 32.3094L107.824 32.0422L107.755 31.8124L108.043 31.2736L108.015 31.1817L108.129 30.8963L108.381 30.5692L108.481 30.2378L108.577 30.0582L108.764 29.8508L108.86 29.6713L109.126 29.3901L109.395 28.9572L109.541 28.6119L109.816 28.5285L110.205 28.1597L110.526 28.0624L111.14 27.7759L111.627 27.7288L111.796 27.6272L112.205 27.6539L112.687 27.7586L112.912 27.8409L113.302 27.9734L113.523 28.2075ZM139.727 34.1096L139.617 34.2433L139.443 34.4966L139.329 34.782L139.123 35.0952L138.826 35.4362L138.716 35.5699L138.331 35.7869L137.785 35.8019L137.349 35.6833L136.935 35.3071L136.737 34.8154L136.544 34.6732L136.429 34.4573L136.401 34.3654L136.413 33.9101L136.261 33.4045L136.269 33.1009L136.053 32.7151L135.955 32.3933L135.936 31.9978L135.894 31.8599L135.963 31.5884L135.847 31.3725L135.852 31.2207L135.804 30.7333L135.73 30.154L135.513 29.7681L135.544 29.2069L135.57 28.7976L135.413 28.4438L135.482 28.1722L135.458 27.9285L135.351 27.4091L135.346 27.0595L135.367 26.3006L135.256 25.9329L135.287 25.3717L135.156 24.6085L134.884 24.0388L134.695 23.7449L134.433 23.373L134.222 23.3366L133.891 23.2362L133.62 23.1678L133.098 23.4265L132.91 23.6339L132.87 23.9973L132.628 24.5222L132.492 25.0652L132.465 25.4746L132.173 26.1652L131.709 26.5638L132.015 26.9658L131.72 27.2659L131.81 27.7803L131.752 28.2496L131.651 28.5809L131.565 28.9583L131.443 29.5472L130.927 29.9148L130.757 31.1319L130.773 31.6418L130.426 32.0348L130.808 32.7498L130.764 33.265L130.618 33.6102L130.495 34.1992L130.281 34.816L129.971 35.6124L129.586 35.8294L129.27 35.7749L129.035 35.4949L128.809 34.9113L128.569 34.2817L128.466 33.6105L128.295 33.2107L128.184 32.843L128.225 32.4796L127.994 32.0478L128.025 31.4866L127.9 31.0729L127.807 30.5994L127.842 29.8864L127.735 29.367L127.688 28.8795L127.462 28.2959L127.397 27.9143L127.377 27.5188L127.261 26.8016L127.062 26.3099L126.951 25.9422L126.744 25.7541L126.358 25.4698L125.848 25.2732L125.39 25.4122L125.065 25.6613L124.983 25.8869L124.809 26.1402L124.645 26.5913L124.495 27.0884L124.468 27.4977L124.396 27.921L124.246 28.4181L124.297 28.7537L124.211 29.1311L124.12 29.6602L124.016 30.1433L124.003 30.5987L123.899 31.0818L123.831 31.3534L123.8 31.9145L123.742 32.3838L123.729 32.8392L123.607 33.4281L123.538 33.6996L123.48 34.1689L123.453 34.5783L123.399 34.8958L123.405 35.2453L123.277 35.4847L123.26 36.0919L123.133 36.8327L123.015 37.2698L123.052 37.5595L122.902 38.0566L122.762 38.7514L122.685 39.3265L122.375 40.1228L121.965 41.2506L121.504 42.0427L120.863 42.7386L119.298 43.4766L119.524 44.0602L120.134 43.9255L121.544 43.32L122.807 42.049L123.194 41.1788L123.541 40.1708L123.791 39.3424L123.886 38.6615L124.004 38.2243L124.239 36.8486L124.252 36.3932L124.324 35.9699L124.442 35.5327L124.473 34.9716L124.536 34.3505L124.64 33.8674L124.662 33.6097L124.721 33.1405L124.885 32.6894L124.838 32.202L124.956 31.7648L125.065 31.1298L125.041 30.8861L125.204 29.9337L125.336 29.5425L125.285 29.2068L125.407 28.6179L125.47 27.9968L125.588 27.5596L125.738 27.0626L125.959 27.2966L126.034 27.876L126.215 28.9748L126.249 29.4163L126.468 30.8048L126.497 31.398L126.669 32.2991L126.864 33.4439L127.022 34.299L127.133 34.6667L127.171 34.9563L127.425 35.6319L127.586 35.8339L127.918 36.4356L128.184 36.6558L128.497 36.8621L128.768 36.9305L129.162 36.9112L129.511 36.9058L130.213 36.7433L130.835 36.1532L131.133 35.8122L131.215 35.5866L131.383 34.9837L131.497 34.6983L131.541 34.1831L131.6 33.7138L131.668 33.4423L131.814 33.0971L131.809 32.7475L131.895 32.3702L131.953 31.9009L132.09 31.3579L132.144 31.0404L132.152 30.7369L132.353 30.0741L132.461 29.4392L132.543 29.2136L132.634 28.6845L132.702 28.413L132.834 28.0218L132.883 27.3548L133.029 27.0095L133.101 26.5862L133.265 26.1351L133.507 25.6103L133.842 25.5589L133.971 25.8208L133.965 27.127L134.023 28.3135L134.121 29.1365L134.239 30.3551L134.254 30.9024L134.343 31.5277L134.459 32.2449L134.59 33.0081L134.887 34.3228L135.122 35.1042L135.367 35.5819L135.583 35.9678L136.071 36.422L136.365 36.7341L136.59 36.8164L137.238 36.9713L137.572 36.92L137.829 36.9424L138.027 36.9328L138.609 36.7061L139.103 36.3555L139.465 35.8947L139.639 35.6414L139.707 35.3699L139.807 35.0385L139.943 34.4955L139.727 34.1096Z" fill="#08A045"/>
<path d="M154.356 27.2662L153.985 27.5292L153.825 27.8285L153.532 28.0178L153.252 28.2529L152.959 28.4422L152.758 28.6036L152.451 28.7469L152.281 28.8484L151.882 29.0195L151.731 29.0152L151.258 29.1083L150.988 29.0399L150.565 28.9672L150.506 28.9352L150.161 28.7888L150.032 28.5269L149.72 28.3206L149.654 27.939L149.392 27.5671L149.35 27.4292L149.285 27.0476L149.146 26.588L148.856 26.1241L148.892 25.9125L148.809 25.6367L148.913 25.1535L148.752 24.9515L148.632 24.3861L148.796 23.935L148.625 23.5352L148.697 23.1119L148.674 22.8682L148.806 22.477L148.709 22.1553L148.745 21.9436L148.648 21.6219L148.78 21.2306L148.747 20.7892L148.617 20.5273L148.809 20.1681L148.882 19.7448L148.674 19.0554L148.742 18.7839L148.686 18.6001L148.804 18.1629L148.827 17.9053L148.867 17.5418L148.985 17.1046L148.824 16.9026L148.751 16.8246L148.805 16.5071L148.552 16.3329L148.359 16.1908L148.066 16.38L147.689 16.2935L147.368 16.3908L146.892 16.6356L146.741 16.6313L146.479 16.7607L146.061 16.5363L145.758 16.5277L145.326 16.2573L144.932 16.2766L144.35 16.5033L144.033 16.4488L143.359 16.7033L142.965 16.7225L142.424 17.0871L142.195 17.1566L142.113 17.3821L141.898 17.4976L141.724 17.7509L141.444 17.9861L141.422 18.2437L141.143 18.4789L140.997 18.8242L140.608 19.193L140.494 19.4784L140.549 19.6623L140.192 19.9712L140.23 20.2609L140.024 20.5741L139.896 20.8135L139.645 21.1407L139.806 21.3427L139.586 21.6099L139.454 22.0011L139.326 22.2406L139.336 22.4383L139.272 22.5581L139.263 22.8616L139.062 23.0231L138.976 23.4004L139.045 23.6302L138.935 23.7638L138.867 24.0353L138.795 24.4586L138.745 24.6243L138.649 24.8039L138.594 25.1214L138.628 25.5628L138.422 25.876L138.657 26.1561L138.712 26.3399L138.566 26.6852L138.498 26.9567L138.476 27.2143L138.472 27.3661L138.555 27.6419L138.551 27.7937L138.602 28.1293L138.538 28.249L138.456 28.4746L138.764 28.8326L138.668 29.0122L138.765 29.3339L138.922 29.6877L138.946 29.9314L139.075 30.1933L139.19 30.4092L139.411 30.6433L139.494 30.919L139.894 31.2493L140.083 31.5432L140.336 31.7174L140.557 31.9515L140.869 32.1578L141.273 32.3362L141.411 32.2945L141.971 32.3255L142.246 32.2421L142.351 32.2603L142.975 32.1715L143.328 32.0143L143.548 31.7471L143.685 31.7054L143.891 31.3922L144.047 31.2446L144.541 30.894L144.669 30.6545L145.017 30.1478L145.424 29.6732L145.524 29.3418L145.698 29.0885L145.844 28.7432L145.976 28.352L146.044 28.0805L146.062 27.9746L146.226 27.5235L146.326 27.1922L146.394 26.9207L146.572 26.5155L146.736 26.0644L146.918 25.5075L146.913 25.158L147.095 24.6011L147.324 24.5316L147.431 25.0511L147.51 25.4786L147.667 25.8324L147.732 26.214L147.664 26.4855L147.871 26.6736L147.922 27.0092L147.868 27.3267L148.153 27.4411L148.204 27.7767L148.301 28.0984L148.582 28.3646L148.615 28.806L148.941 29.0583L149.236 29.3703L149.489 29.5445L149.893 29.723L150.237 29.8694L150.765 29.9602L150.916 29.9645L151.43 30.0093L151.646 29.8939L151.995 29.8885L152.302 29.7452L152.718 29.4683L152.993 29.3849L153.291 29.0439L153.598 28.9007L153.754 28.7531L154.093 28.55L154.234 28.3565L154.468 28.1353L154.765 27.7942L154.939 27.5409L154.75 27.247L154.356 27.2662ZM146.744 18.1353L146.782 18.425L146.861 18.8525L146.902 18.9904L146.99 19.1144L146.908 19.3399L146.863 19.8551L147.048 20.3009L146.802 20.9775L146.917 21.1934L146.972 21.3773L146.739 21.5985L146.639 21.9299L146.649 22.1277L146.566 22.3532L146.544 22.6108L146.472 23.0341L146.326 23.3794L146.276 23.5451L146.217 24.0143L146.199 24.1201L146.177 24.3778L145.953 24.7968L145.949 24.9486L145.807 25.1421L145.803 25.2938L145.763 25.6573L145.571 26.0165L145.484 26.3938L145.338 26.7391L145.22 27.1763L145.079 27.3697L145.07 27.6733L144.956 27.9587L144.732 28.3778L144.614 28.8149L144.422 29.1741L144.107 29.621L143.901 29.9342L143.741 30.2335L143.183 30.7038L142.917 30.985L142.532 31.202L141.913 31.139L141.55 31.0984L141.228 30.6944L140.852 30.6079L140.786 30.2263L140.643 29.9184L140.377 29.6983L140.284 29.2248L140.214 28.9949L140.085 28.7331L140.167 28.5075L140.148 28.112L140.029 28.0479L139.945 27.7721L140.004 27.3029L139.916 27.1789L139.957 26.8155L139.965 26.5119L140.019 26.1944L140.12 25.863L140.11 25.6653L140.027 25.3895L140.003 25.1458L140.131 24.9064L140.309 24.5012L140.303 24.1517L140.5 23.6408L140.582 23.4152L140.833 23.0881L140.672 22.8861L140.832 22.5868L140.826 22.2372L141.046 21.97L140.977 21.7402L141.264 21.2014L141.237 21.1095L141.351 20.8241L141.602 20.497L141.702 20.1656L141.798 19.986L141.986 19.7786L142.082 19.5991L142.347 19.3179L142.617 18.885L142.763 18.5397L143.038 18.4563L143.427 18.0875L143.748 17.9902L144.362 17.7037L144.848 17.6566L145.018 17.555L145.426 17.5817L145.908 17.6864L146.133 17.7687L146.523 17.9012L146.744 18.1353Z" fill="#08A045"/>
<path d="M157.971 22.5077L158.177 22.1944L158.333 22.0469L158.231 21.877L158.037 21.2335L157.802 20.9535L157.975 20.1988L157.785 19.4036L157.599 18.4565L157.707 17.8216L157.66 17.3342L157.774 17.0488L157.705 16.819L157.626 16.3914L157.63 16.2396L157.707 15.6645L157.641 15.2829L157.746 14.7998L157.557 14.5059L157.635 14.4321L157.556 14.0045L157.523 13.5631L157.539 12.9559L157.58 12.5925L157.46 12.5284L157.469 12.2248L157.633 11.7737L157.518 11.5578L157.347 11.158L157.373 10.7487L157.468 10.0677L157.495 9.65835L157.411 9.38258L157.557 9.03731L157.584 8.62792L157.445 8.1683L157.495 8.00261L157.668 7.24795L157.552 7.03204L157.423 6.77017L157.619 6.25921L157.494 5.84555L157.668 5.59221L157.672 5.44042L157.625 4.95301L157.584 4.81513L157.656 4.39183L157.812 4.2443L157.655 3.89051L157.796 3.69703L157.648 3.03966L157.477 2.63991L157.757 2.40472L157.815 1.93546L157.718 1.61373L157.735 1.00658L157.72 0.459311L157.463 0.436884L156.981 0.332175L156.114 0.444496L155.895 1.21306L156.08 1.65878L155.966 1.94419L155.94 2.35358L156.133 2.49573L156 2.88696L156.175 3.13493L156.167 3.4385L156.086 4.16537L156.082 4.31715L156.133 4.65279L156.001 5.04402L156.154 5.5496L156.287 5.65968L156.101 6.36839L156.208 6.88787L156.03 7.29299L156.145 7.50891L156.248 8.18017L156.143 8.66333L156.199 8.84718L156.176 9.10479L156.347 9.50454L156.311 9.71619L156.376 10.0978L156.184 10.457L156.263 10.8845L156.163 11.2159L156.31 11.3719L156.27 11.7354L156.317 12.2228L156.309 12.5264L156.232 13.1014L156.247 13.6487L156.312 14.0303L156.355 14.6695L156.42 15.0511L156.416 15.2029L156.308 15.8378L156.437 16.0997L156.474 16.3894L156.503 16.9826L156.463 17.346L156.52 18.0312L156.493 18.4406L156.503 18.6383L156.55 19.1258L156.657 19.6452L156.493 20.0963L156.535 20.7355L156.436 21.5682L156.575 22.0279L156.654 22.4554L156.742 22.5794L157.104 22.62L157.535 22.3891L157.971 22.5077ZM158.428 28.9916L158.518 28.4625L158.421 28.1408L158.434 27.6854L158.346 27.5614L158.391 27.0462L158.142 26.7202L157.857 26.6059L157.569 26.6433L156.906 26.6645L156.757 26.9395L156.767 27.1372L156.589 27.5423L156.644 27.7262L156.737 28.1997L156.701 28.4114L156.932 28.8432L157.166 29.0388L157.896 29.0526L158.428 28.9916Z" fill="#08A045"/>
</svg>
